{
.appVersion = "3078";
classes = (
{
code = "kasratan-ar kasra-ar";
name = Kasra;
},
{
code = "kasratan-ar.alt kasra-ar.alt";
name = Kasra.alt;
},
{
code = "dotbelow-ar twodotshorizontalbelow-ar";
name = Dots;
},
{
code = "@Dots @Kasra";
name = Filter;
}
);
customParameters = (
{
name = fsType;
value = (
);
},
{
name = "Use Typo Metrics";
value = 1;
},
{
name = "Disable Last Change";
value = 1;
},
{
name = "Use Line Breaks";
value = 1;
},
{
name = "Variable Font Origin";
value = master01;
},
{
name = description;
value = "Mada is a geometric, unmodulted Arabic display typeface inspired by Cairo road signage.";
},
{
name = license;
value = "This Font Software is licensed under the SIL Open Font License, Version 1.1. This license is available with a FAQ at: http://scripts.sil.org/OFL";
},
{
name = licenseURL;
value = "http://scripts.sil.org/OFL";
},
{
name = sampleText;
value = "صف خلق خود كمثل ٱلشمس إذ بزغت يحظى ٱلضجيع بها نجلاء معطار.";
},
{
name = vendorID;
value = ALIF;
},
{
name = Axes;
value = (
{
Name = Weight;
Tag = wght;
}
);
}
);
date = "2015-10-10 14:55:59 +0000";
designer = "Khaled Hosny";
familyName = Mada;
featurePrefixes = (
{
code = "languagesystem arab dflt;
#languagesystem arab ARA;
#languagesystem arab FAR;
languagesystem arab URD;
languagesystem arab KSH;
languagesystem arab SND;

";
name = Languagesystems;
},
{
code = "lookup LamAlef {
  sub lam-ar.init by lam-ar.init.1;
  sub lam-ar.medi by lam-ar.medi.1;
  sub alef-ar.fina by alef-ar.fina.1;
} LamAlef;

lookup ss03_l {
  sub @Kasra by @Kasra.alt;
  sub shadda-ar by shadda-ar.alt;
} ss03_l;

# ss01 is generated by code";
name = Prefix;
}
);
features = (
{
code = " lookupflag IgnoreMarks;
  script arab;

  language URD  exclude_dflt;
    sub four-persian by four-persian.urdu;
    sub six-persian by six-ar;
    sub seven-persian by seven-persian.urdu;

  language KSH  exclude_dflt;
    sub four-persian by four-persian.urdu;
    sub six-persian by six-ar;

glyphs = (
{
glyphname = "hamza-ar";
layers = (
{
anchors = (
{
name = bottom.a;
position = "{150, -86}";
},
{
name = bottom.mark;
position = "{150, -113}";
},
{
name = top.a;
position = "{222, 326}";
},
{
name = top.mark;
position = "{222, 363}";
}
);
layerId = master01;
paths = (
{
closed = 1;
nodes = (
"207 0 LINE SMOOTH",
"218 0 OFFCURVE",
"242 2 OFFCURVE",
"256 21 CURVE SMOOTH",
"272 43 OFFCURVE",
"259 65 OFFCURVE",
"253 78 CURVE SMOOTH",
"221 147 LINE",
"315 147 LINE",
"315 225 LINE",
"184 225 LINE SMOOTH",
"158 225 OFFCURVE",
"140 215 OFFCURVE",
"132 203 CURVE SMOOTH",
"115 179 OFFCURVE",
"134 147 OFFCURVE",
"134 146 CURVE SMOOTH",
"166 79 LINE",
"61 79 LINE",
"61 0 LINE"
);
}
);
width = 376;
},
{
anchors = (
{
name = bottom.a;
position = "{116, -80}";
},
{
name = bottom.mark;
position = "{116, -100}";
},
{
name = top.a;
position = "{156, 243}";
},
{
name = top.mark;
position = "{156, 281}";
}
);
layerId = "0CAB57D4-4FC4-49C3-B456-FB7666EAA712";
paths = (
{
closed = 1;
nodes = (
"151 0 LINE SMOOTH",
"157.202 0 OFFCURVE",
"168.958 1.566 OFFCURVE",
"174.333 9.317 CURVE SMOOTH",
"182.667 21.333 OFFCURVE",
"175.312 33.442 OFFCURVE",
"172.543 39.675 CURVE SMOOTH",
"138.757 111 LINE",
"232 111 LINE",
"232 143 LINE",
"133 143 LINE SMOOTH",
"122.542 143 OFFCURVE",
"112.677 140.006 OFFCURVE",
"107.563 134.5 CURVE SMOOTH",
"96.371 122.45 OFFCURVE",
"107.133 103.056 OFFCURVE",
"107.457 102.325 CURVE SMOOTH",
"140.77 32 LINE",
"40 32 LINE",
"40 0 LINE"
);
}
);
width = 272;
},
{
anchors = (
{
name = bottom.a;
position = "{180, -120}";
},
{
name = bottom.mark;
position = "{180, -155}";
},
{
name = top.a;
position = "{290, 493}";
},
{
name = top.mark;
position = "{290, 541}";
}
);
layerId = "42B3044F-4D5A-45CA-9EB7-C1889731596B";
paths = (
{
closed = 1;
nodes = (
"249 0 LINE SMOOTH",
"261 -1 OFFCURVE",
"318 9 OFFCURVE",
"343 49 CURVE SMOOTH",
"372 94 OFFCURVE",
"348 136 OFFCURVE",
"341 151 CURVE SMOOTH",
"322 191 LINE",
"391 191 LINE",
"391 363 LINE",
"220 363 LINE SMOOTH",
"178 363 OFFCURVE",
"145 346 OFFCURVE",
"128 328 CURVE SMOOTH",
"81 280 OFFCURVE",
"123 211 OFFCURVE",
"123 211 CURVE",
"141 172 LINE",
"60 172 LINE",
"60 0 LINE"
);
}
);
width = 451;
}
);
unicode = 0621;
},
{
glyphname = "alef-ar";
layers = (
{
anchors = (
{
name = bottom.a;
position = "{99, -29}";
},
{
name = bottom.hamza;
position = "{99, -29}";
},
{
name = bottom.mark;
position = "{99, -53}";
},
{
name = top.a;
position = "{99, 664}";
},
{
name = top.hamza;
position = "{99, 664}";
},
{
name = top.kaf;
position = "{99, 664}";
},
{
name = top.mark;
position = "{99, 701}";
}
);
layerId = master01;
paths = (
{
closed = 1;
nodes = (
"111 0 OFFCURVE",
"139 37 OFFCURVE",
"139 82 CURVE SMOOTH",
"139 624 LINE",
"61 624 LINE",
"61 0 LINE"
);
}
);
width = 200;
},
{
anchors = (
{
name = bottom.a;
position = "{96, -29}";
},
{
name = bottom.hamza;
position = "{96, -29}";
},
{
name = bottom.mark;
position = "{96, -58}";
},
{
name = top.a;
position = "{96, 664}";
},
{
name = top.hamza;
position = "{96, 664}";
},
{
name = top.kaf;
position = "{96, 664}";
},
{
name = top.mark;
position = "{96, 702}";
}
);
layerId = "0CAB57D4-4FC4-49C3-B456-FB7666EAA712";
paths = (
{
closed = 1;
nodes = (
"101 1 OFFCURVE",
"112 19 OFFCURVE",
"112 33 CURVE SMOOTH",
"112 624 LINE",
"80 624 LINE",
"80 1 LINE"
);
}
);
width = 192;
},
{
anchors = (
{
name = bottom.a;
position = "{136, -49}";
},
{
name = bottom.hamza;
position = "{136, -49}";
},
{
name = bottom.mark;
position = "{136, -74}";
},
{
name = top.a;
position = "{136, 684}";
},
{
name = top.hamza;
position = "{136, 684}";
},
{
name = top.kaf;
position = "{136, 684}";
},
{
name = top.mark;
position = "{136, 732}";
}
);
layerId = "42B3044F-4D5A-45CA-9EB7-C1889731596B";
paths = (
{
closed = 1;
nodes = (
"185 1 OFFCURVE",
"232 96 OFFCURVE",
"232 193 CURVE SMOOTH",
"232 624 LINE",
"60 624 LINE",
"60 1 LINE"
);
}
);
width = 292;
}
);
unicode = 0627;
},
{
glyphname = "alef-ar.fina.1";
production = uni0627.fina.1;
layers = (
{
anchors = (
{
name = bottom.a;
position = "{92, -99}";
},
{
name = bottom.hamza;
position = "{92, -99}";
},
{
name = bottom.mark;
position = "{92, -126}";
},
{
name = top.a;
position = "{108, 723}";
},
{
name = top.hamza;
position = "{108, 723}";
},
{
name = top.kaf;
position = "{108, 723}";
},
{
name = top.mark;
position = "{108, 760}";
}
);
layerId = master01;
paths = (
{
closed = 1;
nodes = (
"138 66 LINE",
"217 107 OFFCURVE",
"271 163 OFFCURVE",
"284 214 CURVE SMOOTH",
"287 226 OFFCURVE",
"290 240 OFFCURVE",
"286 254 CURVE",
"160 657 LINE",
"85 635 LINE",
"209 239 LINE",
"209 140 OFFCURVE",
"130 93 OFFCURVE",
"77 66 CURVE"
);
}
);
width = 213;
},
{
anchors = (
{
name = bottom.a;
position = "{100, -100}";
},
{
name = bottom.hamza;
position = "{100, -100}";
},
{
name = bottom.mark;
position = "{100, -120}";
},
{
name = top.a;
position = "{110, 697}";
},
{
name = top.hamza;
position = "{110, 697}";
},
{
name = top.kaf;
position = "{110, 697}";
},
{
name = top.mark;
position = "{110, 735}";
}
);
layerId = "0CAB57D4-4FC4-49C3-B456-FB7666EAA712";
paths = (
{
closed = 1;
nodes = (
"129 25 LINE",
"204 58 OFFCURVE",
"276 122 OFFCURVE",
"287.779 177.827 CURVE SMOOTH",
"289.727 187.062 OFFCURVE",
"291 201 OFFCURVE",
"289.606 206.206 CURVE",
"136 647 LINE",
"106 639 LINE",
"260.002 196.847 LINE",
"257 104 OFFCURVE",
"132 39 OFFCURVE",
"107 25 CURVE"
);
}
);
width = 200;
},
{
associatedMasterId = "0CAB57D4-4FC4-49C3-B456-FB7666EAA712";
layerId = "0E5D1CE5-F3A7-4D63-B290-040438F41692";
name = Back;
paths = (
{
closed = 1;
nodes = (
"322 624 LINE",
"322 71 LINE SMOOTH",
"322 31 OFFCURVE",
"292 1 OFFCURVE",
"255 1 CURVE SMOOTH",
"40 1 LINE",
"40 33 LINE",
"255 33 LINE SMOOTH",
"274 33 OFFCURVE",
"290 47 OFFCURVE",
"290 71 CURVE SMOOTH",
"290 624 LINE"
);
}
);
width = 0;
},
{
anchors = (
{
name = bottom.a;
position = "{100, -99}";
},
{
name = bottom.hamza;
position = "{100, -99}";
},
{
name = bottom.mark;
position = "{100, -134}";
},
{
name = top.a;
position = "{120, 738}";
},
{
name = top.hamza;
position = "{120, 738}";
},
{
name = top.kaf;
position = "{120, 738}";
},
{
name = top.mark;
position = "{120, 786}";
}
);
layerId = "42B3044F-4D5A-45CA-9EB7-C1889731596B";
paths = (
{
closed = 1;
nodes = (
"194 124 LINE",
"280.529 147.26 OFFCURVE",
"343.685 189.566 OFFCURVE",
"360.914 270.247 CURVE SMOOTH",
"362.203 276.281 OFFCURVE",
"364 295 OFFCURVE",
"358.322 308.529 CURVE",
"248 688 LINE",
"83 640 LINE",
"199.075 241.022 LINE",
"185.677 176.236 OFFCURVE",
"139.909 151.132 OFFCURVE",
"84 124 CURVE"
);
}
);
width = 270;
},
{
associatedMasterId = "42B3044F-4D5A-45CA-9EB7-C1889731596B";
layerId = "187B6C6B-A6CD-4522-B91C-58C6AA01A033";
name = Back;
paths = (
{
closed = 1;
nodes = (
"533.558 624 LINE",
"533.558 138 LINE SMOOTH",
"533.558 62 OFFCURVE",
"470.558 0 OFFCURVE",
"394.558 0 CURVE SMOOTH",
"61.558 0 LINE",
"61.558 172 LINE",
"381.558 172 LINE",
"361.558 152 LINE",
"361.558 624 LINE"
);
}
);
width = 0;
}
);
},
{
glyphname = "alef-ar.fina.1.short";
production = uni0627.fina.1.short;
layers = (
{
anchors = (
{
name = bottom.mark;
position = "{92, -126}";
},
{
name = top.hamza;
position = "{150, 457}";
}
);
layerId = master01;
paths = (
{
closed = 1;
nodes = (
"138 66 LINE",
"217 107 OFFCURVE",
"271 163 OFFCURVE",
"284 214 CURVE SMOOTH",
"287 226 OFFCURVE",
"290 240 OFFCURVE",
"286 254 CURVE",
"181 502 LINE",
"108 476 LINE",
"209 239 LINE",
"209 140 OFFCURVE",
"130 93 OFFCURVE",
"77 66 CURVE"
);
}
);
width = 212.92792;
},
{
anchors = (
{
name = bottom.mark;
position = "{100, -120}";
},
{
name = top.hamza;
position = "{158, 481}";
}
);
layerId = "0CAB57D4-4FC4-49C3-B456-FB7666EAA712";
paths = (
{
closed = 1;
nodes = (
"129 25 LINE",
"204 58 OFFCURVE",
"276 122 OFFCURVE",
"288 178 CURVE SMOOTH",
"290 187 OFFCURVE",
"291 201 OFFCURVE",
"290 206 CURVE",
"189 495 LINE",
"160 485 LINE",
"260 197 LINE",
"257 104 OFFCURVE",
"132 39 OFFCURVE",
"107 25 CURVE"
);
}
);
width = 200.19456;
},
{
anchors = (
{
name = bottom.mark;
position = "{100, -134}";
},
{
name = top.hamza;
position = "{206, 412}";
}
);
layerId = "42B3044F-4D5A-45CA-9EB7-C1889731596B";
paths = (
{
closed = 1;
nodes = (
"194 124 LINE",
"281 147 OFFCURVE",
"344 190 OFFCURVE",
"361 270 CURVE SMOOTH",
"362 276 OFFCURVE",
"364 295 OFFCURVE",
"358 309 CURVE",
"311 470 LINE",
"148 416 LINE",
"199 241 LINE",
"186 176 OFFCURVE",
"140 151 OFFCURVE",
"84 124 CURVE"
);
}
);
width = 270.2394;
}
);
},
{
glyphname = "alef-ar.short";
production = uni0627.short;
layers = (
{
anchors = (
{
name = bottom.mark;
position = "{99, -53}";
},
{
name = top.hamza;
position = "{99, 457}";
}
);
layerId = master01;
paths = (
{
closed = 1;
nodes = (
"111 0 OFFCURVE",
"139 37 OFFCURVE",
"139 82 CURVE SMOOTH",
"139 457 LINE",
"61 457 LINE",
"61 0 LINE"
);
}
);
width = 200;
},
{
anchors = (
{
name = bottom.mark;
position = "{96, -58}";
},
{
name = top.hamza;
position = "{96, 481}";
}
);
layerId = "0CAB57D4-4FC4-49C3-B456-FB7666EAA712";
paths = (
{
closed = 1;
nodes = (
"101 1 OFFCURVE",
"112 19 OFFCURVE",
"112 33 CURVE SMOOTH",
"112 481 LINE",
"80 481 LINE",
"80 1 LINE"
);
}
);
width = 192;
},
{
anchors = (
{
name = bottom.mark;
position = "{136, -74}";
},
{
name = top.hamza;
position = "{136, 412}";
}
);
layerId = "42B3044F-4D5A-45CA-9EB7-C1889731596B";
paths = (
{
closed = 1;
nodes = (
"185 1 OFFCURVE",
"232 96 OFFCURVE",
"232 193 CURVE SMOOTH",
"232 413 LINE",
"60 413 LINE",
"60 1 LINE"
);
}
);
width = 292;
}
);
},
{
glyphname = "alef-ar.fina.short";
production = uni0627.fina.short;
layers = (
{
anchors = (
{
name = bottom.mark;
position = "{117, -53}";
},
{
name = top.hamza;
position = "{97, 457}";
}
);
layerId = master01;
paths = (
{
closed = 1;
nodes = (
"273 0 LINE",
"273 79 LINE",
"116 79 LINE",
"119.15 75.5 OFFCURVE",
"121.85 72.5 OFFCURVE",
"125 69 CURVE",
"125 457 LINE",
"46 457 LINE",
"46 92 LINE SMOOTH",
"46 41 OFFCURVE",
"86 0 OFFCURVE",
"139 0 CURVE SMOOTH"
);
}
);
width = 257;
},
{
anchors = (
{
name = bottom.mark;
position = "{56, -58}";
},
{
name = top.hamza;
position = "{56, 481}";
}
);
layerId = "0CAB57D4-4FC4-49C3-B456-FB7666EAA712";
paths = (
{
closed = 1;
nodes = (
"206 0 LINE",
"206 32 LINE",
"109 32 LINE SMOOTH",
"85 32 OFFCURVE",
"72 50 OFFCURVE",
"72 70 CURVE SMOOTH",
"72 481 LINE",
"40 481 LINE",
"40 70 LINE SMOOTH",
"40 36 OFFCURVE",
"65 0 OFFCURVE",
"109 0 CURVE SMOOTH"
);
}
);
width = 196;
},
{
anchors = (
{
name = bottom.mark;
position = "{186, -74}";
},
{
name = top.hamza;
position = "{136, 412}";
}
);
layerId = "42B3044F-4D5A-45CA-9EB7-C1889731596B";
paths = (
{
closed = 1;
nodes = (
"380 0 LINE",
"380 172 LINE",
"212 172 LINE",
"219 165.065 OFFCURVE",
"225 159.12 OFFCURVE",
"232 152.185 CURVE",
"232 412 LINE",
"60 412 LINE",
"60 138 LINE SMOOTH",
"60 62 OFFCURVE",
"123 0 OFFCURVE",
"199 0 CURVE SMOOTH"
);
}
);
width = 360;
}
);
},
{
glyphname = "behDotless-ar";
layers = (
{
anchors = (
{
name = bottom.a;
position = "{386, -149}";
},
{
name = bottom.hamza;
position = "{386, -149}";
},
{
name = bottom.mark;
position = "{386, -176}";
},
{
name = bottom.ring;
position = "{386, 0}";
},
{
name = top.a;
position = "{366, 394}";
},
{
name = top.hamza;
position = "{366, 431}";
},
{
name = top.mark;
position = "{366, 431}";
}
);
layerId = master01;
paths = (
{
closed = 1;
nodes = (
"596 0 LINE SMOOTH",
"645 0 OFFCURVE",
"687 42 OFFCURVE",
"687 92 CURVE SMOOTH",
"687 287 LINE",
"608 287 LINE",
"608 69 LINE",
"611.5 72.5 OFFCURVE",
"614.5 75.5 OFFCURVE",
"618 79 CURVE",
"204 79 LINE SMOOTH",
"159 79 OFFCURVE",
"125 112 OFFCURVE",
"125 147 CURVE SMOOTH",
"125 287 LINE",
"46 287 LINE",
"46 147 LINE SMOOTH",
"46 61 OFFCURVE",
"123 0 OFFCURVE",
"204 0 CURVE SMOOTH"
);
}
);
width = 733;
},
{
anchors = (
{
name = bottom.a;
position = "{357, -150}";
},
{
name = bottom.hamza;
position = "{357, -150}";
},
{
name = bottom.mark;
position = "{357, -170}";
},
{
name = bottom.ring;
position = "{357, 0}";
},
{
name = top.a;
position = "{337, 393}";
},
{
name = top.hamza;
position = "{337, 393}";
},
{
name = top.mark;
position = "{337, 430}";
}
);
layerId = "0CAB57D4-4FC4-49C3-B456-FB7666EAA712";
paths = (
{
closed = 1;
nodes = (
"566 0 LINE SMOOTH",
"600 0 OFFCURVE",
"634 32 OFFCURVE",
"634 68 CURVE SMOOTH",
"634 263 LINE",
"602 263 LINE",
"602 68 LINE SMOOTH",
"602 52 OFFCURVE",
"582 32 OFFCURVE",
"566 32 CURVE SMOOTH",
"174 32 LINE SMOOTH",
"118 32 OFFCURVE",
"72 73 OFFCURVE",
"72 123 CURVE SMOOTH",
"72 263 LINE",
"40 263 LINE",
"40 123 LINE SMOOTH",
"40 53 OFFCURVE",
"104 0 OFFCURVE",
"174 0 CURVE SMOOTH"
);
}
);
width = 674;
},
{
anchors = (
{
name = bottom.a;
position = "{447, -160}";
},
{
name = bottom.hamza;
position = "{447, -160}";
},
{
name = bottom.mark;
position = "{447, -195}";
},
{
name = bottom.ring;
position = "{447, 0}";
},
{
name = top.a;
position = "{427, 453}";
},
{
name = top.hamza;
position = "{427, 453}";
},
{
name = top.mark;
position = "{427, 497}";
}
);
layerId = "42B3044F-4D5A-45CA-9EB7-C1889731596B";
paths = (
{
closed = 1;
nodes = (
"656 0 LINE SMOOTH",
"733 0 OFFCURVE",
"794 61 OFFCURVE",
"794 138 CURVE SMOOTH",
"794 333 LINE",
"622 333 LINE",
"622 152 LINE",
"629 159 OFFCURVE",
"635 165 OFFCURVE",
"642 172 CURVE",
"264 172 LINE SMOOTH",
"240 172 OFFCURVE",
"232 189 OFFCURVE",
"232 193 CURVE SMOOTH",
"232 333 LINE",
"60 333 LINE",
"60 193 LINE SMOOTH",
"60 77 OFFCURVE",
"162 0 OFFCURVE",
"264 0 CURVE SMOOTH"
);
}
);
width = 854;
}
);
unicode = 066E;
},
{
glyphname = "behDotless-ar.init";
layers = (
{
anchors = (
{
name = bottom.a;
position = "{199, -149}";
},
{
name = bottom.hamza;
position = "{199, -149}";
},
{
name = bottom.mark;
position = "{199, -176}";
},
{
name = bottom.ring;
position = "{199, 0}";
},
{
name = top.a;
position = "{199, 491}";
},
{
name = top.hamza;
position = "{199, 491}";
},
{
name = top.kaf;
position = "{199, 491}";
},
{
name = top.mark;
position = "{199, 527}";
}
);
layerId = master01;
paths = (
{
closed = 1;
nodes = (
"289 0 LINE SMOOTH",
"339 0 OFFCURVE",
"382 39 OFFCURVE",
"382 91 CURVE SMOOTH",
"382 363 LINE",
"303 363 LINE",
"303 68 LINE",
"306.15 71.85 OFFCURVE",
"308.85 75.15 OFFCURVE",
"312 79 CURVE",
"0 79 LINE",
"0 0 LINE"
);
}
);
width = 428;
},
{
anchors = (
{
name = bottom.a;
position = "{199, -150}";
},
{
name = bottom.hamza;
position = "{199, -150}";
},
{
name = bottom.mark;
position = "{199, -170}";
},
{
name = bottom.ring;
position = "{199, 0}";
},
{
name = top.a;
position = "{199, 490}";
},
{
name = top.hamza;
position = "{199, 490}";
},
{
name = top.kaf;
position = "{199, 490}";
},
{
name = top.mark;
position = "{199, 528}";
}
);
layerId = "0CAB57D4-4FC4-49C3-B456-FB7666EAA712";
paths = (
{
closed = 1;
nodes = (
"289 0 LINE SMOOTH",
"328 0 OFFCURVE",
"358 29 OFFCURVE",
"358 67 CURVE SMOOTH",
"358 340 LINE",
"326 340 LINE",
"326 67 LINE SMOOTH",
"326 47 OFFCURVE",
"312 32 OFFCURVE",
"289 32 CURVE SMOOTH",
"0 32 LINE",
"0 0 LINE"
);
}
);
width = 398;
},
{
anchors = (
{
name = bottom.a;
position = "{229, -160}";
},
{
name = bottom.hamza;
position = "{229, -160}";
},
{
name = bottom.mark;
position = "{229, -195}";
},
{
name = bottom.ring;
position = "{229, 0}";
},
{
name = top.a;
position = "{234, 562}";
},
{
name = top.hamza;
position = "{234, 562}";
},
{
name = top.kaf;
position = "{234, 562}";
},
{
name = top.mark;
position = "{234, 610}";
}
);
layerId = "42B3044F-4D5A-45CA-9EB7-C1889731596B";
paths = (
{
closed = 1;
nodes = (
"289 0 LINE SMOOTH",
"365 0 OFFCURVE",
"428 62 OFFCURVE",
"428 138 CURVE SMOOTH",
"428 410 LINE",
"256 410 LINE",
"256 152 LINE",
"263 159 OFFCURVE",
"269 165 OFFCURVE",
"276 172 CURVE",
"0 172 LINE",
"0 0 LINE"
);
}
);
width = 488;
}
);
},
{
glyphname = "hah-ar";
layers = (
{
anchors = (
{
name = bottom.mark;
position = "{264, -243}";
},
{
name = center;
position = "{264, -17}";
},
{
name = top.a;
position = "{219, 511}";
},
{
name = top.hamza;
position = "{219, 511}";
},
{
name = top.mark;
position = "{219, 549}";
}
);
layerId = master01;
paths = (
{
closed = 1;
nodes = (
"410 -200 LINE",
"410 -121 LINE",
"169 -121 LINE SMOOTH",
"140 -121 OFFCURVE",
"124 -105 OFFCURVE",
"124 -80 CURVE SMOOTH",
"124 41 LINE SMOOTH",
"124 68 OFFCURVE",
"148 91 OFFCURVE",
"174 91 CURVE SMOOTH",
"422 91 LINE SMOOTH",
"473 91 OFFCURVE",
"488 141 OFFCURVE",
"488 161 CURVE SMOOTH",
"488 200 LINE",
"427 200 OFFCURVE",
"416 204 OFFCURVE",
"372 252 CURVE SMOOTH",
"338 289 OFFCURVE",
"286 378 OFFCURVE",
"163 424 CURVE",
"134 351 LINE",
"233 313 OFFCURVE",
"269 248 OFFCURVE",
"313 199 CURVE SMOOTH",
"324 187 OFFCURVE",
"337 175 OFFCURVE",
"354 170 CURVE",
"175 170 LINE SMOOTH",
"98 170 OFFCURVE",
"46 106 OFFCURVE",
"46 41 CURVE SMOOTH",
"46 -80 LINE SMOOTH",
"46 -148 OFFCURVE",
"99 -200 OFFCURVE",
"169 -200 CURVE SMOOTH"
);
}
);
width = 535;
},
{
anchors = (
{
name = bottom.mark;
position = "{248, -240}";
},
{
name = center;
position = "{248, -40}";
},
{
name = top.a;
position = "{158, 447}";
},
{
name = top.hamza;
position = "{158, 447}";
},
{
name = top.mark;
position = "{158, 484}";
}
);
layerId = "0CAB57D4-4FC4-49C3-B456-FB7666EAA712";
paths = (
{
closed = 1;
nodes = (
"381 -200 LINE",
"381 -168 LINE",
"140 -168 LINE SMOOTH",
"99 -169 OFFCURVE",
"72 -141 OFFCURVE",
"72 -104 CURVE SMOOTH",
"72 11 LINE SMOOTH",
"72 49 OFFCURVE",
"107 91 OFFCURVE",
"148 91 CURVE SMOOTH",
"393 91 LINE SMOOTH",
"424 91 OFFCURVE",
"436 124 OFFCURVE",
"436 137 CURVE SMOOTH",
"436 153 LINE",
"387 153 OFFCURVE",
"362 173 OFFCURVE",
"325 213 CURVE SMOOTH",
"288 254 OFFCURVE",
"241 335 OFFCURVE",
"125 379 CURVE",
"113 349 LINE",
"219 309 OFFCURVE",
"260 236 OFFCURVE",
"301 191 CURVE SMOOTH",
"328 162 OFFCURVE",
"359 132 OFFCURVE",
"401 123 CURVE",
"148 123 LINE SMOOTH",
"87 123 OFFCURVE",
"40 65 OFFCURVE",
"40 11 CURVE SMOOTH",
"40 -104 LINE SMOOTH",
"40 -159 OFFCURVE",
"82.991 -200 OFFCURVE",
"140 -200 CURVE SMOOTH"
);
}
);
width = 476;
},
{
anchors = (
{
name = bottom.mark;
position = "{338, -279}";
},
{
name = center;
position = "{338, 36}";
},
{
name = top.a;
position = "{348, 738}";
},
{
name = top.hamza;
position = "{348, 738}";
},
{
name = top.mark;
position = "{348, 786}";
}
);
layerId = "42B3044F-4D5A-45CA-9EB7-C1889731596B";
paths = (
{
closed = 1;
nodes = (
"471 -230 LINE",
"471 -58 LINE",
"212 -58 LINE",
"219 -65 OFFCURVE",
"225 -71 OFFCURVE",
"232 -78 CURVE",
"232 152 LINE",
"225 145 OFFCURVE",
"219 139 OFFCURVE",
"212 132 CURVE",
"463 132 LINE SMOOTH",
"612 132 OFFCURVE",
"596 288 OFFCURVE",
"596 288 CURVE",
"596 374 LINE",
"558 374 OFFCURVE",
"511 363 OFFCURVE",
"467 411 CURVE SMOOTH",
"440 441 OFFCURVE",
"376 543 OFFCURVE",
"239 595 CURVE",
"179 435 LINE",
"249 409 OFFCURVE",
"278 369 OFFCURVE",
"314 325 CURVE SMOOTH",
"320 318 OFFCURVE",
"326 311 OFFCURVE",
"332 304 CURVE",
"238 304 LINE SMOOTH",
"129 304 OFFCURVE",
"60 211 OFFCURVE",
"60 122 CURVE SMOOTH",
"60 -63 LINE SMOOTH",
"60 -156 OFFCURVE",
"137 -230 OFFCURVE",
"231 -230 CURVE SMOOTH"
);
}
);
width = 656;
}
);
unicode = 062D;
},
{
glyphname = "hah-ar.2";
layers = (
{
anchors = (
{
name = bottom.a;
position = "{302, -9}";
},
{
name = bottom.mark;
position = "{303, -43}";
},
{
name = top.a;
position = "{219, 511}";
},
{
name = top.hamza;
position = "{219, 511}";
},
{
name = top.mark;
position = "{219, 549}";
}
);
layerId = master01;
paths = (
{
closed = 1;
nodes = (
"126 41 LINE SMOOTH",
"126 68 OFFCURVE",
"150 91 OFFCURVE",
"175 91 CURVE SMOOTH",
"422 91 LINE SMOOTH",
"473 91 OFFCURVE",
"488 141 OFFCURVE",
"488 161 CURVE SMOOTH",
"488 200 LINE",
"427 200 OFFCURVE",
"416 204 OFFCURVE",
"372 252 CURVE SMOOTH",
"338 289 OFFCURVE",
"286 378 OFFCURVE",
"163 424 CURVE",
"134 351 LINE",
"233 313 OFFCURVE",
"269 248 OFFCURVE",
"313 199 CURVE SMOOTH",
"324 187 OFFCURVE",
"336 175 OFFCURVE",
"354 170 CURVE",
"175 170 LINE SMOOTH",
"98 170 OFFCURVE",
"46 106 OFFCURVE",
"46 41 CURVE SMOOTH",
"46 -104 LINE SMOOTH",
"46 -149 OFFCURVE",
"76 -185 OFFCURVE",
"126 -185 CURVE"
);
}
);
width = 535;
},
{
anchors = (
{
name = bottom.a;
position = "{248, -20}";
},
{
name = bottom.mark;
position = "{248, -60}";
},
{
name = top.a;
position = "{158, 447}";
},
{
name = top.hamza;
position = "{158, 447}";
},
{
name = top.mark;
position = "{158, 484}";
}
);
layerId = "0CAB57D4-4FC4-49C3-B456-FB7666EAA712";
paths = (
{
closed = 1;
nodes = (
"72 11 LINE SMOOTH",
"71.998 49 OFFCURVE",
"107 91 OFFCURVE",
"148 91 CURVE SMOOTH",
"393 91 LINE SMOOTH",
"424 91 OFFCURVE",
"436 124 OFFCURVE",
"436 137 CURVE SMOOTH",
"436 153 LINE",
"387 153 OFFCURVE",
"362 173 OFFCURVE",
"325 213 CURVE SMOOTH",
"288 254 OFFCURVE",
"241 335 OFFCURVE",
"125 379 CURVE",
"113 349 LINE",
"219 309 OFFCURVE",
"260 236 OFFCURVE",
"301 191 CURVE SMOOTH",
"328 162 OFFCURVE",
"359 132 OFFCURVE",
"401 123 CURVE",
"148 123 LINE SMOOTH",
"87 123 OFFCURVE",
"40 65 OFFCURVE",
"40 11 CURVE SMOOTH",
"40 -168 LINE SMOOTH",
"40 -183.455 OFFCURVE",
"52.152 -199.831 OFFCURVE",
"72.013 -200.045 CURVE"
);
}
);
width = 476;
},
{
anchors = (
{
name = bottom.a;
position = "{458, -3}";
},
{
name = bottom.mark;
position = "{338, 1}";
},
{
name = top.a;
position = "{348, 738}";
},
{
name = top.hamza;
position = "{348, 738}";
},
{
name = top.mark;
position = "{348, 786}";
}
);
layerId = "42B3044F-4D5A-45CA-9EB7-C1889731596B";
paths = (
{
closed = 1;
nodes = (
"232 152 LINE",
"225 145 OFFCURVE",
"219 139 OFFCURVE",
"212 132 CURVE",
"463 132 LINE SMOOTH",
"612 132 OFFCURVE",
"596 288 OFFCURVE",
"596 288 CURVE",
"596 374 LINE",
"558 374 OFFCURVE",
"511 363 OFFCURVE",
"467 411 CURVE SMOOTH",
"440 441 OFFCURVE",
"376 543 OFFCURVE",
"239 595 CURVE",
"179 435 LINE",
"249 409 OFFCURVE",
"278 369 OFFCURVE",
"314 325 CURVE SMOOTH",
"320 318 OFFCURVE",
"326 311 OFFCURVE",
"332 304 CURVE",
"238 304 LINE SMOOTH",
"129 304 OFFCURVE",
"60 211 OFFCURVE",
"60 122 CURVE SMOOTH",
"60 -63 LINE SMOOTH",
"60 -157 OFFCURVE",
"137 -230 OFFCURVE",
"232 -230 CURVE"
);
}
);
width = 656;
}
);
},
{
glyphname = "hah-ar.init";
production = uni062D.init;
layers = (
{
anchors = (
{
name = bottom.a;
position = "{246, -150}";
},
{
name = bottom.mark;
position = "{246, -176}";
},
{
name = top.a;
position = "{172, 450}";
},
{
name = top.hamza;
position = "{172, 450}";
},
{
name = top.mark;
position = "{172, 488}";
}
);
layerId = master01;
paths = (
{
closed = 1;
nodes = (
"483 0 LINE SMOOTH",
"534 0 OFFCURVE",
"551 50 OFFCURVE",
"549 81 CURVE SMOOTH",
"547 117 LINE",
"486 117 OFFCURVE",
"473 122 OFFCURVE",
"425 164 CURVE SMOOTH",
"385 199 OFFCURVE",
"338 255 OFFCURVE",
"280 296 CURVE SMOOTH",
"219 339 OFFCURVE",
"157 354 OFFCURVE",
"116 364 CURVE",
"98 287 LINE",
"139 277 OFFCURVE",
"187 266 OFFCURVE",
"236 231 CURVE SMOOTH",
"277 202 OFFCURVE",
"323 150 OFFCURVE",
"366 111 CURVE SMOOTH",
"382 96 OFFCURVE",
"401 81 OFFCURVE",
"421 74 CURVE",
"421.35 75.75 OFFCURVE",
"421.65 77.25 OFFCURVE",
"422 79 CURVE",
"0 79 LINE",
"0 0 LINE"
);
}
);
width = 595;
},
{
anchors = (
{
name = bottom.a;
position = "{233, -150}";
},
{
name = bottom.mark;
position = "{233, -170}";
},
{
name = top.a;
position = "{144, 386}";
},
{
name = top.hamza;
position = "{144, 386}";
},
{
name = top.mark;
position = "{144, 423}";
}
);
layerId = "0CAB57D4-4FC4-49C3-B456-FB7666EAA712";
paths = (
{
closed = 1;
nodes = (
"483 0 LINE SMOOTH",
"514 0 OFFCURVE",
"528 31 OFFCURVE",
"526 55 CURVE SMOOTH",
"525 70 LINE",
"476 70 OFFCURVE",
"449 88 OFFCURVE",
"410 123 CURVE SMOOTH",
"368 160 OFFCURVE",
"321 214 OFFCURVE",
"267 253 CURVE SMOOTH",
"209 294 OFFCURVE",
"152 308 OFFCURVE",
"111 318 CURVE",
"103 286 LINE",
"144 276 OFFCURVE",
"197 264 OFFCURVE",
"249 227 CURVE SMOOTH",
"299 192 OFFCURVE",
"344 138 OFFCURVE",
"388 99 CURVE SMOOTH",
"417 73 OFFCURVE",
"451 47 OFFCURVE",
"492 40 CURVE",
"489 34 OFFCURVE",
"486 32 OFFCURVE",
"483 32 CURVE SMOOTH",
"0 32 LINE",
"0 0 LINE"
);
}
);
width = 566;
},
{
anchors = (
{
name = bottom.a;
position = "{293, -161}";
},
{
name = bottom.mark;
position = "{293, -196}";
},
{
name = top.a;
position = "{268, 626}";
},
{
name = top.hamza;
position = "{268, 626}";
},
{
name = top.mark;
position = "{268, 670}";
}
);
layerId = "42B3044F-4D5A-45CA-9EB7-C1889731596B";
paths = (
{
closed = 1;
nodes = (
"493 0 LINE SMOOTH",
"621 0 OFFCURVE",
"628 133 OFFCURVE",
"626 160 CURVE SMOOTH",
"620 240 LINE",
"562 237 OFFCURVE",
"543 226 OFFCURVE",
"486 276 CURVE SMOOTH",
"450 308 OFFCURVE",
"402 364 OFFCURVE",
"338 410 CURVE SMOOTH",
"268 460 OFFCURVE",
"198 476 OFFCURVE",
"157 486 CURVE",
"117 318 LINE",
"158 308 OFFCURVE",
"198 298 OFFCURVE",
"238 270 CURVE SMOOTH",
"262 253 OFFCURVE",
"296 219 OFFCURVE",
"328 188 CURVE SMOOTH",
"339 177 OFFCURVE",
"351 166 OFFCURVE",
"361 156 CURVE",
"362.4 161.6 OFFCURVE",
"363.6 166.4 OFFCURVE",
"365 172 CURVE",
"0 172 LINE",
"0 0 LINE"
);
}
);
width = 686;
}
);
},
{
glyphname = "dal-ar";
layers = (
{
anchors = (
{
name = bottom.a;
position = "{204, -149}";
},
{
name = bottom.mark;
position = "{204, -176}";
},
{
name = bottom.ring;
position = "{204, 0}";
},
{
name = top.a;
position = "{195, 444}";
},
{
name = top.mark;
position = "{195, 481}";
}
);
layerId = master01;
paths = (
{
closed = 1;
nodes = (
"310 0 LINE SMOOTH",
"366 0 OFFCURVE",
"402 43 OFFCURVE",
"402 91 CURVE SMOOTH",
"401 244 OFFCURVE",
"262 318 OFFCURVE",
"194 352 CURVE",
"159 282 LINE",
"232 246 OFFCURVE",
"323 192 OFFCURVE",
"323 78 CURVE",
"326.5 78.35 OFFCURVE",
"329.5 78.65 OFFCURVE",
"333 79 CURVE",
"46 79 LINE",
"46 0 LINE"
);
}
);
width = 468;
},
{
anchors = (
{
name = bottom.a;
position = "{194, -150}";
},
{
name = bottom.mark;
position = "{194, -170}";
},
{
name = bottom.ring;
position = "{194, 0}";
},
{
name = top.a;
position = "{198, 380}";
},
{
name = top.mark;
position = "{198, 418}";
}
);
layerId = "0CAB57D4-4FC4-49C3-B456-FB7666EAA712";
paths = (
{
closed = 1;
nodes = (
"304 0 LINE SMOOTH",
"353 0 OFFCURVE",
"373 39 OFFCURVE",
"372 68 CURVE SMOOTH",
"369 205 OFFCURVE",
"245 274 OFFCURVE",
"177 308 CURVE",
"163 280 LINE",
"236 244 OFFCURVE",
"334 186 OFFCURVE",
"340 68 CURVE SMOOTH",
"340 51 OFFCURVE",
"331 32 OFFCURVE",
"304 32 CURVE SMOOTH",
"40 32 LINE",
"40 0 LINE"
);
}
);
width = 412;
},
{
anchors = (
{
name = bottom.a;
position = "{214, -160}";
},
{
name = bottom.mark;
position = "{214, -195}";
},
{
name = bottom.ring;
position = "{214, 0}";
},
{
name = top.a;
position = "{198, 600}";
},
{
name = top.mark;
position = "{198, 644}";
}
);
layerId = "42B3044F-4D5A-45CA-9EB7-C1889731596B";
paths = (
{
closed = 1;
nodes = (
"324 0 LINE SMOOTH",
"404 0 OFFCURVE",
"466 62 OFFCURVE",
"462 142 CURVE SMOOTH",
"453 325 OFFCURVE",
"299 405 OFFCURVE",
"228 441 CURVE",
"152 287 LINE",
"199 264 OFFCURVE",
"243 236 OFFCURVE",
"268 200 CURVE SMOOTH",
"275 190 OFFCURVE",
"283 172 OFFCURVE",
"260 172 CURVE SMOOTH",
"60 172 LINE",
"60 0 LINE"
);
}
);
width = 522;
}
);
unicode = 062F;
},
{
glyphname = "reh-ar";
layers = (
{
anchors = (
{
name = bottom.a;
position = "{122, -312}";
},
{
name = bottom.mark;
position = "{122, -338}";
},
{
name = bottom.ring;
position = "{122, -197}";
},
{
name = center;
position = "{70, 0}";
},
{
name = dash;
position = "{210, -50}";
},
{
name = top.a;
position = "{212, 329}";
},
{
name = top.hamza;
position = "{212, 329}";
},
{
name = top.mark;
position = "{151, 366}";
}
);
layerId = master01;
paths = (
{
closed = 1;
nodes = (
"91 -200 LINE SMOOTH",
"197 -200 OFFCURVE",
"255 -112 OFFCURVE",
"255 -14 CURVE SMOOTH",
"255 174 LINE",
"209.471 174 OFFCURVE",
"176 177 OFFCURVE",
"176 136.669 CURVE SMOOTH",
"176 -14 LINE SMOOTH",
"176 -80 OFFCURVE",
"147 -122 OFFCURVE",
"91 -122 CURVE SMOOTH",
"0 -122 LINE",
"0 -200 LINE"
);
}
);
width = 302;
},
{
anchors = (
{
name = bottom.a;
position = "{93, -280}";
},
{
name = bottom.mark;
position = "{93, -300}";
},
{
name = bottom.ring;
position = "{93, -199}";
},
{
name = center;
position = "{70, 0}";
},
{
name = dash;
position = "{169, -76}";
},
{
name = top.a;
position = "{171, 291}";
},
{
name = top.hamza;
position = "{171, 291}";
},
{
name = top.mark;
position = "{113, 329}";
}
);
layerId = "0CAB57D4-4FC4-49C3-B456-FB7666EAA712";
paths = (
{
closed = 1;
nodes = (
"72 -200 LINE SMOOTH",
"167 -200 OFFCURVE",
"187 -119 OFFCURVE",
"187 -37 CURVE SMOOTH",
"187 151 LINE",
"172.8 151 OFFCURVE",
"155 152.761 OFFCURVE",
"155 134 CURVE SMOOTH",
"155 -37 LINE SMOOTH",
"155 -119 OFFCURVE",
"139 -168 OFFCURVE",
"72 -168 CURVE SMOOTH",
"0 -168 LINE",
"0 -200 LINE"
);
}
);
width = 227;
},
{
anchors = (
{
name = bottom.a;
position = "{123, -380}";
},
{
name = bottom.mark;
position = "{123, -415}";
},
{
name = bottom.ring;
position = "{123, -229}";
},
{
name = center;
position = "{60, 60}";
},
{
name = dash;
position = "{240, 40}";
},
{
name = top.a;
position = "{241, 441}";
},
{
name = top.hamza;
position = "{241, 441}";
},
{
name = top.mark;
position = "{193, 489}";
}
);
layerId = "42B3044F-4D5A-45CA-9EB7-C1889731596B";
paths = (
{
closed = 1;
nodes = (
"102 -230 LINE SMOOTH",
"265 -230 OFFCURVE",
"327 -120 OFFCURVE",
"327 3 CURVE SMOOTH",
"327 221 LINE",
"227 221 OFFCURVE",
"155 211 OFFCURVE",
"155 111 CURVE SMOOTH",
"155 3 LINE SMOOTH",
"155 -38 OFFCURVE",
"131 -58 OFFCURVE",
"102 -58 CURVE SMOOTH",
"0 -58 LINE",
"0 -230 LINE"
);
}
);
width = 387;
}
);
unicode = 0631;
},
{
color = (255,0,255,255);
glyphname = "reh-ar.fina";
production = uni0631.fina;
layers = (
{
components = (
{
alignment = -1;
name = "reh-ar";
}
);
layerId = master01;
paths = (
{
closed = 1;
nodes = (
"377 0 LINE",
"377 79 LINE",
"238 79 LINE",
"238 0 LINE"
);
}
);
width = 361;
},
{
components = (
{
alignment = -1;
name = "reh-ar";
transform = "{1, 0, 0, 1, 0, -1}";
}
);
layerId = "0CAB57D4-4FC4-49C3-B456-FB7666EAA712";
paths = (
{
closed = 1;
nodes = (
"310 0 LINE",
"310 32 LINE",
"179 32 LINE",
"179 0 LINE"
);
}
);
width = 300;
},
{
components = (
{
alignment = -1;
name = "reh-ar";
}
);
layerId = "42B3044F-4D5A-45CA-9EB7-C1889731596B";
paths = (
{
closed = 1;
nodes = (
"436 0 LINE",
"436 172 LINE",
"271 172 LINE",
"271 0 LINE"
);
}
);
width = 416;
}
);
},
{
glyphname = "seen-ar";
layers = (
{
anchors = (
{
name = bottom.a;
position = "{670, -111}";
},
{
name = bottom.mark;
position = "{258, -337}";
},
{
name = top.a;
position = "{627, 512}";
},
{
name = top.mark;
position = "{627, 549}";
}
);
layerId = master01;
paths = (
{
closed = 1;
nodes = (
"402 -202 LINE SMOOTH",
"453 -202 OFFCURVE",
"494 -161 OFFCURVE",
"494 -110 CURVE SMOOTH",
"494 365 LINE",
"415 365 LINE",
"415 -133 LINE",
"418.5 -129.5 OFFCURVE",
"421.5 -126.5 OFFCURVE",
"425 -123 CURVE",
"115 -123 LINE",
"118.5 -126.5 OFFCURVE",
"121.5 -129.5 OFFCURVE",
"125 -133 CURVE",
"125 172 LINE",
"46 172 LINE",
"46 -106 LINE SMOOTH",
"46 -153 OFFCURVE",
"82 -202 OFFCURVE",
"135 -202 CURVE SMOOTH"
);
},
{
closed = 1;
nodes = (
"581 0 LINE SMOOTH",
"632 0 OFFCURVE",
"674 39 OFFCURVE",
"674 91 CURVE SMOOTH",
"674 363 LINE",
"595 363 LINE",
"595 69 LINE",
"598.5 72.5 OFFCURVE",
"601.5 75.5 OFFCURVE",
"605 79 CURVE",
"489 79 LINE",
"489 0 LINE"
);
},
{
closed = 1;
nodes = (
"761 0 LINE SMOOTH",
"812 0 OFFCURVE",
"854 39 OFFCURVE",
"854 91 CURVE SMOOTH",
"854 363 LINE",
"776 363 LINE",
"776 69 LINE",
"779.5 72.5 OFFCURVE",
"782.5 75.5 OFFCURVE",
"786 79 CURVE",
"667 79 LINE",
"667 0 LINE"
);
}
);
width = 901;
},
{
anchors = (
{
name = bottom.a;
position = "{609, -111}";
},
{
name = bottom.mark;
position = "{229, -331}";
},
{
name = top.a;
position = "{598, 512}";
},
{
name = top.mark;
position = "{598, 550}";
}
);
layerId = "0CAB57D4-4FC4-49C3-B456-FB7666EAA712";
paths = (
{
closed = 1;
nodes = (
"372 -201 LINE SMOOTH",
"412 -201 OFFCURVE",
"441 -171 OFFCURVE",
"441 -133 CURVE SMOOTH",
"441 342 LINE",
"409 342 LINE",
"409 -133 LINE SMOOTH",
"409 -153 OFFCURVE",
"394 -169 OFFCURVE",
"372 -169 CURVE SMOOTH",
"105 -169 LINE SMOOTH",
"89 -169 OFFCURVE",
"72 -151 OFFCURVE",
"72 -129 CURVE SMOOTH",
"72 149 LINE",
"40 149 LINE",
"40 -129 LINE SMOOTH",
"40 -165 OFFCURVE",
"67 -201 OFFCURVE",
"105 -201 CURVE SMOOTH"
);
},
{
closed = 1;
nodes = (
"545 0 LINE SMOOTH",
"585 0 OFFCURVE",
"614 30 OFFCURVE",
"614 68 CURVE SMOOTH",
"614 340 LINE",
"582 340 LINE",
"582 68 LINE SMOOTH",
"582 48 OFFCURVE",
"567 32 OFFCURVE",
"545 32 CURVE SMOOTH",
"433 32 LINE",
"433 0 LINE"
);
},
{
closed = 1;
nodes = (
"718 0 LINE SMOOTH",
"757 0 OFFCURVE",
"788 30 OFFCURVE",
"788 68 CURVE SMOOTH",
"788 340 LINE",
"756 340 LINE",
"756 68 LINE SMOOTH",
"756 48 OFFCURVE",
"741 32 OFFCURVE",
"718 32 CURVE SMOOTH",
"603 32 LINE",
"603 0 LINE"
);
}
);
width = 828;
},
{
anchors = (
{
name = bottom.a;
position = "{809, -131}";
},
{
name = bottom.mark;
position = "{339, -396}";
},
{
name = top.a;
position = "{734, 562}";
},
{
name = top.mark;
position = "{734, 610}";
}
);
layerId = "42B3044F-4D5A-45CA-9EB7-C1889731596B";
paths = (
{
closed = 1;
nodes = (
"462 -231 LINE SMOOTH",
"538 -231 OFFCURVE",
"601 -170 OFFCURVE",
"601 -93 CURVE SMOOTH",
"601 412 LINE",
"429 412 LINE",
"429 -79 LINE",
"436 -72 OFFCURVE",
"442 -66 OFFCURVE",
"449 -59 CURVE",
"212 -59 LINE",
"219 -66 OFFCURVE",
"225 -72 OFFCURVE",
"232 -79 CURVE",
"232 219 LINE",
"60 219 LINE",
"60 -89 LINE SMOOTH",
"60 -163 OFFCURVE",
"116 -231 OFFCURVE",
"195 -231 CURVE SMOOTH"
);
},
{
closed = 1;
nodes = (
"685 0 LINE SMOOTH",
"761 0 OFFCURVE",
"824 62 OFFCURVE",
"824 138 CURVE SMOOTH",
"824 410 LINE",
"652 410 LINE",
"652 152 LINE",
"659 159 OFFCURVE",
"665 165 OFFCURVE",
"672 172 CURVE",
"593 172 LINE",
"593 0 LINE"
);
},
{
closed = 1;
nodes = (
"908 0 LINE SMOOTH",
"984 0 OFFCURVE",
"1048 61 OFFCURVE",
"1048 138 CURVE SMOOTH",
"1048 410 LINE",
"876 410 LINE",
"876 152 LINE",
"883 159 OFFCURVE",
"889 165 OFFCURVE",
"896 172 CURVE",
"806 172 LINE",
"806 0 LINE"
);
}
);
width = 1108;
}
);
unicode = 0633;
},
{
glyphname = "seen-ar.init";
production = uni0633.init;
layers = (
{
anchors = (
{
name = bottom.a;
position = "{405, -149}";
},
{
name = bottom.mark;
position = "{405, -176}";
},
{
name = top.a;
position = "{405, 513}";
},
{
name = top.mark;
position = "{405, 549}";
}
);
layerId = master01;
paths = (
{
closed = 1;
nodes = (
"179 0 LINE SMOOTH",
"230 0 OFFCURVE",
"272 39 OFFCURVE",
"272 91 CURVE SMOOTH",
"272 363 LINE",
"193 363 LINE",
"193 69 LINE",
"196.5 72.5 OFFCURVE",
"199.5 75.5 OFFCURVE",
"203 79 CURVE",
"0 79 LINE",
"0 0 LINE"
);
},
{
closed = 1;
nodes = (
"358 0 LINE SMOOTH",
"408 0 OFFCURVE",
"450 39 OFFCURVE",
"450 91 CURVE SMOOTH",
"450 363 LINE",
"372 363 LINE",
"372 69 LINE",
"375.5 72.5 OFFCURVE",
"378.5 75.5 OFFCURVE",
"382 79 CURVE",
"265 79 LINE",
"265 0 LINE"
);
},
{
closed = 1;
nodes = (
"537 0 LINE SMOOTH",
"588 0 OFFCURVE",
"629 39 OFFCURVE",
"629 91 CURVE SMOOTH",
"629 363 LINE",
"551 363 LINE",
"551 69 LINE",
"554.5 72.5 OFFCURVE",
"557.5 75.5 OFFCURVE",
"561 79 CURVE",
"443 79 LINE",
"443 0 LINE"
);
}
);
width = 676;
},
{
anchors = (
{
name = bottom.a;
position = "{405, -150}";
},
{
name = bottom.mark;
position = "{405, -170}";
},
{
name = top.a;
position = "{405, 512}";
},
{
name = top.mark;
position = "{405, 550}";
}
);
layerId = "0CAB57D4-4FC4-49C3-B456-FB7666EAA712";
paths = (
{
closed = 1;
nodes = (
"179 0 LINE SMOOTH",
"219 0 OFFCURVE",
"248 30 OFFCURVE",
"248 68 CURVE SMOOTH",
"248 340 LINE",
"216 340 LINE",
"216 68 LINE SMOOTH",
"216 48 OFFCURVE",
"201 32 OFFCURVE",
"179 32 CURVE SMOOTH",
"0 32 LINE",
"0 0 LINE"
);
},
{
closed = 1;
nodes = (
"352 0 LINE SMOOTH",
"391 0 OFFCURVE",
"421 29 OFFCURVE",
"421 67 CURVE SMOOTH",
"421 340 LINE",
"389 340 LINE",
"389 67 LINE SMOOTH",
"389 47 OFFCURVE",
"375 32 OFFCURVE",
"352 32 CURVE SMOOTH",
"240 32 LINE",
"240 0 LINE"
);
},
{
closed = 1;
nodes = (
"526 0 LINE SMOOTH",
"566 0 OFFCURVE",
"595 30 OFFCURVE",
"595 68 CURVE SMOOTH",
"595 340 LINE",
"563 340 LINE",
"563 68 LINE SMOOTH",
"563 48 OFFCURVE",
"548 32 OFFCURVE",
"526 32 CURVE SMOOTH",
"410 32 LINE",
"410 0 LINE"
);
}
);
width = 635;
},
{
anchors = (
{
name = bottom.a;
position = "{405, -149}";
},
{
name = bottom.mark;
position = "{405, -184}";
},
{
name = top.a;
position = "{450, 561}";
},
{
name = top.mark;
position = "{450, 609}";
}
);
layerId = "42B3044F-4D5A-45CA-9EB7-C1889731596B";
paths = (
{
closed = 1;
nodes = (
"179 0 LINE SMOOTH",
"255 0 OFFCURVE",
"318 62 OFFCURVE",
"318 138 CURVE SMOOTH",
"318 410 LINE",
"146 410 LINE",
"146 152 LINE",
"153 159 OFFCURVE",
"159 165 OFFCURVE",
"166 172 CURVE",
"0 172 LINE",
"0 0 LINE"
);
},
{
closed = 1;
nodes = (
"400 0 LINE SMOOTH",
"476 0 OFFCURVE",
"539 62 OFFCURVE",
"539 138 CURVE SMOOTH",
"539 410 LINE",
"367 410 LINE",
"367 152 LINE",
"374 159 OFFCURVE",
"380 165 OFFCURVE",
"387 172 CURVE",
"279 172 LINE",
"279 0 LINE"
);
},
{
closed = 1;
nodes = (
"623 0 LINE SMOOTH",
"699 0 OFFCURVE",
"763 61 OFFCURVE",
"763 138 CURVE SMOOTH",
"763 410 LINE",
"591 410 LINE",
"591 152 LINE",
"598 159 OFFCURVE",
"604 165 OFFCURVE",
"611 172 CURVE",
"521 172 LINE",
"521 0 LINE"
);
}
);
width = 823;
}
);
},
{
glyphname = "sad-ar";
layers = (
{
anchors = (
{
name = bottom.a;
position = "{725, -111}";
},
{
name = bottom.mark;
position = "{258, -337}";
},
{
name = top.a;
position = "{617, 440}";
},
{
name = top.mark;
position = "{617, 476}";
}
);
components = (
{
alignment = -1;
name = "_sad-ar.head";
transform = "{1, 0, 0, 1, 722, 0}";
}
);
layerId = master01;
paths = (
{
closed = 1;
nodes = (
"402 -202 LINE SMOOTH",
"453 -202 OFFCURVE",
"494 -161 OFFCURVE",
"494 -110 CURVE SMOOTH",
"494 264 LINE",
"415 264 LINE",
"415 -133 LINE",
"418.5 -129.5 OFFCURVE",
"421.5 -126.5 OFFCURVE",
"425 -123 CURVE",
"115 -123 LINE",
"118.5 -126.5 OFFCURVE",
"121.5 -129.5 OFFCURVE",
"125 -133 CURVE",
"125 172 LINE",
"46 172 LINE",
"46 -106 LINE SMOOTH",
"46 -153 OFFCURVE",
"82 -202 OFFCURVE",
"135 -202 CURVE SMOOTH"
);
}
);
width = 1010;
},
{
anchors = (
{
name = bottom.a;
position = "{668, -111}";
},
{
name = bottom.mark;
position = "{229, -331}";
},
{
name = top.a;
position = "{572, 427}";
},
{
name = top.mark;
position = "{572, 465}";
}
);
components = (
{
alignment = -1;
name = "_sad-ar.head";
transform = "{1, 0, 0, 1, 655, 0}";
}
);
layerId = "0CAB57D4-4FC4-49C3-B456-FB7666EAA712";
paths = (
{
closed = 1;
nodes = (
"372 -201 LINE SMOOTH",
"412 -201 OFFCURVE",
"441 -171 OFFCURVE",
"441 -133 CURVE SMOOTH",
"441 241 LINE",
"409 241 LINE",
"409 -133 LINE SMOOTH",
"409 -153 OFFCURVE",
"394 -169 OFFCURVE",
"372 -169 CURVE SMOOTH",
"105 -169 LINE SMOOTH",
"89 -169 OFFCURVE",
"72 -151 OFFCURVE",
"72 -129 CURVE SMOOTH",
"72 149 LINE",
"40 149 LINE",
"40 -129 LINE SMOOTH",
"40 -165 OFFCURVE",
"67 -201 OFFCURVE",
"105 -201 CURVE SMOOTH"
);
}
);
width = 915;
},
{
anchors = (
{
name = bottom.a;
position = "{894, -131}";
},
{
name = bottom.mark;
position = "{339, -396}";
},
{
name = top.a;
position = "{669, 562}";
},
{
name = top.mark;
position = "{669, 610}";
}
);
components = (
{
alignment = -1;
name = "_sad-ar.head";
transform = "{1, 0, 0, 1, 856, 0}";
}
);
layerId = "42B3044F-4D5A-45CA-9EB7-C1889731596B";
paths = (
{
closed = 1;
nodes = (
"462 -231 LINE SMOOTH",
"538 -231 OFFCURVE",
"601 -170 OFFCURVE",
"601 -93 CURVE SMOOTH",
"601 311 LINE",
"429 311 LINE",
"429 -79 LINE",
"436 -72 OFFCURVE",
"442 -66 OFFCURVE",
"449 -59 CURVE",
"212 -59 LINE",
"219 -66 OFFCURVE",
"225 -72 OFFCURVE",
"232 -79 CURVE",
"232 219 LINE",
"60 219 LINE",
"60 -89 LINE SMOOTH",
"60 -163 OFFCURVE",
"116 -231 OFFCURVE",
"195 -231 CURVE SMOOTH"
);
}
);
width = 1202;
}
);
unicode = 0635;
},
{
glyphname = "sad-ar.init";
production = uni0635.init;
layers = (
{
anchors = (
{
name = bottom.a;
position = "{390, -149}";
},
{
name = bottom.mark;
position = "{390, -175}";
},
{
name = top.a;
position = "{302, 427}";
},
{
name = top.mark;
position = "{302, 465}";
}
);
components = (
{
alignment = -1;
name = "_sad-ar.head";
transform = "{1, 0, 0, 1, 406, 0}";
}
);
layerId = master01;
paths = (
{
closed = 1;
nodes = (
"177 70 LINE",
"177 264 LINE",
"99 264 LINE",
"99 70 LINE"
);
},
{
closed = 1;
nodes = (
"174 0 LINE",
"174 79 LINE",
"0 79 LINE",
"0 0 LINE"
);
}
);
width = 694;
},
{
anchors = (
{
name = bottom.a;
position = "{374, -149}";
},
{
name = bottom.mark;
position = "{374, -169}";
},
{
name = top.a;
position = "{286, 427}";
},
{
name = top.mark;
position = "{286, 464}";
}
);
components = (
{
alignment = -1;
name = "_sad-ar.head";
transform = "{1, 0, 0, 1, 369, 0}";
}
);
layerId = "0CAB57D4-4FC4-49C3-B456-FB7666EAA712";
paths = (
{
closed = 1;
nodes = (
"155 22 LINE",
"155 241 LINE",
"123 241 LINE",
"123 22 LINE"
);
},
{
closed = 1;
nodes = (
"157 0 LINE",
"157 32 LINE",
"0 32 LINE",
"0 0 LINE"
);
}
);
width = 629.02353;
},
{
anchors = (
{
name = bottom.a;
position = "{400, -149}";
},
{
name = bottom.mark;
position = "{400, -184}";
},
{
name = top.a;
position = "{293, 562}";
},
{
name = top.mark;
position = "{293, 606}";
}
);
components = (
{
alignment = -1;
name = "_sad-ar.head";
transform = "{1, 0, 0, 1, 479, 0}";
}
);
layerId = "42B3044F-4D5A-45CA-9EB7-C1889731596B";
paths = (
{
closed = 1;
nodes = (
"224 92 LINE",
"224 311 LINE SMOOTH",
"52 311 LINE",
"52 92 LINE"
);
},
{
closed = 1;
nodes = (
"246 0 LINE",
"246 172 LINE",
"0 172 LINE",
"0 0 LINE"
);
}
);
width = 824;
}
);
},
{
glyphname = "tah-ar";
layers = (
{
anchors = (
{
name = bottom.a;
position = "{345, -110}";
},
{
name = bottom.mark;
position = "{345, -136}";
},
{
name = top.a;
position = "{382, 485}";
},
{
name = top.mark;
position = "{382, 522}";
}
);
layerId = master01;
paths = (
{
closed = 1;
nodes = (
"498.825 -0.176 LINE SMOOTH",
"549.825 -0.176 OFFCURVE",
"593.401 40.838 OFFCURVE",
"591.825 92.824 CURVE SMOOTH",
"589.825 158.824 LINE SMOOTH",
"587.159 246.806 OFFCURVE",
"556.825 313.824 OFFCURVE",
"487.825 342.824 CURVE SMOOTH",
"329.825 401.824 OFFCURVE",
"223 211 OFFCURVE",
"140 63 CURVE",
"191 33 LINE",
"309 208 OFFCURVE",
"388.825 294.824 OFFCURVE",
"458.825 268.824 CURVE SMOOTH",
"490.825 255.824 OFFCURVE",
"509.973 231.826 OFFCURVE",
"510.825 156.824 CURVE SMOOTH",
"511.825 68.824 LINE",
"515.325 72.324 OFFCURVE",
"518.325 75.324 OFFCURVE",
"521.825 78.824 CURVE",
"45.825 78.824 LINE",
"45.825 -0.176 LINE"
);
},
{
closed = 1;
nodes = (
"207 64 LINE",
"213 97 OFFCURVE",
"231 163.743 OFFCURVE",
"231 259.089 CURVE SMOOTH",
"231 624 LINE",
"151 624 LINE",
"151 230.095 LINE SMOOTH",
"151 176.19 OFFCURVE",
"151 121.291 OFFCURVE",
"141 64 CURVE"
);
}
);
width = 637.86685;
},
{
anchors = (
{
name = bottom.a;
position = "{362, -110}";
},
{
name = bottom.mark;
position = "{362, -130}";
},
{
name = top.a;
position = "{399, 485}";
},
{
name = top.mark;
position = "{399, 523}";
}
);
layerId = "0CAB57D4-4FC4-49C3-B456-FB7666EAA712";
paths = (
{
closed = 1;
nodes = (
"506.637 -0.094 LINE SMOOTH",
"545.637 -0.094 OFFCURVE",
"576.788 30.911 OFFCURVE",
"575.637 68.906 CURVE SMOOTH",
"573.637 134.906 LINE SMOOTH",
"571.061 219.891 OFFCURVE",
"544.3 275.572 OFFCURVE",
"486.637 297.906 CURVE SMOOTH",
"352.943 349.689 OFFCURVE",
"240 167 OFFCURVE",
"141 28 CURVE",
"162 15 LINE",
"264 157 OFFCURVE",
"372.942 307.704 OFFCURVE",
"475.637 267.906 CURVE SMOOTH",
"518.232 251.399 OFFCURVE",
"539.313 213.897 OFFCURVE",
"541.637 134.906 CURVE SMOOTH",
"543.637 66.906 LINE SMOOTH",
"544.196 47.888 OFFCURVE",
"529.637 31.906 OFFCURVE",
"506.637 31.906 CURVE SMOOTH",
"39.637 31.906 LINE",
"39.637 -0.094 LINE"
);
},
{
closed = 1;
nodes = (
"173 22 LINE",
"180 59.267 OFFCURVE",
"180 91.21 OFFCURVE",
"180 128.476 CURVE SMOOTH",
"180 624 LINE",
"148 624 LINE",
"148 112.17 LINE SMOOTH",
"148 80.61 OFFCURVE",
"148 53.559 OFFCURVE",
"144 22 CURVE"
);
}
);
width = 615.6675;
},
{
anchors = (
{
name = bottom.a;
position = "{313, -110}";
},
{
name = bottom.mark;
position = "{313, -145}";
},
{
name = top.a;
position = "{458, 562}";
},
{
name = top.mark;
position = "{458, 610}";
}
);
layerId = "42B3044F-4D5A-45CA-9EB7-C1889731596B";
paths = (
{
closed = 1;
nodes = (
"558.147 -0.449 LINE SMOOTH",
"635.147 -0.449 OFFCURVE",
"699.511 62.529 OFFCURVE",
"697.147 140.551 CURVE SMOOTH",
"695.147 206.551 LINE SMOOTH",
"692.208 303.527 OFFCURVE",
"657.147 393.551 OFFCURVE",
"564.147 432.551 CURVE SMOOTH",
"366.147 505.551 OFFCURVE",
"232 248 OFFCURVE",
"202 136 CURVE",
"259 86 LINE",
"333 198 OFFCURVE",
"458.147 286.551 OFFCURVE",
"501.147 272.551 CURVE SMOOTH",
"509.147 268.551 OFFCURVE",
"523.147 267.551 OFFCURVE",
"525.147 202.551 CURVE",
"524.147 151.551 LINE",
"531.147 158.551 OFFCURVE",
"537.147 164.551 OFFCURVE",
"544.147 171.551 CURVE",
"60.147 171.551 LINE",
"60.147 -0.449 LINE"
);
},
{
closed = 1;
nodes = (
"323 122 LINE",
"335 222.522 OFFCURVE",
"333 308.683 OFFCURVE",
"333 409.204 CURVE SMOOTH",
"333 624 LINE",
"161 624 LINE",
"161 367.099 LINE SMOOTH",
"161 281.315 OFFCURVE",
"164 207.785 OFFCURVE",
"151 122 CURVE"
);
}
);
width = 757.21015;
}
);
unicode = 0637;
},
{
glyphname = "ain-ar";
layers = (
{
anchors = (
{
name = bottom.mark;
position = "{265, -242}";
},
{
name = center;
position = "{265, -22}";
},
{
name = top.a;
position = "{242, 517}";
},
{
name = top.mark;
position = "{242, 555}";
}
);
layerId = master01;
paths = (
{
closed = 1;
nodes = (
"415 -200 LINE",
"415 -122 LINE",
"115 -122 LINE",
"118.5 -125.5 OFFCURVE",
"121.5 -128.5 OFFCURVE",
"125 -132 CURVE",
"125 82 LINE",
"121.5 78.5 OFFCURVE",
"118.5 75.5 OFFCURVE",
"115 72 CURVE",
"415 72 LINE",
"415 151 LINE",
"129 151 LINE SMOOTH",
"78 151 OFFCURVE",
"46 109 OFFCURVE",
"46 64 CURVE SMOOTH",
"46 -114 LINE SMOOTH",
"46 -160 OFFCURVE",
"80 -200 OFFCURVE",
"127 -200 CURVE SMOOTH"
);
},
{
closed = 1;
nodes = (
"277 139 LINE",
"188 235 OFFCURVE",
"203 280 OFFCURVE",
"213 290 CURVE SMOOTH",
"224 300 OFFCURVE",
"259 310 OFFCURVE",
"318 293 CURVE SMOOTH",
"331 290 OFFCURVE",
"345 285 OFFCURVE",
"361 278 CURVE",
"391 351 LINE",
"374 358 OFFCURVE",
"356 365 OFFCURVE",
"339 369 CURVE SMOOTH",
"269 389 OFFCURVE",
"203 387 OFFCURVE",
"160 347 CURVE SMOOTH",
"93 286 OFFCURVE",
"128 182 OFFCURVE",
"218 85 CURVE"
);
}
);
width = 462;
},
{
anchors = (
{
name = bottom.mark;
position = "{236, -246}";
},
{
name = center;
position = "{236, -46}";
},
{
name = top.a;
position = "{213, 484}";
},
{
name = top.mark;
position = "{213, 521}";
}
);
layerId = "0CAB57D4-4FC4-49C3-B456-FB7666EAA712";
paths = (
{
closed = 1;
nodes = (
"386 -201 LINE",
"386 -169 LINE",
"98 -169 LINE SMOOTH",
"84 -169 OFFCURVE",
"72 -158 OFFCURVE",
"72 -138 CURVE SMOOTH",
"72 39 LINE",
"73 61 OFFCURVE",
"80 71 OFFCURVE",
"100 71 CURVE SMOOTH",
"386 71 LINE",
"386 103 LINE",
"100 103 LINE SMOOTH",
"58 103 OFFCURVE",
"40 70.016 OFFCURVE",
"40 39 CURVE SMOOTH",
"40 -138 LINE SMOOTH",
"40 -172 OFFCURVE",
"64 -201 OFFCURVE",
"98 -201 CURVE SMOOTH"
);
},
{
closed = 1;
nodes = (
"230 99 LINE",
"141 195 OFFCURVE",
"141 258 OFFCURVE",
"168 283 CURVE SMOOTH",
"188 302 OFFCURVE",
"233 309 OFFCURVE",
"295 292 CURVE SMOOTH",
"309 288 OFFCURVE",
"324 282 OFFCURVE",
"341 275 CURVE",
"353 305 LINE",
"336 312 OFFCURVE",
"319 318 OFFCURVE",
"303 322 CURVE SMOOTH",
"237 341 OFFCURVE",
"180 337 OFFCURVE",
"147 306 CURVE SMOOTH",
"97 260 OFFCURVE",
"117 174 OFFCURVE",
"206 77 CURVE"
);
}
);
width = 426;
},
{
anchors = (
{
name = bottom.mark;
position = "{338, -357}";
},
{
name = center;
position = "{338, -52}";
},
{
name = top.a;
position = "{273, 596}";
},
{
name = top.mark;
position = "{273, 640}";
}
);
layerId = "42B3044F-4D5A-45CA-9EB7-C1889731596B";
paths = (
{
closed = 1;
nodes = (
"476 -309 LINE",
"476 -137 LINE",
"212 -137 LINE",
"219 -144 OFFCURVE",
"225 -150 OFFCURVE",
"232 -157 CURVE",
"232 63 LINE",
"225 56 OFFCURVE",
"219 50 OFFCURVE",
"212 43 CURVE",
"476 43 LINE",
"476 215 LINE",
"190 215 LINE SMOOTH",
"116 215 OFFCURVE",
"60 155 OFFCURVE",
"60 83 CURVE SMOOTH",
"60 -176 LINE SMOOTH",
"60 -246 OFFCURVE",
"115 -309 OFFCURVE",
"188 -309 CURVE SMOOTH"
);
},
{
closed = 1;
nodes = (
"371 214 LINE",
"336 252 OFFCURVE",
"319 282 OFFCURVE",
"314 299 CURVE",
"325 300 OFFCURVE",
"342 299 OFFCURVE",
"366 292 CURVE SMOOTH",
"376 289 OFFCURVE",
"388 285 OFFCURVE",
"404 278 CURVE",
"470 438 LINE",
"452 446 OFFCURVE",
"432 453 OFFCURVE",
"412 458 CURVE SMOOTH",
"331 481 OFFCURVE",
"238 479 OFFCURVE",
"180 416 CURVE SMOOTH",
"93 321 OFFCURVE",
"157 194 OFFCURVE",
"245 98 CURVE"
);
}
);
width = 536;
}
);
unicode = 0639;
},
{
glyphname = "ain-ar.init";
production = uni0639.init;
layers = (
{
anchors = (
{
name = bottom.a;
position = "{254, -149}";
},
{
name = bottom.mark;
position = "{254, -176}";
},
{
name = top.a;
position = "{253, 482}";
},
{
name = top.mark;
position = "{253, 519}";
}
);
layerId = master01;
paths = (
{
closed = 1;
nodes = (
"269 79 LINE",
"163 181 OFFCURVE",
"168 241 OFFCURVE",
"185 258 CURVE SMOOTH",
"205 278 OFFCURVE",
"277 295 OFFCURVE",
"407 256 CURVE",
"429 331 LINE",
"295 372 OFFCURVE",
"186 372 OFFCURVE",
"128 312 CURVE SMOOTH",
"57 238 OFFCURVE",
"108 124 OFFCURVE",
"213 22 CURVE"
);
},
{
closed = 1;
nodes = (
"192.05 0 LINE",
"209 0 OFFCURVE",
"222.182 12.679 OFFCURVE",
"249.49 13 CURVE SMOOTH",
"276.423 13.317 OFFCURVE",
"288.578 0 OFFCURVE",
"305.863 0 CURVE",
"468 0 LINE",
"468 79 LINE",
"0 79 LINE",
"0 0 LINE"
);
}
);
width = 514;
},
{
anchors = (
{
name = bottom.a;
position = "{254, -150}";
},
{
name = bottom.mark;
position = "{254, -170}";
},
{
name = top.a;
position = "{253, 462}";
},
{
name = top.mark;
position = "{253, 499}";
}
);
layerId = "0CAB57D4-4FC4-49C3-B456-FB7666EAA712";
paths = (
{
closed = 1;
nodes = (
"252 32 LINE",
"146 134 OFFCURVE",
"135 210 OFFCURVE",
"168 244 CURVE SMOOTH",
"199 276 OFFCURVE",
"282 288 OFFCURVE",
"413 249 CURVE",
"423 279 LINE",
"290 319 OFFCURVE",
"191 314 OFFCURVE",
"145 266 CURVE SMOOTH",
"90 209 OFFCURVE",
"125 112 OFFCURVE",
"230 10 CURVE"
);
},
{
closed = 1;
nodes = (
"222.05 0 LINE",
"235 0 OFFCURVE",
"237 8 OFFCURVE",
"248.49 8 CURVE SMOOTH",
"260.429 8 OFFCURVE",
"262.578 0 OFFCURVE",
"275.863 0 CURVE",
"468 0 LINE",
"468 32 LINE",
"0 32 LINE",
"0 0 LINE"
);
}
);
width = 508;
},
{
anchors = (
{
name = bottom.a;
position = "{274, -150}";
},
{
name = bottom.mark;
position = "{274, -185}";
},
{
name = top.a;
position = "{237, 617}";
},
{
name = top.mark;
position = "{237, 661}";
}
);
layerId = "42B3044F-4D5A-45CA-9EB7-C1889731596B";
paths = (
{
closed = 1;
nodes = (
"344 172 LINE",
"273 237 OFFCURVE",
"244 296 OFFCURVE",
"242 312 CURVE",
"258 319 OFFCURVE",
"318 327 OFFCURVE",
"413 298 CURVE",
"463 462 LINE",
"327 503 OFFCURVE",
"193 514 OFFCURVE",
"113 428 CURVE SMOOTH",
"6 313 OFFCURVE",
"104 164 OFFCURVE",
"223 54 CURVE"
);
},
{
closed = 1;
nodes = (
"192.05 0 LINE",
"239 0 OFFCURVE",
"247.181 15.766 OFFCURVE",
"284.49 16 CURVE SMOOTH",
"321.424 16.232 OFFCURVE",
"328.578 0 OFFCURVE",
"375.863 0 CURVE",
"488 0 LINE",
"488 172 LINE",
"0 172 LINE",
"0 0 LINE"
);
}
);
width = 548;
}
);
},
{
glyphname = "fehDotless-ar";
layers = (
{
anchors = (
{
name = bottom.a;
position = "{582, -99}";
},
{
name = bottom.mark;
position = "{401, -125}";
},
{
name = top.a;
position = "{591, 609}";
},
{
name = top.mark;
position = "{591, 645}";
}
);
layerId = master01;
paths = (
{
closed = 1;
nodes = (
"676 0 LINE SMOOTH",
"732 0 OFFCURVE",
"771 46 OFFCURVE",
"771 94 CURVE SMOOTH",
"771 317 LINE SMOOTH",
"771 352 OFFCURVE",
"762 384 OFFCURVE",
"746 409 CURVE SMOOTH",
"690 497 OFFCURVE",
"568 503 OFFCURVE",
"496 457 CURVE SMOOTH",
"432 415 OFFCURVE",
"387 312 OFFCURVE",
"440 223 CURVE SMOOTH",
"501 123 OFFCURVE",
"629 147 OFFCURVE",
"731 154 CURVE",
"731 214 LINE",
"584 205 OFFCURVE",
"540 208 OFFCURVE",
"507 263 CURVE SMOOTH",
"480 307 OFFCURVE",
"505 369 OFFCURVE",
"539 392 CURVE SMOOTH",
"573 413 OFFCURVE",
"622 411 OFFCURVE",
"649 387 CURVE SMOOTH",
"674 375 OFFCURVE",
"692 350 OFFCURVE",
"692 317 CURVE SMOOTH",
"692 70 LINE",
"695.5 73.5 OFFCURVE",
"698.5 76.5 OFFCURVE",
"702 80 CURVE",
"184 80 LINE SMOOTH",
"145 80 OFFCURVE",
"125 99 OFFCURVE",
"125 134 CURVE SMOOTH",
"125 286 LINE",
"46 286 LINE",
"46 134 LINE SMOOTH",
"46 53 OFFCURVE",
"110 0 OFFCURVE",
"184 0 CURVE SMOOTH"
);
}
);
width = 817;
},
{
anchors = (
{
name = bottom.a;
position = "{526, -100}";
},
{
name = bottom.mark;
position = "{379, -120}";
},
{
name = top.a;
position = "{569, 549}";
},
{
name = top.mark;
position = "{569, 587}";
}
);
layerId = "0CAB57D4-4FC4-49C3-B456-FB7666EAA712";
paths = (
{
closed = 1;
nodes = (
"647 0 LINE SMOOTH",
"690 0 OFFCURVE",
"718 35 OFFCURVE",
"718 70 CURVE SMOOTH",
"718 254 LINE SMOOTH",
"718 285 OFFCURVE",
"710 312 OFFCURVE",
"697 333 CURVE SMOOTH",
"650 407 OFFCURVE",
"541 414 OFFCURVE",
"479 374 CURVE SMOOTH",
"424 338 OFFCURVE",
"385 247 OFFCURVE",
"430 172 CURVE SMOOTH",
"487 78 OFFCURVE",
"607 93 OFFCURVE",
"700 105 CURVE",
"700 137 LINE",
"585 125 OFFCURVE",
"502 115 OFFCURVE",
"458 188 CURVE SMOOTH",
"423 245 OFFCURVE",
"454 320 OFFCURVE",
"497 348 CURVE SMOOTH",
"547 380 OFFCURVE",
"635 372 OFFCURVE",
"670 316 CURVE SMOOTH",
"680 300 OFFCURVE",
"686 280 OFFCURVE",
"686 254 CURVE SMOOTH",
"686 70 LINE SMOOTH",
"686 51 OFFCURVE",
"672 32 OFFCURVE",
"647 32 CURVE SMOOTH",
"155 32 LINE SMOOTH",
"105 32 OFFCURVE",
"72 61 OFFCURVE",
"72 110 CURVE SMOOTH",
"72 262 LINE",
"40 262 LINE",
"40 110 LINE SMOOTH",
"40 43 OFFCURVE",
"91 0 OFFCURVE",
"155 0 CURVE SMOOTH"
);
}
);
width = 758;
},
{
anchors = (
{
name = bottom.a;
position = "{658, -140}";
},
{
name = bottom.mark;
position = "{499, -175}";
},
{
name = top.a;
position = "{649, 758}";
},
{
name = top.mark;
position = "{649, 806}";
}
);
layerId = "42B3044F-4D5A-45CA-9EB7-C1889731596B";
paths = (
{
closed = 1;
nodes = (
"737 0 LINE SMOOTH",
"815 0 OFFCURVE",
"878 63 OFFCURVE",
"878 140 CURVE SMOOTH",
"878 424 LINE SMOOTH",
"878 467 OFFCURVE",
"867 508 OFFCURVE",
"846 541 CURVE SMOOTH",
"773 657 OFFCURVE",
"621 661 OFFCURVE",
"531 603 CURVE SMOOTH",
"449 549 OFFCURVE",
"390 421 OFFCURVE",
"460 306 CURVE SMOOTH",
"524 200 OFFCURVE",
"646 215 OFFCURVE",
"746 220 CURVE",
"746 357 LINE",
"639 346 OFFCURVE",
"622 370 OFFCURVE",
"608 394 CURVE SMOOTH",
"599 409 OFFCURVE",
"600 433 OFFCURVE",
"617 452 CURVE SMOOTH",
"630 466 OFFCURVE",
"652 473 OFFCURVE",
"672 466 CURVE SMOOTH",
"691 460 OFFCURVE",
"706 446 OFFCURVE",
"706 414 CURVE SMOOTH",
"706 152 LINE",
"713 159 OFFCURVE",
"719 165 OFFCURVE",
"726 172 CURVE",
"212 172 LINE",
"219 165 OFFCURVE",
"225 159 OFFCURVE",
"232 152 CURVE",
"232 332 LINE",
"60 332 LINE",
"60 180 LINE SMOOTH",
"60 73 OFFCURVE",
"148 0 OFFCURVE",
"245 0 CURVE SMOOTH"
);
}
);
width = 938;
}
);
unicode = 06A1;
},
{
glyphname = "fehDotless-ar.init";
layers = (
{
anchors = (
{
name = bottom.a;
position = "{258, -143}";
},
{
name = bottom.mark;
position = "{258, -169}";
},
{
name = top.a;
position = "{267, 609}";
},
{
name = top.mark;
position = "{267, 647}";
}
);
layerId = master01;
paths = (
{
closed = 1;
nodes = (
"352 0 LINE SMOOTH",
"408 0 OFFCURVE",
"447 46 OFFCURVE",
"447 94 CURVE SMOOTH",
"447 318 LINE SMOOTH",
"447 353 OFFCURVE",
"437 384 OFFCURVE",
"422 410 CURVE SMOOTH",
"366 498 OFFCURVE",
"243 503 OFFCURVE",
"172 458 CURVE SMOOTH",
"108 416 OFFCURVE",
"62 312 OFFCURVE",
"115 224 CURVE SMOOTH",
"176 123 OFFCURVE",
"304 148 OFFCURVE",
"407 155 CURVE",
"407 215 LINE",
"260 206 OFFCURVE",
"216 209 OFFCURVE",
"183 264 CURVE SMOOTH",
"156 308 OFFCURVE",
"180 370 OFFCURVE",
"214 392 CURVE SMOOTH",
"248 413 OFFCURVE",
"297 412 OFFCURVE",
"324 388 CURVE SMOOTH",
"349 376 OFFCURVE",
"367 351 OFFCURVE",
"367 318 CURVE SMOOTH",
"367 69 LINE",
"370.5 72.5 OFFCURVE",
"373.5 75.5 OFFCURVE",
"377 79 CURVE",
"0 79 LINE",
"0 0 LINE"
);
}
);
width = 493;
},
{
anchors = (
{
name = bottom.a;
position = "{231, -150}";
},
{
name = bottom.mark;
position = "{231, -170}";
},
{
name = top.a;
position = "{274, 590}";
},
{
name = top.mark;
position = "{274, 628}";
}
);
layerId = "0CAB57D4-4FC4-49C3-B456-FB7666EAA712";
paths = (
{
closed = 1;
nodes = (
"352 0 LINE SMOOTH",
"395 0 OFFCURVE",
"423 35 OFFCURVE",
"423 70 CURVE SMOOTH",
"423 295 LINE SMOOTH",
"423 326 OFFCURVE",
"415 353 OFFCURVE",
"402 374 CURVE SMOOTH",
"355 448 OFFCURVE",
"246 455 OFFCURVE",
"184 415 CURVE SMOOTH",
"129 379 OFFCURVE",
"90 288 OFFCURVE",
"135 213 CURVE SMOOTH",
"192 119 OFFCURVE",
"312 134 OFFCURVE",
"405 146 CURVE",
"405 178 LINE",
"290 166 OFFCURVE",
"207 156 OFFCURVE",
"163 229 CURVE SMOOTH",
"128 286 OFFCURVE",
"159 361 OFFCURVE",
"202 389 CURVE SMOOTH",
"252 421 OFFCURVE",
"340 413 OFFCURVE",
"375 357 CURVE SMOOTH",
"385 341 OFFCURVE",
"391 321 OFFCURVE",
"391 295 CURVE SMOOTH",
"391 70 LINE SMOOTH",
"391 51 OFFCURVE",
"377 32 OFFCURVE",
"352 32 CURVE SMOOTH",
"0 32 LINE",
"0 0 LINE"
);
}
);
width = 463;
},
{
anchors = (
{
name = bottom.a;
position = "{273, -160}";
},
{
name = bottom.mark;
position = "{273, -195}";
},
{
name = top.a;
position = "{264, 759}";
},
{
name = top.mark;
position = "{264, 803}";
}
);
layerId = "42B3044F-4D5A-45CA-9EB7-C1889731596B";
paths = (
{
closed = 1;
nodes = (
"352 0 LINE SMOOTH",
"430 0 OFFCURVE",
"493 63 OFFCURVE",
"493 140 CURVE SMOOTH",
"493 424 LINE SMOOTH",
"493 467 OFFCURVE",
"482 508 OFFCURVE",
"461 541 CURVE SMOOTH",
"388 657 OFFCURVE",
"236 661 OFFCURVE",
"146 603 CURVE SMOOTH",
"64 549 OFFCURVE",
"5 421 OFFCURVE",
"75 306 CURVE SMOOTH",
"139 200 OFFCURVE",
"261 215 OFFCURVE",
"361 220 CURVE",
"361 357 LINE",
"254 346 OFFCURVE",
"237 370 OFFCURVE",
"223 394 CURVE SMOOTH",
"214 409 OFFCURVE",
"215 433 OFFCURVE",
"232 452 CURVE SMOOTH",
"245 466 OFFCURVE",
"267 473 OFFCURVE",
"287 466 CURVE SMOOTH",
"306 460 OFFCURVE",
"321 446 OFFCURVE",
"321 414 CURVE SMOOTH",
"321 152 LINE",
"328 159 OFFCURVE",
"334 165 OFFCURVE",
"341 172 CURVE",
"0 172 LINE",
"0 0 LINE"
);
}
);
width = 553;
}
);
},
{
glyphname = "qafDotless-ar";
layers = (
{
anchors = (
{
name = bottom.a;
position = "{400, -299}";
},
{
name = bottom.mark;
position = "{400, -325}";
},
{
name = top.a;
position = "{521, 469}";
},
{
name = top.mark;
position = "{521, 505}";
}
);
layerId = master01;
paths = (
{
closed = 1;
nodes = (
"606 -200 LINE SMOOTH",
"662 -200 OFFCURVE",
"701 -154 OFFCURVE",
"701 -106 CURVE SMOOTH",
"701 178 LINE SMOOTH",
"701 213 OFFCURVE",
"692 244 OFFCURVE",
"676 270 CURVE SMOOTH",
"620 358 OFFCURVE",
"498 363 OFFCURVE",
"426 318 CURVE SMOOTH",
"362 276 OFFCURVE",
"317 172 OFFCURVE",
"370 84 CURVE SMOOTH",
"431 -17 OFFCURVE",
"559 8 OFFCURVE",
"661 15 CURVE",
"661 75 LINE",
"514 66 OFFCURVE",
"470 69 OFFCURVE",
"437 124 CURVE SMOOTH",
"410 168 OFFCURVE",
"435 230 OFFCURVE",
"469 252 CURVE SMOOTH",
"503 273 OFFCURVE",
"552 272 OFFCURVE",
"579 248 CURVE SMOOTH",
"604 236 OFFCURVE",
"622 211 OFFCURVE",
"622 178 CURVE SMOOTH",
"622 -130 LINE",
"625.5 -126.5 OFFCURVE",
"628.5 -123.5 OFFCURVE",
"632 -120 CURVE",
"184 -120 LINE SMOOTH",
"145 -120 OFFCURVE",
"125 -101 OFFCURVE",
"125 -66 CURVE SMOOTH",
"125 176 LINE",
"46 176 LINE",
"46 -66 LINE SMOOTH",
"46 -147 OFFCURVE",
"110 -200 OFFCURVE",
"184 -200 CURVE SMOOTH"
);
}
);
width = 747;
},
{
anchors = (
{
name = bottom.a;
position = "{374, -299}";
},
{
name = bottom.mark;
position = "{374, -319}";
},
{
name = top.a;
position = "{499, 450}";
},
{
name = top.mark;
position = "{499, 488}";
}
);
layerId = "0CAB57D4-4FC4-49C3-B456-FB7666EAA712";
paths = (
{
closed = 1;
nodes = (
"577 -199 LINE SMOOTH",
"620 -199 OFFCURVE",
"648 -164 OFFCURVE",
"648 -129 CURVE SMOOTH",
"648 155 LINE SMOOTH",
"648 186 OFFCURVE",
"640 213 OFFCURVE",
"627 234 CURVE SMOOTH",
"580 308 OFFCURVE",
"471 315 OFFCURVE",
"409 275 CURVE SMOOTH",
"354 239 OFFCURVE",
"315 148 OFFCURVE",
"360 73 CURVE SMOOTH",
"417 -21 OFFCURVE",
"537 -6 OFFCURVE",
"630 6 CURVE",
"630 38 LINE",
"515 26 OFFCURVE",
"432 16 OFFCURVE",
"388 89 CURVE SMOOTH",
"353 146 OFFCURVE",
"384 221 OFFCURVE",
"427 249 CURVE SMOOTH",
"477 281 OFFCURVE",
"565 273 OFFCURVE",
"600 217 CURVE SMOOTH",
"610 201 OFFCURVE",
"616 181 OFFCURVE",
"616 155 CURVE SMOOTH",
"616 -129 LINE SMOOTH",
"616 -148 OFFCURVE",
"602 -167 OFFCURVE",
"577 -167 CURVE SMOOTH",
"155 -167 LINE SMOOTH",
"105 -167 OFFCURVE",
"72 -138 OFFCURVE",
"72 -89 CURVE SMOOTH",
"72 153 LINE",
"40 153 LINE",
"40 -89 LINE SMOOTH",
"40 -156 OFFCURVE",
"91 -199 OFFCURVE",
"155 -199 CURVE SMOOTH"
);
}
);
width = 688;
},
{
anchors = (
{
name = bottom.a;
position = "{429, -338}";
},
{
name = bottom.mark;
position = "{429, -373}";
},
{
name = top.a;
position = "{579, 560}";
},
{
name = top.mark;
position = "{579, 608}";
}
);
layerId = "42B3044F-4D5A-45CA-9EB7-C1889731596B";
paths = (
{
closed = 1;
nodes = (
"667 -199 LINE SMOOTH",
"745 -199 OFFCURVE",
"808 -136 OFFCURVE",
"808 -59 CURVE SMOOTH",
"808 225 LINE SMOOTH",
"808 268 OFFCURVE",
"797 309 OFFCURVE",
"776 342 CURVE SMOOTH",
"703 458 OFFCURVE",
"551 462 OFFCURVE",
"461 404 CURVE SMOOTH",
"379 350 OFFCURVE",
"320 222 OFFCURVE",
"390 107 CURVE SMOOTH",
"454 1 OFFCURVE",
"576 16 OFFCURVE",
"676 21 CURVE",
"676 158 LINE",
"569 147 OFFCURVE",
"552 171 OFFCURVE",
"538 195 CURVE SMOOTH",
"529 210 OFFCURVE",
"530 234 OFFCURVE",
"547 253 CURVE SMOOTH",
"560 267 OFFCURVE",
"582 274 OFFCURVE",
"602 267 CURVE SMOOTH",
"621 261 OFFCURVE",
"636 247 OFFCURVE",
"636 215 CURVE SMOOTH",
"636 -47 LINE",
"643 -40 OFFCURVE",
"649 -34 OFFCURVE",
"656 -27 CURVE",
"212 -27 LINE",
"219 -34 OFFCURVE",
"225 -40 OFFCURVE",
"232 -47 CURVE",
"232 223 LINE",
"60 223 LINE",
"60 -19 LINE SMOOTH",
"60 -126 OFFCURVE",
"148 -199 OFFCURVE",
"245 -199 CURVE SMOOTH"
);
}
);
width = 868;
}
);
unicode = 066F;
},
{
glyphname = "qafDotless-ar.fina";
layers = (
{
anchors = (
{
name = bottom.a;
position = "{400, -299}";
},
{
name = bottom.mark;
position = "{400, -325}";
},
{
name = top.a;
position = "{521, 469}";
},
{
name = top.mark;
position = "{521, 505}";
}
);
layerId = master01;
paths = (
{
closed = 1;
nodes = (
"606 -200 LINE SMOOTH",
"662 -200 OFFCURVE",
"700 -154 OFFCURVE",
"700 -106 CURVE SMOOTH",
"700 178 LINE SMOOTH",
"700 213 OFFCURVE",
"692 244 OFFCURVE",
"676 270 CURVE SMOOTH",
"620 358 OFFCURVE",
"498 363 OFFCURVE",
"426 318 CURVE SMOOTH",
"362 276 OFFCURVE",
"316 172 OFFCURVE",
"370 84 CURVE SMOOTH",
"426 -10 OFFCURVE",
"516 0 OFFCURVE",
"627 0 CURVE SMOOTH",
"805 0 LINE",
"805 79 LINE",
"625 79 LINE SMOOTH",
"502 77 OFFCURVE",
"467 74 OFFCURVE",
"437 124 CURVE SMOOTH",
"410 168 OFFCURVE",
"434 230 OFFCURVE",
"468 252 CURVE SMOOTH",
"505 275 OFFCURVE",
"561 272 OFFCURVE",
"592 242 CURVE SMOOTH",
"610 228 OFFCURVE",
"622 207 OFFCURVE",
"622 178 CURVE SMOOTH",
"622 -130 LINE",
"625.5 -126.5 OFFCURVE",
"628.5 -123.5 OFFCURVE",
"632 -120 CURVE",
"184 -120 LINE SMOOTH",
"145 -120 OFFCURVE",
"124 -101 OFFCURVE",
"124 -66 CURVE SMOOTH",
"124 176 LINE",
"46 176 LINE",
"46 -66 LINE SMOOTH",
"46 -147 OFFCURVE",
"110 -200 OFFCURVE",
"184 -200 CURVE SMOOTH"
);
}
);
width = 789;
},
{
anchors = (
{
name = bottom.a;
position = "{374, -299}";
},
{
name = bottom.mark;
position = "{374, -319}";
},
{
name = top.a;
position = "{499, 450}";
},
{
name = top.mark;
position = "{499, 488}";
}
);
layerId = "0CAB57D4-4FC4-49C3-B456-FB7666EAA712";
paths = (
{
closed = 1;
nodes = (
"577 -199 LINE SMOOTH",
"620 -199 OFFCURVE",
"648 -164 OFFCURVE",
"648 -129 CURVE SMOOTH",
"648 155 LINE SMOOTH",
"648 186 OFFCURVE",
"640 213 OFFCURVE",
"627 234 CURVE SMOOTH",
"580 308 OFFCURVE",
"471 315 OFFCURVE",
"409 275 CURVE SMOOTH",
"354 239 OFFCURVE",
"315 148 OFFCURVE",
"360 73 CURVE SMOOTH",
"406 -4 OFFCURVE",
"469 0 OFFCURVE",
"628 0 CURVE SMOOTH",
"770 0 LINE",
"770 32 LINE",
"623 32 LINE SMOOTH",
"468 29 OFFCURVE",
"424 29 OFFCURVE",
"388 89 CURVE SMOOTH",
"353 146 OFFCURVE",
"384 221 OFFCURVE",
"427 249 CURVE SMOOTH",
"477 281 OFFCURVE",
"565 273 OFFCURVE",
"600 217 CURVE SMOOTH",
"610 201 OFFCURVE",
"616 181 OFFCURVE",
"616 155 CURVE SMOOTH",
"616 -129 LINE SMOOTH",
"616 -148 OFFCURVE",
"602 -167 OFFCURVE",
"577 -167 CURVE SMOOTH",
"155 -167 LINE SMOOTH",
"105 -167 OFFCURVE",
"72 -138 OFFCURVE",
"72 -89 CURVE SMOOTH",
"72 153 LINE",
"40 153 LINE",
"40 -89 LINE SMOOTH",
"40 -156 OFFCURVE",
"91 -199 OFFCURVE",
"155 -199 CURVE SMOOTH"
);
}
);
width = 760;
},
{
anchors = (
{
name = bottom.a;
position = "{429, -338}";
},
{
name = bottom.mark;
position = "{429, -373}";
},
{
name = top.a;
position = "{579, 560}";
},
{
name = top.mark;
position = "{579, 608}";
}
);
layerId = "42B3044F-4D5A-45CA-9EB7-C1889731596B";
paths = (
{
closed = 1;
nodes = (
"667 -200 LINE SMOOTH",
"745 -200 OFFCURVE",
"808 -137 OFFCURVE",
"808 -60 CURVE SMOOTH",
"808 224 LINE SMOOTH",
"808 267 OFFCURVE",
"797 308 OFFCURVE",
"776 341 CURVE SMOOTH",
"703 457 OFFCURVE",
"551 461 OFFCURVE",
"461 403 CURVE SMOOTH",
"379 349 OFFCURVE",
"320 221 OFFCURVE",
"390 106 CURVE SMOOTH",
"454 0 OFFCURVE",
"555 0 OFFCURVE",
"646 0 CURVE SMOOTH",
"904 0 LINE",
"904 172 LINE",
"646 172 LINE SMOOTH",
"559 172 OFFCURVE",
"552 170 OFFCURVE",
"538 194 CURVE SMOOTH",
"529 209 OFFCURVE",
"530 233 OFFCURVE",
"547 252 CURVE SMOOTH",
"560 266 OFFCURVE",
"582 273 OFFCURVE",
"602 266 CURVE SMOOTH",
"621 260 OFFCURVE",
"636 246 OFFCURVE",
"636 214 CURVE SMOOTH",
"636 -48 LINE",
"643 -41 OFFCURVE",
"649 -35 OFFCURVE",
"656 -28 CURVE",
"212 -28 LINE",
"219 -35 OFFCURVE",
"225 -41 OFFCURVE",
"232 -48 CURVE",
"232 222 LINE",
"60 222 LINE",
"60 -20 LINE SMOOTH",
"60 -127 OFFCURVE",
"148 -200 OFFCURVE",
"245 -200 CURVE SMOOTH"
);
}
);
width = 884;
}
);
},
{
glyphname = "kafDotless-ar";
layers = (
{
anchors = (
{
name = bottom.a;
position = "{287, -109}";
},
{
name = bottom.mark;
position = "{287, -136}";
},
{
name = top.a;
position = "{488, 673}";
},
{
name = top.hamza;
position = "{252, 271}";
},
{
name = top.kaf;
position = "{252, 271}";
},
{
name = top.mark;
position = "{488, 710}";
}
);
layerId = master01;
paths = (
{
closed = 1;
nodes = (
"433 0 LINE SMOOTH",
"485 0 OFFCURVE",
"526 41 OFFCURVE",
"526 92 CURVE SMOOTH",
"526 624 LINE",
"447 624 LINE",
"447 69 LINE",
"450.5 72.5 OFFCURVE",
"453.5 75.5 OFFCURVE",
"457 79 CURVE",
"111 79 LINE",
"111 0 LINE"
);
},
{
closed = 1;
nodes = (
"191 0 LINE",
"127 79 LINE",
"46 79 LINE",
"111 0 LINE"
);
}
);
width = 572;
},
{
anchors = (
{
name = bottom.a;
position = "{239, -110}";
},
{
name = bottom.mark;
position = "{239, -130}";
},
{
name = top.a;
position = "{440, 673}";
},
{
name = top.hamza;
position = "{230, 270}";
},
{
name = top.kaf;
position = "{230, 270}";
},
{
name = top.mark;
position = "{440, 711}";
}
);
layerId = "0CAB57D4-4FC4-49C3-B456-FB7666EAA712";
paths = (
{
closed = 1;
nodes = (
"386 0 LINE SMOOTH",
"430 0 OFFCURVE",
"456 35 OFFCURVE",
"456 70 CURVE SMOOTH",
"456 624 LINE",
"424 624 LINE",
"424 70 LINE SMOOTH",
"424 51 OFFCURVE",
"410 32 OFFCURVE",
"386 32 CURVE SMOOTH",
"64 32 LINE",
"64 0 LINE"
);
},
{
closed = 1;
nodes = (
"106 0 LINE",
"82 32 LINE",
"40 32 LINE",
"64 0 LINE"
);
}
);
width = 496;
},
{
anchors = (
{
name = bottom.a;
position = "{362, -109}";
},
{
name = bottom.mark;
position = "{362, -144}";
},
{
name = top.a;
position = "{573, 673}";
},
{
name = top.hamza;
position = "{300, 311}";
},
{
name = top.kaf;
position = "{300, 311}";
},
{
name = top.mark;
position = "{573, 721}";
}
);
layerId = "42B3044F-4D5A-45CA-9EB7-C1889731596B";
paths = (
{
closed = 1;
nodes = (
"527 0 LINE SMOOTH",
"603 0 OFFCURVE",
"666 62 OFFCURVE",
"666 138 CURVE SMOOTH",
"666 624 LINE",
"494 624 LINE",
"494 152 LINE",
"501 159 OFFCURVE",
"507 165 OFFCURVE",
"514 172 CURVE",
"204 172 LINE",
"204 0 LINE"
);
},
{
closed = 1;
nodes = (
"366 0 LINE",
"222 172 LINE",
"60 172 LINE",
"204 0 LINE"
);
}
);
width = 726;
}
);
},
{
glyphname = "kaf-ar.init";
production = uni0643.init;
layers = (
{
anchors = (
{
name = bottom.a;
position = "{206, -149}";
},
{
name = bottom.mark;
position = "{206, -173}";
},
{
name = bottom.ring;
position = "{373, 535}";
},
{
name = top.a;
position = "{82, 639}";
},
{
name = top.gaf;
position = "{330, 649}";
},
{
name = top.mark;
position = "{273, 688}";
}
);
layerId = master01;
paths = (
{
closed = 1;
nodes = (
"419 0 LINE SMOOTH",
"497 0 OFFCURVE",
"535 95 OFFCURVE",
"482 149 CURVE SMOOTH",
"186 451 LINE SMOOTH",
"183.02 454.04 OFFCURVE",
"179 457 OFFCURVE",
"183 460 CURVE SMOOTH",
"275 519 OFFCURVE",
"490 567 OFFCURVE",
"515 568 CURVE",
"514 646 LINE",
"465 645 OFFCURVE",
"262 599 OFFCURVE",
"150 531 CURVE SMOOTH",
"79.326 488.091 OFFCURVE",
"78.845 425.827 OFFCURVE",
"121.391 382.383 CURVE SMOOTH",
"154.642 348.429 LINE SMOOTH",
"157.115 345.904 OFFCURVE",
"159.766 345 OFFCURVE",
"163.301 345 CURVE SMOOTH",
"173.412 345 LINE SMOOTH",
"177 345 OFFCURVE",
"179.756 344.235 OFFCURVE",
"182.265 341.67 CURVE SMOOTH",
"447 71 LINE",
"446.65 73.8 OFFCURVE",
"446.35 76.2 OFFCURVE",
"446 79 CURVE",
"0 79 LINE",
"0 0 LINE"
);
}
);
width = 564;
},
{
anchors = (
{
name = bottom.a;
position = "{129, -150}";
},
{
name = bottom.mark;
position = "{129, -179}";
},
{
name = bottom.ring;
position = "{287, 532}";
},
{
name = top.a;
position = "{69, 619}";
},
{
name = top.gaf;
position = "{257, 597}";
},
{
name = top.mark;
position = "{209, 657}";
}
);
layerId = "0CAB57D4-4FC4-49C3-B456-FB7666EAA712";
paths = (
{
closed = 1;
nodes = (
"342 0 LINE SMOOTH",
"402 0 OFFCURVE",
"424 72 OFFCURVE",
"388 109 CURVE SMOOTH",
"82.279 421.273 LINE SMOOTH",
"70.407 433.399 OFFCURVE",
"77.904 439.268 OFFCURVE",
"82 443 CURVE SMOOTH",
"127 484 OFFCURVE",
"334 556 OFFCURVE",
"438 567 CURVE",
"438 599 LINE",
"326 581 OFFCURVE",
"191 542 OFFCURVE",
"86 486 CURVE SMOOTH",
"28.383 455.271 OFFCURVE",
"24.686 417.671 OFFCURVE",
"51.896 389.877 CURVE SMOOTH",
"85.036 356.028 LINE SMOOTH",
"87.029 353.992 OFFCURVE",
"89.052 352.981 OFFCURVE",
"91.9 352.928 CURVE SMOOTH",
"101.549 352.751 LINE SMOOTH",
"104.476 352.697 OFFCURVE",
"106.66 351.898 OFFCURVE",
"108.708 349.806 CURVE SMOOTH",
"366 87 LINE SMOOTH",
"384.798 67.8 OFFCURVE",
"372 32 OFFCURVE",
"342 32 CURVE SMOOTH",
"0 32 LINE",
"0 0 LINE"
);
}
);
width = 478;
},
{
anchors = (
{
name = bottom.a;
position = "{249, -150}";
},
{
name = bottom.mark;
position = "{249, -175}";
},
{
name = bottom.ring;
position = "{441, 538}";
},
{
name = top.a;
position = "{89, 749}";
},
{
name = top.gaf;
position = "{371, 767}";
},
{
name = top.mark;
position = "{279, 817}";
}
);
layerId = "42B3044F-4D5A-45CA-9EB7-C1889731596B";
paths = (
{
closed = 1;
nodes = (
"462 0 LINE SMOOTH",
"583 0 OFFCURVE",
"643 141 OFFCURVE",
"558 228 CURVE SMOOTH",
"285 508 LINE",
"282.9 498.9 OFFCURVE",
"281.1 491.1 OFFCURVE",
"279 482 CURVE",
"368 527 OFFCURVE",
"541 565 OFFCURVE",
"560 567 CURVE",
"556 739 LINE",
"493 737 OFFCURVE",
"293 693 OFFCURVE",
"170 618 CURVE SMOOTH",
"89 569 OFFCURVE",
"61.747 455.75 OFFCURVE",
"123.067 392.215 CURVE SMOOTH",
"169.19 344.426 LINE SMOOTH",
"174.616 338.805 OFFCURVE",
"180.05 335.844 OFFCURVE",
"187.862 335.882 CURVE SMOOTH",
"201.47 335.949 LINE SMOOTH",
"208.148 335.981 OFFCURVE",
"213.312 334.665 OFFCURVE",
"217.993 329.903 CURVE SMOOTH",
"385 160 LINE",
"387.8 164.2 OFFCURVE",
"390.2 167.8 OFFCURVE",
"393 172 CURVE",
"0 172 LINE",
"0 0 LINE"
);
}
);
width = 657;
}
);
},
{
glyphname = "keheh-ar";
layers = (
{
anchors = (
{
name = bottom.a;
position = "{279, -149}";
},
{
name = bottom.mark;
position = "{279, -170}";
},
{
name = bottom.ring;
position = "{483, 535}";
},
{
name = top.a;
position = "{192, 639}";
},
{
name = top.gaf;
position = "{440, 649}";
},
{
name = top.mark;
position = "{243, 676}";
}
);
components = (
{
alignment = -1;
name = "kaf-ar.medi";
transform = "{1, 0, 0, 1, 111, 0}";
}
);
layerId = master01;
paths = (
{
closed = 1;
nodes = (
"191 0 LINE",
"127 79 LINE",
"46 79 LINE",
"111 0 LINE"
);
}
);
width = 675;
},
{
anchors = (
{
name = bottom.a;
position = "{313, -149}";
},
{
name = bottom.mark;
position = "{313, -169}";
},
{
name = bottom.ring;
position = "{351, 533}";
},
{
name = top.a;
position = "{133, 619}";
},
{
name = top.gaf;
position = "{321, 597}";
},
{
name = top.mark;
position = "{273, 657}";
}
);
components = (
{
alignment = -1;
name = "kaf-ar.medi";
transform = "{1, 0, 0, 1, 64, 0}";
}
);
layerId = "0CAB57D4-4FC4-49C3-B456-FB7666EAA712";
paths = (
{
closed = 1;
nodes = (
"106 0 LINE",
"82 32 LINE",
"40 32 LINE",
"64 0 LINE"
);
}
);
width = 542;
},
{
anchors = (
{
name = bottom.a;
position = "{423, -149}";
},
{
name = bottom.mark;
position = "{423, -174}";
},
{
name = bottom.ring;
position = "{645, 538}";
},
{
name = top.a;
position = "{293, 750}";
},
{
name = top.gaf;
position = "{575, 768}";
},
{
name = top.mark;
position = "{293, 798}";
}
);
components = (
{
alignment = -1;
name = "kaf-ar.medi";
transform = "{1, 0, 0, 1, 204, 0}";
}
);
layerId = "42B3044F-4D5A-45CA-9EB7-C1889731596B";
paths = (
{
closed = 1;
nodes = (
"366 0 LINE",
"222 172 LINE",
"60 172 LINE",
"204 0 LINE"
);
}
);
width = 861;
}
);
unicode = 06A9;
},
{
color = (255,0,255,255);
glyphname = "kafswash-ar";
layers = (
{
components = (
{
alignment = -1;
name = "kafswash-ar.init";
transform = "{1, 0, 0, 1, 111, 0}";
}
);
layerId = master01;
paths = (
{
closed = 1;
nodes = (
"191 0 LINE",
"127 79 LINE",
"46 79 LINE",
"111 0 LINE"
);
}
);
width = 960;
},
{
components = (
{
alignment = -1;
name = "kafswash-ar.init";
transform = "{1, 0, 0, 1, 64, 0}";
}
);
layerId = "0CAB57D4-4FC4-49C3-B456-FB7666EAA712";
paths = (
{
closed = 1;
nodes = (
"106 0 LINE",
"82 32 LINE",
"40 32 LINE",
"64 0 LINE"
);
}
);
width = 850.63476;
},
{
components = (
{
alignment = -1;
name = "kafswash-ar.init";
transform = "{1, 0, 0, 1, 204, 0}";
}
);
layerId = "42B3044F-4D5A-45CA-9EB7-C1889731596B";
paths = (
{
closed = 1;
nodes = (
"366 0 LINE",
"222 172 LINE",
"60 172 LINE",
"204 0 LINE"
);
}
);
width = 1178.43372;
}
);
unicode = 06AA;
},
{
glyphname = "kafswash-ar.init";
layers = (
{
anchors = (
{
name = bottom.mark;
position = "{395, -173}";
},
{
name = top.mark;
position = "{141, 515}";
}
);
layerId = master01;
paths = (
{
closed = 1;
nodes = (
"712 0 LINE SMOOTH",
"809 0 OFFCURVE",
"816 101 OFFCURVE",
"788 142 CURVE SMOOTH",
"774 162 OFFCURVE",
"720 279 OFFCURVE",
"566 279 CURVE SMOOTH",
"116 279 LINE",
"118.8 275.5 OFFCURVE",
"121.2 272.5 OFFCURVE",
"124 269 CURVE",
"195 371 OFFCURVE",
"361 434 OFFCURVE",
"452 452 CURVE",
"437 530 LINE",
"327 511 OFFCURVE",
"177.718 454.661 OFFCURVE",
"95 356 CURVE SMOOTH",
"49.839 302.134 OFFCURVE",
"8 201 OFFCURVE",
"127 201 CURVE SMOOTH",
"566 201 LINE SMOOTH",
"670 201 OFFCURVE",
"705 134 OFFCURVE",
"737 71 CURVE",
"737 73.8 OFFCURVE",
"737 76.2 OFFCURVE",
"737 79 CURVE",
"0 79 LINE",
"0 0 LINE"
);
}
);
width = 849;
},
{
anchors = (
{
name = bottom.mark;
position = "{369, -179}";
},
{
name = top.mark;
position = "{117.469, 482.159}";
}
);
layerId = "0CAB57D4-4FC4-49C3-B456-FB7666EAA712";
paths = (
{
closed = 1;
nodes = (
"680 0 LINE SMOOTH",
"759 0 OFFCURVE",
"753 81 OFFCURVE",
"736 106 CURVE SMOOTH",
"720 128 OFFCURVE",
"675 232 OFFCURVE",
"534 232 CURVE SMOOTH",
"95 232 LINE SMOOTH",
"72 232 OFFCURVE",
"88 277 OFFCURVE",
"104 295 CURVE SMOOTH",
"168 369 OFFCURVE",
"321 433 OFFCURVE",
"416 451 CURVE",
"410 483 LINE",
"309 464 OFFCURVE",
"159 404 OFFCURVE",
"80 317 CURVE SMOOTH",
"43 276 OFFCURVE",
"36 200 OFFCURVE",
"95 200 CURVE SMOOTH",
"534 200 LINE SMOOTH",
"656 200 OFFCURVE",
"697 111 OFFCURVE",
"708 90 CURVE SMOOTH",
"720 68 OFFCURVE",
"720 32 OFFCURVE",
"680 32 CURVE SMOOTH",
"0 32 LINE",
"0 0 LINE"
);
}
);
width = 786.80332;
},
{
associatedMasterId = "0CAB57D4-4FC4-49C3-B456-FB7666EAA712";
layerId = "0E1EBE93-6C1F-45EB-A23C-9EF778538E4B";
name = Back;
paths = (
{
closed = 1;
nodes = (
"0 32 LINE",
"680 32 LINE SMOOTH",
"690.577 32 OFFCURVE",
"697.393 34.173 OFFCURVE",
"701.912 36.851 CURVE SMOOTH",
"717.79 46.26 OFFCURVE",
"716.592 76.3 OFFCURVE",
"708.385 89.596 CURVE SMOOTH",
"692.326 115.611 OFFCURVE",
"656.067 200.384 OFFCURVE",
"533.591 200.3 CURVE SMOOTH",
"95.011 200 LINE SMOOTH",
"83.923 199.992 OFFCURVE",
"73.569 203.009 OFFCURVE",
"65.77 209.746 CURVE SMOOTH",
"32.159 238.78 OFFCURVE",
"63.826 298.349 OFFCURVE",
"80.03 316.617 CURVE SMOOTH",
"157.12 403.528 OFFCURVE",
"309.439 463.528 OFFCURVE",
"410.001 482.716 CURVE",
"415.999 451.284 LINE",
"320.561 433.072 OFFCURVE",
"172.88 373.072 OFFCURVE",
"103.97 295.383 CURVE SMOOTH",
"87.48 276.793 OFFCURVE",
"81.178 238.722 OFFCURVE",
"86.688 233.962 CURVE SMOOTH",
"87.437 233.315 OFFCURVE",
"89.31 231.996 OFFCURVE",
"94.989 232 CURVE SMOOTH",
"533.569 232.3 LINE SMOOTH",
"674.587 232.396 OFFCURVE",
"721.674 128.989 OFFCURVE",
"735.615 106.404 CURVE SMOOTH",
"748.036 86.282 OFFCURVE",
"758.6 33.248 OFFCURVE",
"718.226 9.322 CURVE SMOOTH",
"707.841 3.168 OFFCURVE",
"694.977 0 OFFCURVE",
"680 0 CURVE SMOOTH",
"0 0 LINE"
);
}
);
width = 0;
},
{
anchors = (
{
name = bottom.mark;
position = "{469, -175}";
},
{
name = top.mark;
position = "{143.175, 623.432}";
}
);
layerId = "42B3044F-4D5A-45CA-9EB7-C1889731596B";
paths = (
{
closed = 1;
nodes = (
"780 -1 LINE SMOOTH",
"928 -1 OFFCURVE",
"927 155 OFFCURVE",
"901 200 CURVE SMOOTH",
"893 215 OFFCURVE",
"832 411 OFFCURVE",
"634 411 CURVE SMOOTH",
"309 411 LINE",
"310 408 OFFCURVE",
"311 405 OFFCURVE",
"312 402 CURVE",
"359 441 OFFCURVE",
"473 481 OFFCURVE",
"529 492 CURVE",
"497 660 LINE",
"385 639 OFFCURVE",
"244 593 OFFCURVE",
"128 472 CURVE SMOOTH",
"63 404 OFFCURVE",
"55 239 OFFCURVE",
"195 239 CURVE SMOOTH",
"634 239 LINE SMOOTH",
"677 239 OFFCURVE",
"709 209 OFFCURVE",
"732 158 CURVE",
"736 163 OFFCURVE",
"738 167 OFFCURVE",
"742 172 CURVE",
"0 172 LINE",
"0 -1 LINE"
);
}
);
width = 974.43372;
},
{
associatedMasterId = "42B3044F-4D5A-45CA-9EB7-C1889731596B";
layerId = "C69F9509-6A39-4887-9F9A-452E557F5A18";
name = Back;
paths = (
{
closed = 1;
nodes = (
"100 171 LINE",
"725.711 171 LINE",
"704.884 210.091 OFFCURVE",
"678.44 239.33 OFFCURVE",
"633.639 239.3 CURVE SMOOTH",
"195.059 239 LINE SMOOTH",
"172.14 238.984 OFFCURVE",
"143.232 245.714 OFFCURVE",
"120.01 265.774 CURVE SMOOTH",
"83.724 297.119 OFFCURVE",
"80.904 338.376 OFFCURVE",
"82.132 361.007 CURVE SMOOTH",
"84.642 407.283 OFFCURVE",
"102.356 443.537 OFFCURVE",
"127.663 472.067 CURVE SMOOTH",
"222.647 579.152 OFFCURVE",
"385.111 639.148 OFFCURVE",
"496.88 660.476 CURVE",
"529.12 491.524 LINE",
"472.627 480.744 OFFCURVE",
"386.74 450.367 OFFCURVE",
"322.971 411.087 CURVE",
"633.521 411.3 LINE SMOOTH",
"831.809 411.435 OFFCURVE",
"894.279 216.104 OFFCURVE",
"901.277 200.374 CURVE SMOOTH",
"908.987 182.928 OFFCURVE",
"916.586 155.821 OFFCURVE",
"915.13 124.649 CURVE SMOOTH",
"913.539 90.589 OFFCURVE",
"895.336 34.392 OFFCURVE",
"838.301 10.209 CURVE SMOOTH",
"819.046 2.045 OFFCURVE",
"799.108 -1 OFFCURVE",
"780 -1 CURVE SMOOTH",
"100 -1 LINE"
);
}
);
width = 0;
}
);
},
{
glyphname = "lam-ar";
layers = (
{
anchors = (
{
name = bottom.a;
position = "{256, -258}";
},
{
name = bottom.mark;
position = "{256, -284}";
},
{
name = dash;
position = "{450, 420}";
},
{
name = top.a;
position = "{453, 724}";
},
{
name = top.mark;
position = "{210, 494}";
}
);
layerId = master01;
paths = (
{
closed = 1;
nodes = (
"400 -148 LINE SMOOTH",
"455 -148 OFFCURVE",
"493 -103 OFFCURVE",
"493 -55 CURVE SMOOTH",
"493 624 LINE",
"414 624 LINE",
"414 -80 LINE",
"417.5 -76.5 OFFCURVE",
"420.5 -73.5 OFFCURVE",
"424 -70 CURVE",
"116 -70 LINE",
"119.15 -73.5 OFFCURVE",
"121.85 -76.5 OFFCURVE",
"125 -80 CURVE",
"125 133 LINE",
"46 133 LINE",
"46 -56 LINE SMOOTH",
"46 -110 OFFCURVE",
"89 -148 OFFCURVE",
"140 -148 CURVE SMOOTH"
);
}
);
width = 539;
},
{
anchors = (
{
name = bottom.a;
position = "{227, -258}";
},
{
name = bottom.mark;
position = "{227, -278}";
},
{
name = dash;
position = "{426, 450}";
},
{
name = top.a;
position = "{424, 732}";
},
{
name = top.mark;
position = "{206, 503}";
}
);
layerId = "0CAB57D4-4FC4-49C3-B456-FB7666EAA712";
paths = (
{
closed = 1;
nodes = (
"370 -148 LINE SMOOTH",
"414 -148 OFFCURVE",
"440 -113 OFFCURVE",
"440 -78 CURVE SMOOTH",
"440 624 LINE",
"408 624 LINE",
"408 -78 LINE SMOOTH",
"408 -97 OFFCURVE",
"394 -116 OFFCURVE",
"370 -116 CURVE SMOOTH",
"111 -116 LINE SMOOTH",
"86 -116 OFFCURVE",
"72 -102 OFFCURVE",
"72 -79 CURVE SMOOTH",
"72 110 LINE",
"40 110 LINE",
"40 -79 LINE SMOOTH",
"40 -120 OFFCURVE",
"70 -148 OFFCURVE",
"111 -148 CURVE SMOOTH"
);
}
);
width = 480;
},
{
anchors = (
{
name = bottom.a;
position = "{327, -258}";
},
{
name = bottom.mark;
position = "{327, -293}";
},
{
name = dash;
position = "{510, 400}";
},
{
name = top.a;
position = "{514, 734}";
},
{
name = top.mark;
position = "{208, 552}";
}
);
layerId = "42B3044F-4D5A-45CA-9EB7-C1889731596B";
paths = (
{
closed = 1;
nodes = (
"460 -148 LINE SMOOTH",
"538 -148 OFFCURVE",
"600 -84 OFFCURVE",
"600 -8 CURVE SMOOTH",
"600 624 LINE",
"428 624 LINE",
"428 4 LINE",
"435 11 OFFCURVE",
"441 17 OFFCURVE",
"448 24 CURVE",
"212 24 LINE",
"219 17 OFFCURVE",
"225 11 OFFCURVE",
"232 4 CURVE",
"232 180 LINE",
"60 180 LINE",
"60 -9 LINE SMOOTH",
"60 -86 OFFCURVE",
"125 -148 OFFCURVE",
"201 -148 CURVE SMOOTH"
);
}
);
width = 660;
}
);
unicode = 0644;
},
{
glyphname = "lam-ar.init";
production = uni0644.init;
layers = (
{
anchors = (
{
name = bottom.a;
position = "{142, -99}";
},
{
name = bottom.mark;
position = "{142, -126}";
},
{
name = dash;
position = "{170, 420}";
},
{
name = top.a;
position = "{172, 724}";
},
{
name = top.mark;
position = "{172, 760}";
}
);
layerId = master01;
paths = (
{
closed = 1;
nodes = (
"118 0 LINE SMOOTH",
"171 0 OFFCURVE",
"211 41 OFFCURVE",
"211 92 CURVE SMOOTH",
"211 624 LINE",
"132 624 LINE",
"132 69 LINE",
"135.15 72.5 OFFCURVE",
"137.85 75.5 OFFCURVE",
"141 79 CURVE",
"0 79 LINE",
"0 0 LINE"
);
}
);
width = 257;
},
{
anchors = (
{
name = bottom.a;
position = "{110, -100}";
},
{
name = bottom.mark;
position = "{110, -120}";
},
{
name = dash;
position = "{142, 450}";
},
{
name = top.a;
position = "{140, 723}";
},
{
name = top.mark;
position = "{140, 761}";
}
);
layerId = "0CAB57D4-4FC4-49C3-B456-FB7666EAA712";
paths = (
{
closed = 1;
nodes = (
"87 0 LINE SMOOTH",
"131 0 OFFCURVE",
"156 36 OFFCURVE",
"156 70 CURVE SMOOTH",
"156 624 LINE",
"124 624 LINE",
"124 70 LINE SMOOTH",
"124 50 OFFCURVE",
"111 32 OFFCURVE",
"87 32 CURVE SMOOTH",
"0 32 LINE",
"0 0 LINE"
);
}
);
width = 196;
},
{
anchors = (
{
name = bottom.a;
position = "{195, -99}";
},
{
name = bottom.mark;
position = "{195, -134}";
},
{
name = dash;
position = "{220, 400}";
},
{
name = top.a;
position = "{225, 734}";
},
{
name = top.mark;
position = "{225, 772}";
}
);
layerId = "42B3044F-4D5A-45CA-9EB7-C1889731596B";
paths = (
{
closed = 1;
nodes = (
"171 0 LINE SMOOTH",
"247 0 OFFCURVE",
"310 62 OFFCURVE",
"310 138 CURVE SMOOTH",
"310 624 LINE",
"138 624 LINE",
"138 152 LINE",
"145 159 OFFCURVE",
"151 165 OFFCURVE",
"158 172 CURVE",
"0 172 LINE",
"0 0 LINE"
);
}
);
width = 370;
}
);
},
{
glyphname = "lam-ar.init.1";
production = uni0644.init.1;
layers = (
{
anchors = (
{
name = bottom.a;
position = "{112, -99}";
},
{
name = bottom.mark;
position = "{112, -126}";
},
{
name = dash;
position = "{115, 540}";
},
{
name = top.a;
position = "{112, 724}";
},
{
name = top.mark;
position = "{112, 760}";
}
);
layerId = master01;
paths = (
{
closed = 1;
nodes = (
"59 0 LINE SMOOTH",
"109 0 OFFCURVE",
"151 39 OFFCURVE",
"151 92 CURVE SMOOTH",
"151 624 LINE",
"73 624 LINE",
"73 69 LINE",
"76.5 72.5 OFFCURVE",
"79.5 75.5 OFFCURVE",
"83 79 CURVE",
"-166 79 LINE",
"-166 0 LINE"
);
}
);
width = 198;
},
{
anchors = (
{
name = bottom.a;
position = "{105, -100}";
},
{
name = bottom.mark;
position = "{105, -120}";
},
{
name = dash;
position = "{107, 560}";
},
{
name = top.a;
position = "{105, 723}";
},
{
name = top.mark;
position = "{105, 761}";
}
);
layerId = "0CAB57D4-4FC4-49C3-B456-FB7666EAA712";
paths = (
{
closed = 1;
nodes = (
"55 0 LINE SMOOTH",
"92 0 OFFCURVE",
"122 30 OFFCURVE",
"122 70 CURVE SMOOTH",
"122 624 LINE",
"90 624 LINE",
"90 70 LINE SMOOTH",
"90 46 OFFCURVE",
"74 32 OFFCURVE",
"55 32 CURVE SMOOTH",
"-160 32 LINE",
"-160 0 LINE"
);
}
);
width = 162;
},
{
associatedMasterId = "0CAB57D4-4FC4-49C3-B456-FB7666EAA712";
layerId = "51F1AF01-BF37-4DB0-9C31-69ACB5CCCC5F";
name = Back;
paths = (
{
closed = 1;
nodes = (
"67 199 LINE",
"56 136 OFFCURVE",
"20 77 OFFCURVE",
"-71 26 CURVE",
"-93 26 LINE",
"-68 40 OFFCURVE",
"37 97 OFFCURVE",
"35 199 CURVE"
);
},
{
closed = 1;
nodes = (
"-64 648 LINE",
"67 199 LINE",
"37 191 LINE",
"-94 640 LINE"
);
},
{
closed = 1;
nodes = (
"122 624 LINE",
"122 71 LINE SMOOTH",
"122 31 OFFCURVE",
"92 1 OFFCURVE",
"55 1 CURVE SMOOTH",
"-160 1 LINE",
"-160 33 LINE",
"55 33 LINE SMOOTH",
"74 33 OFFCURVE",
"90 47 OFFCURVE",
"90 71 CURVE SMOOTH",
"90 624 LINE"
);
}
);
width = 162;
},
{
anchors = (
{
name = bottom.a;
position = "{179, -99}";
},
{
name = bottom.mark;
position = "{179, -134}";
},
{
name = dash;
position = "{175, 560}";
},
{
name = top.a;
position = "{179, 710}";
},
{
name = top.mark;
position = "{179, 758}";
}
);
layerId = "42B3044F-4D5A-45CA-9EB7-C1889731596B";
paths = (
{
closed = 1;
nodes = (
"123 0 LINE SMOOTH",
"199 0 OFFCURVE",
"262 62 OFFCURVE",
"262 138 CURVE SMOOTH",
"262 624 LINE",
"90 624 LINE",
"90 152 LINE",
"97 159 OFFCURVE",
"103 165 OFFCURVE",
"110 172 CURVE",
"-210 172 LINE",
"-210 0 LINE"
);
}
);
width = 322;
},
{
associatedMasterId = "42B3044F-4D5A-45CA-9EB7-C1889731596B";
layerId = "8739F3C9-11C1-4372-B44D-360F5F405E77";
name = Back;
paths = (
{
closed = 1;
nodes = (
"262 692 LINE",
"262 138 LINE SMOOTH",
"262 62 OFFCURVE",
"199 0 OFFCURVE",
"123 0 CURVE SMOOTH",
"-210 0 LINE",
"-210 172 LINE",
"110 172 LINE",
"90 152 LINE",
"90 692 LINE"
);
},
{
closed = 1;
nodes = (
"91 289 LINE",
"80 196 OFFCURVE",
"14.221 149.291 OFFCURVE",
"-79 124 CURVE",
"-189 124 LINE",
"-121 157 OFFCURVE",
"-67 187 OFFCURVE",
"-69 289 CURVE"
);
},
{
closed = 1;
nodes = (
"-40.442 738.087 LINE",
"90.558 289.087 LINE",
"-74.558 240.913 LINE",
"-205.558 689.913 LINE"
);
}
);
width = 320.44238;
}
);
},
{
glyphname = "meem-ar";
layers = (
{
components = (
{
name = "meem-ar.init";
transform = "{1, 0, 0, 1, 127, 0}";
}
);
layerId = master01;
paths = (
{
closed = 1;
nodes = (
"191 0 LINE",
"127 79 LINE",
"46 79 LINE",
"111 0 LINE"
);
}
);
width = 632;
},
{
components = (
{
name = "meem-ar.init";
transform = "{1, 0, 0, 1, 82, 0}";
}
);
layerId = "0CAB57D4-4FC4-49C3-B456-FB7666EAA712";
paths = (
{
closed = 1;
nodes = (
"106 0 LINE",
"82 32 LINE",
"40 32 LINE",
"64 0 LINE"
);
}
);
width = 557;
},
{
components = (
{
name = "meem-ar.init";
transform = "{1, 0, 0, 1, 222, 0}";
}
);
layerId = "42B3044F-4D5A-45CA-9EB7-C1889731596B";
paths = (
{
closed = 1;
nodes = (
"366 0 LINE",
"222 172 LINE",
"60 172 LINE",
"204 0 LINE"
);
}
);
width = 837;
}
);
rightMetricsKey = "=meem-ar.init";
unicode = 0645;
},
{
glyphname = "meem-ar.ss04";
layers = (
{
anchors = (
{
name = bottom.a;
position = "{205, -109}";
},
{
name = bottom.mark;
position = "{205, -135}";
},
{
name = top.a;
position = "{283, 449}";
},
{
name = top.mark;
position = "{283, 486}";
}
);
layerId = master01;
paths = (
{
closed = 1;
nodes = (
"125 -200 LINE",
"125 9.806 LINE",
"121.421 6.374 OFFCURVE",
"118.353 3.432 OFFCURVE",
"114.774 0 CURVE",
"291 0 LINE SMOOTH",
"380 0 OFFCURVE",
"485 45 OFFCURVE",
"485 149 CURVE SMOOTH",
"485 202 OFFCURVE",
"457 256 OFFCURVE",
"401 315 CURVE SMOOTH",
"340 378 OFFCURVE",
"238 382 OFFCURVE",
"180 325 CURVE SMOOTH",
"154 301 OFFCURVE",
"139 265 OFFCURVE",
"139 225 CURVE SMOOTH",
"139 105.825 LINE",
"218 105.825 LINE",
"218 225 LINE SMOOTH",
"218 246 OFFCURVE",
"225 259 OFFCURVE",
"235 269 CURVE SMOOTH",
"259 292 OFFCURVE",
"311 295 OFFCURVE",
"344 261 CURVE SMOOTH",
"392 210 OFFCURVE",
"406 172 OFFCURVE",
"406 149 CURVE SMOOTH",
"406 112 OFFCURVE",
"367 79 OFFCURVE",
"291 79 CURVE SMOOTH",
"139 79 LINE SMOOTH",
"86 79 OFFCURVE",
"46 38 OFFCURVE",
"46 -13 CURVE SMOOTH",
"46 -200 LINE"
);
}
);
width = 531;
},
{
anchors = (
{
name = bottom.a;
position = "{162, -109}";
},
{
name = bottom.mark;
position = "{162, -129}";
},
{
name = top.a;
position = "{240, 449}";
},
{
name = top.mark;
position = "{240, 487}";
}
);
layerId = "0CAB57D4-4FC4-49C3-B456-FB7666EAA712";
paths = (
{
closed = 1;
nodes = (
"72 -200 LINE",
"72 -38 LINE SMOOTH",
"72 -18 OFFCURVE",
"85 0 OFFCURVE",
"109 0 CURVE SMOOTH",
"237 0 LINE SMOOTH",
"322 0 OFFCURVE",
"408 41 OFFCURVE",
"408 125 CURVE SMOOTH",
"408 169 OFFCURVE",
"384 219 OFFCURVE",
"331 275 CURVE SMOOTH",
"278 330 OFFCURVE",
"190 332 OFFCURVE",
"142 285 CURVE SMOOTH",
"121 265 OFFCURVE",
"109 236 OFFCURVE",
"109 201 CURVE SMOOTH",
"109 62.716 LINE",
"141 62.716 LINE",
"141 201 LINE SMOOTH",
"141 228 OFFCURVE",
"151 248 OFFCURVE",
"165 262 CURVE SMOOTH",
"199 295 OFFCURVE",
"266 296 OFFCURVE",
"307 253 CURVE SMOOTH",
"357 200 OFFCURVE",
"376 157 OFFCURVE",
"376 125 CURVE SMOOTH",
"376 69 OFFCURVE",
"317 32 OFFCURVE",
"237 32 CURVE SMOOTH",
"109 32 LINE SMOOTH",
"65 32 OFFCURVE",
"40 -4 OFFCURVE",
"40 -38 CURVE SMOOTH",
"40 -200 LINE"
);
}
);
width = 448;
},
{
anchors = (
{
name = bottom.a;
position = "{392, -150}";
},
{
name = bottom.mark;
position = "{392, -185}";
},
{
name = top.a;
position = "{390, 608}";
},
{
name = top.mark;
position = "{390, 652}";
}
);
layerId = "42B3044F-4D5A-45CA-9EB7-C1889731596B";
paths = (
{
closed = 1;
nodes = (
"232 -200 LINE",
"232 24.601 LINE",
"224.43 15.99 OFFCURVE",
"217.942 8.61 OFFCURVE",
"210.372 0 CURVE",
"397 0 LINE SMOOTH",
"494 0 OFFCURVE",
"638 50 OFFCURVE",
"638 195 CURVE SMOOTH",
"638 265 OFFCURVE",
"600 330 OFFCURVE",
"541 393 CURVE SMOOTH",
"463 475 OFFCURVE",
"334 481 OFFCURVE",
"255 406 CURVE SMOOTH",
"220 373 OFFCURVE",
"199 324 OFFCURVE",
"199 271 CURVE SMOOTH",
"199 203.845 LINE",
"371 203.845 LINE",
"371 259 LINE SMOOTH",
"371 268 OFFCURVE",
"371 283 OFFCURVE",
"384 285 CURVE SMOOTH",
"393 286 OFFCURVE",
"406 286 OFFCURVE",
"416 275 CURVE SMOOTH",
"460 229 OFFCURVE",
"466 199 OFFCURVE",
"466 194 CURVE",
"466 194 OFFCURVE",
"464 172 OFFCURVE",
"397 172 CURVE SMOOTH",
"199 172 LINE SMOOTH",
"123 172 OFFCURVE",
"60 110 OFFCURVE",
"60 34 CURVE SMOOTH",
"60 -200 LINE"
);
}
);
width = 698;
}
);
},
{
color = (255,0,255,255);
glyphname = "meem-ar.fina";
production = uni0645.fina;
layers = (
{
components = (
{
alignment = -1;
name = "meem-ar";
}
);
layerId = master01;
paths = (
{
closed = 1;
nodes = (
"602 0 LINE",
"602 79 LINE",
"561 79 LINE",
"561 0 LINE"
);
}
);
width = 586;
},
{
components = (
{
alignment = -1;
name = "meem-ar";
}
);
layerId = "0CAB57D4-4FC4-49C3-B456-FB7666EAA712";
paths = (
{
closed = 1;
nodes = (
"527 0 LINE",
"527 32 LINE",
"460 32 LINE",
"460 0 LINE"
);
}
);
width = 517;
},
{
components = (
{
alignment = -1;
name = "meem-ar";
}
);
layerId = "42B3044F-4D5A-45CA-9EB7-C1889731596B";
paths = (
{
closed = 1;
nodes = (
"797 0 LINE",
"797 172 LINE",
"771 172 LINE",
"771 0 LINE"
);
}
);
width = 777;
}
);
rightMetricsKey = "=meem-ar.medi";
},
{
color = (255,0,255,255);
glyphname = "meem-ar.fina.ss04";
production = uni0645.fina.001;
layers = (
{
components = (
{
alignment = -1;
name = "meem-ar.ss04";
}
);
layerId = master01;
paths = (
{
closed = 1;
nodes = (
"501 0 LINE",
"501 79 LINE",
"460 79 LINE",
"460 0 LINE"
);
}
);
width = 485;
},
{
components = (
{
alignment = -1;
name = "meem-ar.ss04";
}
);
layerId = "0CAB57D4-4FC4-49C3-B456-FB7666EAA712";
paths = (
{
closed = 1;
nodes = (
"418 0 LINE",
"418 32 LINE",
"351 32 LINE",
"351 0 LINE"
);
}
);
width = 408;
},
{
components = (
{
alignment = -1;
name = "meem-ar.ss04";
}
);
layerId = "42B3044F-4D5A-45CA-9EB7-C1889731596B";
paths = (
{
closed = 1;
nodes = (
"658 0 LINE",
"658 172 LINE",
"632 172 LINE",
"632 0 LINE"
);
}
);
width = 638;
}
);
},
{
color = (255,0,255,255);
glyphname = "meem-ar.medi";
production = uni0645.medi;
layers = (
{
components = (
{
alignment = -1;
name = "meem-ar.init";
}
);
layerId = master01;
paths = (
{
closed = 1;
nodes = (
"475 0 LINE",
"475 79 LINE",
"434 79 LINE",
"434 0 LINE"
);
}
);
width = 459;
},
{
components = (
{
alignment = -1;
name = "meem-ar.init";
}
);
layerId = "0CAB57D4-4FC4-49C3-B456-FB7666EAA712";
paths = (
{
closed = 1;
nodes = (
"445 0 LINE",
"445 32 LINE",
"378 32 LINE",
"378 0 LINE"
);
}
);
width = 435;
},
{
components = (
{
alignment = -1;
name = "meem-ar.init";
}
);
layerId = "42B3044F-4D5A-45CA-9EB7-C1889731596B";
paths = (
{
closed = 1;
nodes = (
"575 0 LINE",
"575 172 LINE",
"549 172 LINE",
"549 0 LINE"
);
}
);
width = 555;
}
);
},
{
glyphname = "meem-ar.init";
production = uni0645.init;
layers = (
{
anchors = (
{
name = bottom.a;
position = "{179, -109}";
},
{
name = bottom.mark;
position = "{179, -136}";
},
{
name = top.a;
position = "{257, 449}";
},
{
name = top.mark;
position = "{257, 485}";
}
);
layerId = master01;
paths = (
{
closed = 1;
nodes = (
"97 0 LINE SMOOTH",
"152 0 OFFCURVE",
"191 42 OFFCURVE",
"192 92 CURVE",
"192 225 LINE SMOOTH",
"192 246 OFFCURVE",
"199 259 OFFCURVE",
"209 269 CURVE SMOOTH",
"233 292 OFFCURVE",
"285 295 OFFCURVE",
"318 261 CURVE SMOOTH",
"366 210 OFFCURVE",
"380 172 OFFCURVE",
"380 149 CURVE SMOOTH",
"380 112 OFFCURVE",
"341 79 OFFCURVE",
"265 79 CURVE SMOOTH",
"188 79 LINE",
"188 0 LINE",
"265 0 LINE SMOOTH",
"354 0 OFFCURVE",
"459 45 OFFCURVE",
"459 149 CURVE SMOOTH",
"459 202 OFFCURVE",
"431 256 OFFCURVE",
"375 315 CURVE SMOOTH",
"314 378 OFFCURVE",
"212 382 OFFCURVE",
"154 325 CURVE SMOOTH",
"128 301 OFFCURVE",
"113 265 OFFCURVE",
"113 225 CURVE SMOOTH",
"113 69 LINE",
"116.5 72.5 OFFCURVE",
"119.5 75.5 OFFCURVE",
"123 79 CURVE",
"0 79 LINE",
"0 0 LINE"
);
}
);
width = 505;
},
{
anchors = (
{
name = bottom.a;
position = "{189, -110}";
},
{
name = bottom.mark;
position = "{189, -130}";
},
{
name = top.a;
position = "{267, 448}";
},
{
name = top.mark;
position = "{267, 486}";
}
);
layerId = "0CAB57D4-4FC4-49C3-B456-FB7666EAA712";
paths = (
{
closed = 1;
nodes = (
"94 0 LINE SMOOTH",
"146 0 OFFCURVE",
"167 38 OFFCURVE",
"168 70 CURVE",
"168 201 LINE SMOOTH",
"168 228 OFFCURVE",
"178 248 OFFCURVE",
"192 262 CURVE SMOOTH",
"226 295 OFFCURVE",
"293 296 OFFCURVE",
"334 253 CURVE SMOOTH",
"384 200 OFFCURVE",
"403 157 OFFCURVE",
"403 125 CURVE SMOOTH",
"403 69 OFFCURVE",
"344 32 OFFCURVE",
"264 32 CURVE SMOOTH",
"166 32 LINE",
"166 0 LINE",
"264 0 LINE SMOOTH",
"349 0 OFFCURVE",
"435 41 OFFCURVE",
"435 125 CURVE SMOOTH",
"435 169 OFFCURVE",
"411 219 OFFCURVE",
"358 275 CURVE SMOOTH",
"305 330 OFFCURVE",
"217 332 OFFCURVE",
"169 285 CURVE SMOOTH",
"148 265 OFFCURVE",
"136 236 OFFCURVE",
"136 201 CURVE SMOOTH",
"136 70 LINE SMOOTH",
"135 50 OFFCURVE",
"126 32 OFFCURVE",
"94 32 CURVE SMOOTH",
"0 32 LINE",
"0 0 LINE"
);
}
);
width = 475;
},
{
anchors = (
{
name = bottom.a;
position = "{309, -150}";
},
{
name = bottom.mark;
position = "{309, -185}";
},
{
name = top.a;
position = "{307, 608}";
},
{
name = top.mark;
position = "{307, 652}";
}
);
layerId = "42B3044F-4D5A-45CA-9EB7-C1889731596B";
paths = (
{
closed = 1;
nodes = (
"145 0 LINE SMOOTH",
"261 0 OFFCURVE",
"288 83 OFFCURVE",
"288 168 CURVE SMOOTH",
"288 259 LINE SMOOTH",
"288 268 OFFCURVE",
"288 283 OFFCURVE",
"301 285 CURVE SMOOTH",
"310 286 OFFCURVE",
"323 286 OFFCURVE",
"333 275 CURVE SMOOTH",
"377 229 OFFCURVE",
"383 199 OFFCURVE",
"383 194 CURVE",
"383 194 OFFCURVE",
"381 172 OFFCURVE",
"314 172 CURVE SMOOTH",
"248 172 LINE",
"248 0 LINE",
"314 0 LINE SMOOTH",
"411 0 OFFCURVE",
"555 50 OFFCURVE",
"555 195 CURVE SMOOTH",
"555 265 OFFCURVE",
"517 330 OFFCURVE",
"458 393 CURVE SMOOTH",
"380 475 OFFCURVE",
"251 481 OFFCURVE",
"172 406 CURVE SMOOTH",
"137 373 OFFCURVE",
"116 324 OFFCURVE",
"116 271 CURVE SMOOTH",
"116 152 LINE",
"123 159 OFFCURVE",
"129 165 OFFCURVE",
"136 172 CURVE",
"0 172 LINE",
"0 0 LINE"
);
}
);
width = 615;
}
);
},
{
glyphname = "noonghunna-ar";
layers = (
{
anchors = (
{
name = bottom.a;
position = "{273, -297}";
},
{
name = bottom.mark;
position = "{273, -323}";
},
{
name = bottom.ring;
position = "{273, -188}";
},
{
name = top.a;
position = "{273, 302}";
},
{
name = top.mark;
position = "{273, 340}";
}
);
layerId = master01;
paths = (
{
closed = 1;
nodes = (
"398 -188 LINE SMOOTH",
"451 -188 OFFCURVE",
"489 -145 OFFCURVE",
"489 -96 CURVE SMOOTH",
"489 175 LINE",
"410 175 LINE",
"410 -118 LINE",
"413.5 -114.5 OFFCURVE",
"416.5 -111.5 OFFCURVE",
"420 -108 CURVE",
"260 -108 LINE SMOOTH",
"165 -108 OFFCURVE",
"125 -56 OFFCURVE",
"125 -16 CURVE SMOOTH",
"125 174 LINE",
"46 174 LINE",
"46 -16 LINE SMOOTH",
"46 -123 OFFCURVE",
"140 -188 OFFCURVE",
"260 -188 CURVE SMOOTH"
);
}
);
width = 535;
},
{
anchors = (
{
name = bottom.a;
position = "{238, -297}";
},
{
name = bottom.mark;
position = "{238, -317}";
},
{
name = bottom.ring;
position = "{238, -187}";
},
{
name = top.a;
position = "{238, 302}";
},
{
name = top.mark;
position = "{238, 339}";
}
);
layerId = "0CAB57D4-4FC4-49C3-B456-FB7666EAA712";
paths = (
{
closed = 1;
nodes = (
"369 -187 LINE SMOOTH",
"408 -187 OFFCURVE",
"436 -153 OFFCURVE",
"436 -119 CURVE SMOOTH",
"436 152 LINE",
"404 152 LINE",
"404 -119 LINE SMOOTH",
"404 -137 OFFCURVE",
"388 -155 OFFCURVE",
"369 -155 CURVE SMOOTH",
"230 -155 LINE SMOOTH",
"134 -155 OFFCURVE",
"72 -105 OFFCURVE",
"72 -39 CURVE SMOOTH",
"72 151 LINE",
"40 151 LINE",
"40 -39 LINE SMOOTH",
"40 -133 OFFCURVE",
"124 -187 OFFCURVE",
"230 -187 CURVE SMOOTH"
);
}
);
width = 476;
},
{
anchors = (
{
name = bottom.a;
position = "{328, -297}";
},
{
name = bottom.mark;
position = "{328, -332}";
},
{
name = bottom.ring;
position = "{328, -187}";
},
{
name = top.a;
position = "{328, 382}";
},
{
name = top.mark;
position = "{328, 426}";
}
);
layerId = "42B3044F-4D5A-45CA-9EB7-C1889731596B";
paths = (
{
closed = 1;
nodes = (
"459 -187 LINE SMOOTH",
"536 -187 OFFCURVE",
"596 -125 OFFCURVE",
"596 -49 CURVE SMOOTH",
"596 222 LINE",
"424 222 LINE",
"424 -45 LINE",
"438 -34.5 OFFCURVE",
"450 -25.5 OFFCURVE",
"464 -15 CURVE",
"320 -15 LINE SMOOTH",
"259 -15 OFFCURVE",
"232 5 OFFCURVE",
"232 32 CURVE SMOOTH",
"232 221 LINE",
"60 221 LINE",
"60 31 LINE SMOOTH",
"60 -114 OFFCURVE",
"192 -187 OFFCURVE",
"320 -187 CURVE SMOOTH"
);
}
);
width = 656;
}
);
unicode = 06BA;
},
{
color = (255,0,255,255);
glyphname = "noonghunna-ar.fina";
production = uni06BA.fina;
layers = (
{
components = (
{
alignment = -1;
name = "noonghunna-ar";
}
);
layerId = master01;
paths = (
{
closed = 1;
nodes = (
"619 0 LINE",
"619 79 LINE",
"475 79 LINE",
"475 0 LINE"
);
}
);
width = 603;
},
{
components = (
{
alignment = -1;
name = "noonghunna-ar";
}
);
layerId = "0CAB57D4-4FC4-49C3-B456-FB7666EAA712";
paths = (
{
closed = 1;
nodes = (
"584 0 LINE",
"584 32 LINE",
"432 32 LINE",
"432 0 LINE"
);
}
);
width = 574;
},
{
components = (
{
alignment = -1;
name = "noonghunna-ar";
}
);
layerId = "42B3044F-4D5A-45CA-9EB7-C1889731596B";
paths = (
{
closed = 1;
nodes = (
"704 0 LINE",
"704 172 LINE",
"543 172 LINE",
"543 0 LINE"
);
}
);
width = 684;
}
);
},
{
glyphname = "heh-ar";
layers = (
{
anchors = (
{
name = bottom.a;
position = "{239, -109}";
},
{
name = bottom.mark;
position = "{239, -136}";
},
{
name = top.a;
position = "{261, 505}";
},
{
name = top.hamza;
position = "{261, 450}";
},
{
name = top.kaf;
position = "{261, 450}";
},
{
name = top.mark;
position = "{261, 541}";
}
);
layerId = master01;
paths = (
{
closed = 1;
nodes = (
"300 0 LINE SMOOTH",
"352 0 OFFCURVE",
"391 40 OFFCURVE",
"391 92 CURVE SMOOTH",
"391 351 LINE",
"313 351 LINE",
"313 69 LINE",
"316.5 72.5 OFFCURVE",
"319.5 75.5 OFFCURVE",
"323 79 CURVE",
"171 79 LINE SMOOTH",
"157 79 OFFCURVE",
"145 84 OFFCURVE",
"138 91 CURVE SMOOTH",
"123 104 OFFCURVE",
"118 124 OFFCURVE",
"137 145 CURVE SMOOTH",
"198 203 OFFCURVE",
"259 242 OFFCURVE",
"317 366 CURVE",
"243 397 LINE",
"202 298 OFFCURVE",
"154 270 OFFCURVE",
"81 201 CURVE SMOOTH",
"28 151 OFFCURVE",
"41 73 OFFCURVE",
"84 33 CURVE SMOOTH",
"107 13 OFFCURVE",
"138 0 OFFCURVE",
"171 0 CURVE SMOOTH"
);
}
);
width = 438;
},
{
anchors = (
{
name = bottom.a;
position = "{204, -110}";
},
{
name = bottom.mark;
position = "{204, -130}";
},
{
name = top.a;
position = "{220, 504}";
},
{
name = top.hamza;
position = "{220, 449}";
},
{
name = top.kaf;
position = "{220, 449}";
},
{
name = top.mark;
position = "{220, 542}";
}
);
layerId = "0CAB57D4-4FC4-49C3-B456-FB7666EAA712";
paths = (
{
closed = 1;
nodes = (
"252 0 LINE SMOOTH",
"289 0 OFFCURVE",
"320 31 OFFCURVE",
"320 68 CURVE SMOOTH",
"320 327 LINE",
"288 327 LINE",
"288 68 LINE SMOOTH",
"288 49 OFFCURVE",
"271 32 OFFCURVE",
"252 32 CURVE SMOOTH",
"142 32 LINE SMOOTH",
"122 32 OFFCURVE",
"105 39 OFFCURVE",
"93 50 CURVE SMOOTH",
"69 71 OFFCURVE",
"62 107 OFFCURVE",
"90 138 CURVE SMOOTH",
"158 202 OFFCURVE",
"219 241 OFFCURVE",
"265 352 CURVE",
"235 364 LINE",
"192 260 OFFCURVE",
"139 227 OFFCURVE",
"68 161 CURVE SMOOTH",
"24 120 OFFCURVE",
"37 58 OFFCURVE",
"71 27 CURVE SMOOTH",
"89 11 OFFCURVE",
"114 0 OFFCURVE",
"142 0 CURVE SMOOTH"
);
}
);
width = 360;
},
{
anchors = (
{
name = bottom.a;
position = "{314, -161}";
},
{
name = bottom.mark;
position = "{314, -196}";
},
{
name = top.a;
position = "{340, 604}";
},
{
name = top.hamza;
position = "{340, 499}";
},
{
name = top.kaf;
position = "{340, 499}";
},
{
name = top.mark;
position = "{340, 652}";
}
);
layerId = "42B3044F-4D5A-45CA-9EB7-C1889731596B";
paths = (
{
closed = 1;
nodes = (
"371 0 LINE SMOOTH",
"447 0 OFFCURVE",
"509 62 OFFCURVE",
"509 138 CURVE SMOOTH",
"509 397 LINE",
"337 397 LINE",
"337 152 LINE",
"344 159 OFFCURVE",
"350 165 OFFCURVE",
"357 172 CURVE",
"224 172 LINE",
"219.702 171.717 OFFCURVE",
"218.016 167.371 OFFCURVE",
"218.241 163.9 CURVE SMOOTH",
"218.612 158.166 OFFCURVE",
"220.481 155.207 OFFCURVE",
"224 154 CURVE",
"329 250 OFFCURVE",
"374 284 OFFCURVE",
"420 397 CURVE",
"260 461 LINE",
"224 376 OFFCURVE",
"185 356 OFFCURVE",
"109 282 CURVE SMOOTH",
"34 209 OFFCURVE",
"52 100 OFFCURVE",
"113 45 CURVE SMOOTH",
"144 17 OFFCURVE",
"186 0 OFFCURVE",
"231 0 CURVE SMOOTH"
);
}
);
width = 569;
}
);
unicode = 0647;
},
{
glyphname = "heh-ar.init";
production = uni0647.init;
layers = (
{
anchors = (
{
name = bottom.a;
position = "{336, -149}";
},
{
name = bottom.mark;
position = "{336, -176}";
},
{
name = top.a;
position = "{336, 532}";
},
{
name = top.hamza;
position = "{336, 532}";
},
{
name = top.kaf;
position = "{336, 532}";
},
{
name = top.mark;
position = "{336, 664}";
}
);
layerId = master01;
paths = (
{
closed = 1;
nodes = (
"564 0 LINE SMOOTH",
"614 0 OFFCURVE",
"655 40 OFFCURVE",
"656 92 CURVE SMOOTH",
"660 262 OFFCURVE",
"532 470 OFFCURVE",
"250 474 CURVE",
"248 396 LINE",
"485 392 OFFCURVE",
"582 218 OFFCURVE",
"576 69 CURVE",
"579.85 72.5 OFFCURVE",
"583.15 75.5 OFFCURVE",
"587 79 CURVE",
"0 79 LINE",
"0 0 LINE"
);
},
{
closed = 1;
nodes = (
"385 2 OFFCURVE",
"456 45 OFFCURVE",
"455 126 CURVE SMOOTH",
"454 156 OFFCURVE",
"443 187 OFFCURVE",
"423 218 CURVE SMOOTH",
"362 311 OFFCURVE",
"258 342 OFFCURVE",
"187 295 CURVE SMOOTH",
"153 273 OFFCURVE",
"133 233 OFFCURVE",
"133 187 CURVE SMOOTH",
"133 75 LINE",
"211 75 LINE",
"211 187 LINE SMOOTH",
"211 211 OFFCURVE",
"220 222 OFFCURVE",
"231 230 CURVE SMOOTH",
"254 245 OFFCURVE",
"313 243 OFFCURVE",
"357 175 CURVE SMOOTH",
"371 153 OFFCURVE",
"376 136 OFFCURVE",
"376 125 CURVE SMOOTH",
"376 99 OFFCURVE",
"354 79 OFFCURVE",
"321 79 CURVE",
"323 1 LINE"
);
}
);
width = 702;
},
{
anchors = (
{
name = bottom.a;
position = "{336, -150}";
},
{
name = bottom.mark;
position = "{336, -170}";
},
{
name = top.a;
position = "{336, 500}";
},
{
name = top.hamza;
position = "{336, 500}";
},
{
name = top.kaf;
position = "{336, 500}";
},
{
name = top.mark;
position = "{336, 665}";
}
);
layerId = "0CAB57D4-4FC4-49C3-B456-FB7666EAA712";
paths = (
{
closed = 1;
nodes = (
"564 0 LINE SMOOTH",
"601 0 OFFCURVE",
"632 30 OFFCURVE",
"632 68 CURVE SMOOTH",
"636 228 OFFCURVE",
"517 423 OFFCURVE",
"249 427 CURVE",
"249 395 LINE",
"499 391 OFFCURVE",
"604 212 OFFCURVE",
"600 68 CURVE SMOOTH",
"600 46 OFFCURVE",
"585 32 OFFCURVE",
"564 32 CURVE SMOOTH",
"0 32 LINE",
"0 0 LINE"
);
},
{
closed = 1;
nodes = (
"376 1 OFFCURVE",
"432 37 OFFCURVE",
"431 102 CURVE SMOOTH",
"430 126 OFFCURVE",
"421 153 OFFCURVE",
"403 182 CURVE SMOOTH",
"347 267 OFFCURVE",
"257 290 OFFCURVE",
"200 252 CURVE SMOOTH",
"173 234 OFFCURVE",
"156 203 OFFCURVE",
"156 163 CURVE SMOOTH",
"156 26 LINE",
"188 26 LINE",
"188 163 LINE SMOOTH",
"188 194 OFFCURVE",
"200 214 OFFCURVE",
"218 226 CURVE SMOOTH",
"255 251 OFFCURVE",
"328 239 OFFCURVE",
"377 164 CURVE SMOOTH",
"393 139 OFFCURVE",
"399 118 OFFCURVE",
"399 101 CURVE SMOOTH",
"400 59 OFFCURVE",
"364 33 OFFCURVE",
"322 32 CURVE",
"322 0 LINE"
);
}
);
width = 672;
},
{
anchors = (
{
name = bottom.a;
position = "{336, -150}";
},
{
name = bottom.mark;
position = "{336, -185}";
},
{
name = top.a;
position = "{336, 675}";
},
{
name = top.hamza;
position = "{336, 675}";
},
{
name = top.kaf;
position = "{336, 675}";
},
{
name = top.mark;
position = "{336, 675}";
}
);
layerId = "42B3044F-4D5A-45CA-9EB7-C1889731596B";
paths = (
{
closed = 1;
nodes = (
"584 0 LINE SMOOTH",
"656 0 OFFCURVE",
"721 56 OFFCURVE",
"722 137 CURVE SMOOTH",
"726 319 OFFCURVE",
"584 622 OFFCURVE",
"269 622 CURVE",
"269 450 LINE",
"436 450 OFFCURVE",
"541 294 OFFCURVE",
"552 152 CURVE",
"557.6 159 OFFCURVE",
"562.4 165 OFFCURVE",
"568 172 CURVE",
"0 172 LINE",
"0 0 LINE"
);
},
{
closed = 1;
nodes = (
"380 1 OFFCURVE",
"443 26 OFFCURVE",
"478 85 CURVE SMOOTH",
"518 152 OFFCURVE",
"502 229 OFFCURVE",
"462 290 CURVE SMOOTH",
"392 397 OFFCURVE",
"262 447 OFFCURVE",
"162 381 CURVE SMOOTH",
"116 351 OFFCURVE",
"86 294 OFFCURVE",
"86 233 CURVE SMOOTH",
"86 136 LINE",
"258 136 LINE",
"258 230 LINE SMOOTH",
"258 235 OFFCURVE",
"260 238 OFFCURVE",
"265 237 CURVE",
"274 236 OFFCURVE",
"288 231 OFFCURVE",
"304 214 CURVE SMOOTH",
"312 205 OFFCURVE",
"320 192 OFFCURVE",
"326 176 CURVE SMOOTH",
"327 173 OFFCURVE",
"324 172 OFFCURVE",
"321 172 CURVE",
"323 0 LINE"
);
}
);
width = 782;
}
);
},
{
glyphname = "hehgoal-ar.fina";
production = uni06C1.fina;
layers = (
{
anchors = (
{
name = bottom.a;
position = "{193, -113}";
},
{
name = bottom.mark;
position = "{193, -139}";
},
{
name = top.a;
position = "{170, 270}";
},
{
name = top.hamza;
position = "{170, 270}";
},
{
name = top.kaf;
position = "{170, 270}";
},
{
name = top.mark;
position = "{170, 308}";
}
);
layerId = master01;
paths = (
{
closed = 1;
nodes = (
"160 -47 LINE",
"160 47 LINE",
"156.5 43.15 OFFCURVE",
"153.5 39.85 OFFCURVE",
"150 36 CURVE",
"331 36 LINE",
"331 115 LINE",
"174 115 LINE SMOOTH",
"124 115 OFFCURVE",
"81 76 OFFCURVE",
"81 24 CURVE SMOOTH",
"81 -47 LINE"
);
}
);
width = 315;
},
{
anchors = (
{
name = bottom.a;
position = "{139, -120}";
},
{
name = bottom.mark;
position = "{139, -140}";
},
{
name = top.a;
position = "{109, 180}";
},
{
name = top.hamza;
position = "{109, 180}";
},
{
name = top.kaf;
position = "{109, 180}";
},
{
name = top.mark;
position = "{109, 217}";
}
);
layerId = "0CAB57D4-4FC4-49C3-B456-FB7666EAA712";
paths = (
{
closed = 1;
nodes = (
"72 -58 LINE",
"72 -5 LINE SMOOTH",
"72 15 OFFCURVE",
"86 30 OFFCURVE",
"109 30 CURVE SMOOTH",
"218 30 LINE",
"218 62 LINE",
"109 62 LINE SMOOTH",
"70 62 OFFCURVE",
"40 33 OFFCURVE",
"40 -5 CURVE SMOOTH",
"40 -58 LINE"
);
}
);
width = 218;
},
{
anchors = (
{
name = bottom.a;
position = "{299, -100}";
},
{
name = bottom.mark;
position = "{299, -135}";
},
{
name = top.a;
position = "{254, 442}";
},
{
name = top.hamza;
position = "{254, 442}";
},
{
name = top.kaf;
position = "{254, 442}";
},
{
name = top.mark;
position = "{254, 486}";
}
);
layerId = "42B3044F-4D5A-45CA-9EB7-C1889731596B";
paths = (
{
closed = 1;
nodes = (
"292 -48 LINE",
"292 80 LINE",
"285 73 OFFCURVE",
"279 67 OFFCURVE",
"272 60 CURVE",
"498 60 LINE",
"498 232 LINE",
"259 232 LINE SMOOTH",
"183 232 OFFCURVE",
"120 170 OFFCURVE",
"120 94 CURVE SMOOTH",
"120 -48 LINE"
);
}
);
width = 478;
}
);
},
{
glyphname = "hehgoal-ar.medi";
production = uni06C1.medi;
layers = (
{
anchors = (
{
name = bottom.a;
position = "{340, -401}";
},
{
name = bottom.mark;
position = "{340, -428}";
},
{
name = top.a;
position = "{282, 233}";
},
{
name = top.hamza;
position = "{336, 233}";
},
{
name = top.kaf;
position = "{336, 233}";
},
{
name = top.mark;
position = "{282, 270}";
}
);
layerId = master01;
paths = (
{
closed = 1;
nodes = (
"342 -268 LINE",
"320 -154 OFFCURVE",
"268 -128 OFFCURVE",
"241 -85 CURVE SMOOTH",
"223 -55 OFFCURVE",
"232 79 OFFCURVE",
"139 79 CURVE SMOOTH",
"0 79 LINE",
"0 0 LINE",
"130 0 LINE SMOOTH",
"146 -13 OFFCURVE",
"139 -70 OFFCURVE",
"173 -126 CURVE SMOOTH",
"218 -199 OFFCURVE",
"246 -189 OFFCURVE",
"264 -283 CURVE"
);
},
{
closed = 1;
nodes = (
"413 -276 LINE",
"413 10 LINE",
"409.5 6.5 OFFCURVE",
"406.5 3.5 OFFCURVE",
"403 0 CURVE",
"582 0 LINE",
"582 79 LINE",
"427 79 LINE SMOOTH",
"377 79 OFFCURVE",
"335 39 OFFCURVE",
"335 -12 CURVE SMOOTH",
"335 -276 LINE"
);
}
);
width = 566;
},
{
anchors = (
{
name = bottom.a;
position = "{321, -402}";
},
{
name = bottom.mark;
position = "{321, -422}";
},
{
name = top.a;
position = "{263, 232}";
},
{
name = top.hamza;
position = "{336, 232}";
},
{
name = top.kaf;
position = "{336, 232}";
},
{
name = top.mark;
position = "{263, 269}";
}
);
layerId = "0CAB57D4-4FC4-49C3-B456-FB7666EAA712";
paths = (
{
closed = 1;
nodes = (
"319 -296 LINE",
"298 -188 OFFCURVE",
"253 -173 OFFCURVE",
"221 -121 CURVE SMOOTH",
"197 -82 OFFCURVE",
"208 32 OFFCURVE",
"140 32 CURVE SMOOTH",
"0 32 LINE",
"0 0 LINE",
"140 0 LINE SMOOTH",
"172 0 OFFCURVE",
"149 -66 OFFCURVE",
"193 -137 CURVE SMOOTH",
"233 -201 OFFCURVE",
"268 -202 OFFCURVE",
"287 -302 CURVE"
);
},
{
closed = 1;
nodes = (
"350 -286 LINE",
"350 -36 LINE SMOOTH",
"350 -17 OFFCURVE",
"367 0 OFFCURVE",
"386 0 CURVE SMOOTH",
"536 0 LINE",
"536 32 LINE",
"386 32 LINE SMOOTH",
"349 32 OFFCURVE",
"318 1 OFFCURVE",
"318 -36 CURVE SMOOTH",
"318 -286 LINE"
);
}
);
width = 526;
},
{
anchors = (
{
name = bottom.a;
position = "{351, -402}";
},
{
name = bottom.mark;
position = "{351, -437}";
},
{
name = top.a;
position = "{293, 232}";
},
{
name = top.hamza;
position = "{336, 232}";
},
{
name = top.kaf;
position = "{336, 232}";
},
{
name = top.mark;
position = "{293, 276}";
}
);
layerId = "42B3044F-4D5A-45CA-9EB7-C1889731596B";
paths = (
{
closed = 1;
nodes = (
"402 -213 LINE",
"378 -86 OFFCURVE",
"329 -66 OFFCURVE",
"295 -14 CURVE SMOOTH",
"276 16 OFFCURVE",
"283 172 OFFCURVE",
"142 172 CURVE SMOOTH",
"0 172 LINE",
"0 0 LINE",
"98 0 LINE SMOOTH",
"123 0 OFFCURVE",
"124 -63 OFFCURVE",
"149 -104 CURVE SMOOTH",
"205 -194 OFFCURVE",
"218 -164 OFFCURVE",
"234 -245 CURVE"
);
},
{
closed = 1;
nodes = (
"547 -206 LINE",
"547 20 LINE",
"540 13 OFFCURVE",
"534 7 OFFCURVE",
"527 0 CURVE",
"673 0 LINE",
"673 172 LINE",
"513 172 LINE SMOOTH",
"437 172 OFFCURVE",
"375 110 OFFCURVE",
"375 34 CURVE SMOOTH",
"375 -206 LINE"
);
}
);
width = 653;
}
);
},
{
glyphname = "hehgoal-ar.init";
production = uni06C1.init;
layers = (
{
anchors = (
{
name = top.a;
position = "{112, 301}";
},
{
name = top.hamza;
position = "{199, 301}";
},
{
name = top.mark;
position = "{112, 337}";
}
);
layerId = master01;
paths = (
{
closed = 1;
nodes = (
"202 0 LINE SMOOTH",
"252 0 OFFCURVE",
"294 39 OFFCURVE",
"294 91 CURVE SMOOTH",
"294 232 LINE",
"216 232 LINE",
"216 69 LINE",
"219.5 72.5 OFFCURVE",
"222.5 75.5 OFFCURVE",
"226 79 CURVE",
"0 79 LINE",
"0 0 LINE"
);
},
{
closed = 1;
nodes = (
"200 -235 OFFCURVE",
"261 -235 OFFCURVE",
"313 -176 CURVE",
"273 -146 LINE",
"225 -185 OFFCURVE",
"193 -139 OFFCURVE",
"206 -86 CURVE SMOOTH",
"218 -33 OFFCURVE",
"234 -12 OFFCURVE",
"268 27 CURVE",
"228 58 LINE",
"175 -3 OFFCURVE",
"153 -40 OFFCURVE",
"139 -111 CURVE SMOOTH",
"132 -155 OFFCURVE",
"143 -191 OFFCURVE",
"170 -212 CURVE SMOOTH"
);
}
);
width = 352;
},
{
anchors = (
{
name = top.a;
position = "{99, 300}";
},
{
name = top.hamza;
position = "{199, 300}";
},
{
name = top.mark;
position = "{99, 338}";
}
);
layerId = "0CAB57D4-4FC4-49C3-B456-FB7666EAA712";
paths = (
{
closed = 1;
nodes = (
"189 0 LINE SMOOTH",
"228 0 OFFCURVE",
"258 29 OFFCURVE",
"258 67 CURVE SMOOTH",
"258 190 LINE",
"226 190 LINE",
"226 67 LINE SMOOTH",
"226 47 OFFCURVE",
"212 32 OFFCURVE",
"189 32 CURVE SMOOTH",
"0 32 LINE",
"0 0 LINE"
);
},
{
closed = 1;
nodes = (
"201 -215 OFFCURVE",
"252 -208 OFFCURVE",
"279 -174 CURVE",
"254 -154 LINE",
"212.342 -194.205 OFFCURVE",
"162.479 -160.743 OFFCURVE",
"185.645 -86.37 CURVE SMOOTH",
"199.751 -41.082 OFFCURVE",
"209 -22 OFFCURVE",
"241 24 CURVE",
"215 42 LINE",
"181 -6 OFFCURVE",
"159 -50 OFFCURVE",
"149 -103 CURVE SMOOTH",
"143 -137 OFFCURVE",
"149 -171 OFFCURVE",
"174 -192 CURVE SMOOTH"
);
}
);
width = 298;
},
{
associatedMasterId = "0CAB57D4-4FC4-49C3-B456-FB7666EAA712";
layerId = "D932C6FB-B267-407E-8BFA-78F29381669F";
name = Back;
paths = (
{
closed = 1;
nodes = (
"241 24 LINE",
"209 -22 OFFCURVE",
"189 -62 OFFCURVE",
"180 -109 CURVE SMOOTH",
"176 -132 OFFCURVE",
"178 -152 OFFCURVE",
"192 -164 CURVE SMOOTH",
"204 -174 OFFCURVE",
"229 -185 OFFCURVE",
"254 -154 CURVE",
"279 -174 LINE",
"252 -208 OFFCURVE",
"201 -215 OFFCURVE",
"174 -192 CURVE SMOOTH",
"149 -171 OFFCURVE",
"143 -137 OFFCURVE",
"149 -103 CURVE SMOOTH",
"159 -50 OFFCURVE",
"181 -6 OFFCURVE",
"215 42 CURVE"
);
}
);
width = 298;
},
{
anchors = (
{
name = top.a;
position = "{184, 432}";
},
{
name = top.hamza;
position = "{234, 432}";
},
{
name = top.mark;
position = "{184, 480}";
}
);
layerId = "42B3044F-4D5A-45CA-9EB7-C1889731596B";
paths = (
{
closed = 1;
nodes = (
"239 0 LINE SMOOTH",
"315 0 OFFCURVE",
"378 62 OFFCURVE",
"378 138 CURVE SMOOTH",
"378 310 LINE",
"206 310 LINE",
"206 152 LINE",
"213 159 OFFCURVE",
"219 165 OFFCURVE",
"226 172 CURVE",
"0 172 LINE",
"0 0 LINE"
);
},
{
closed = 1;
nodes = (
"232 -334 OFFCURVE",
"334 -269 OFFCURVE",
"374 -207 CURVE",
"302 -151 LINE",
"278 -177 OFFCURVE",
"237 -174 OFFCURVE",
"247 -122 CURVE SMOOTH",
"257 -71 OFFCURVE",
"296 -3 OFFCURVE",
"335 39 CURVE",
"265 97 LINE",
"198 25 OFFCURVE",
"141 -73 OFFCURVE",
"125 -160 CURVE SMOOTH",
"115 -215 OFFCURVE",
"131 -256 OFFCURVE",
"161 -279 CURVE SMOOTH"
);
}
);
width = 498;
},
{
associatedMasterId = "42B3044F-4D5A-45CA-9EB7-C1889731596B";
layerId = "24CCD37B-0942-4893-8FE1-CDA6329D6657";
name = Back;
paths = (
{
closed = 0;
nodes = (
"300 18 LINE",
"247 -39 OFFCURVE",
"199.064 -122.195 OFFCURVE",
"186 -191 CURVE SMOOTH",
"171 -270 OFFCURVE",
"247 -327 OFFCURVE",
"318 -249 CURVE"
);
}
);
width = 498;
}
);
},
{
glyphname = "waw-ar";
layers = (
{
anchors = (
{
name = bottom.a;
position = "{188, -309}";
},
{
name = bottom.mark;
position = "{188, -335}";
},
{
name = bottom.ring;
position = "{188, -200}";
},
{
name = dash;
position = "{340, -60}";
},
{
name = top.a;
position = "{252, 466}";
},
{
name = top.hamza;
position = "{252, 466}";
},
{
name = top.kaf;
position = "{252, 466}";
},
{
name = top.mark;
position = "{220, 503}";
}
);
layerId = master01;
paths = (
{
closed = 1;
nodes = (
"215 -200 LINE SMOOTH",
"324 -200 OFFCURVE",
"392 -106 OFFCURVE",
"392 -14 CURVE SMOOTH",
"392 220 LINE SMOOTH",
"392 305 OFFCURVE",
"329 351 OFFCURVE",
"261 350 CURVE SMOOTH",
"170 349 OFFCURVE",
"62 274 OFFCURVE",
"50 145 CURVE SMOOTH",
"46 68 OFFCURVE",
"111 0 OFFCURVE",
"193 0 CURVE SMOOTH",
"351 0 LINE",
"351 79 LINE",
"193 79 LINE SMOOTH",
"154 79 OFFCURVE",
"127 111 OFFCURVE",
"128 139 CURVE SMOOTH",
"137 224 OFFCURVE",
"210 271 OFFCURVE",
"262 271 CURVE SMOOTH",
"295 271 OFFCURVE",
"314 247 OFFCURVE",
"314 207 CURVE SMOOTH",
"314 -13 LINE SMOOTH",
"314 -70 OFFCURVE",
"273 -120 OFFCURVE",
"215 -120 CURVE SMOOTH",
"22 -120 LINE",
"22 -200 LINE"
);
}
);
width = 439;
},
{
anchors = (
{
name = bottom.a;
position = "{169, -309}";
},
{
name = bottom.mark;
position = "{169, -329}";
},
{
name = bottom.ring;
position = "{169, -199}";
},
{
name = dash;
position = "{325, -76}";
},
{
name = top.a;
position = "{233, 434}";
},
{
name = top.hamza;
position = "{233, 434}";
},
{
name = top.kaf;
position = "{233, 434}";
},
{
name = top.mark;
position = "{193, 472}";
}
);
layerId = "0CAB57D4-4FC4-49C3-B456-FB7666EAA712";
paths = (
{
closed = 1;
nodes = (
"193 -199 LINE SMOOTH",
"286 -199 OFFCURVE",
"347 -118 OFFCURVE",
"347 -37 CURVE SMOOTH",
"347 197 LINE SMOOTH",
"347 269 OFFCURVE",
"296 304 OFFCURVE",
"239 304 CURVE SMOOTH",
"159 303 OFFCURVE",
"61 236 OFFCURVE",
"51 120 CURVE SMOOTH",
"47 58 OFFCURVE",
"101 0 OFFCURVE",
"171 0 CURVE SMOOTH",
"331 0 LINE",
"331 32 LINE",
"171 32 LINE SMOOTH",
"119 32 OFFCURVE",
"81 76 OFFCURVE",
"83 118 CURVE SMOOTH",
"92 216 OFFCURVE",
"176 272 OFFCURVE",
"240 272 CURVE SMOOTH",
"283 272 OFFCURVE",
"315 250 OFFCURVE",
"315 197 CURVE SMOOTH",
"315 -37 LINE SMOOTH",
"315 -104 OFFCURVE",
"266 -167 OFFCURVE",
"193 -167 CURVE SMOOTH",
"0 -167 LINE",
"0 -199 LINE"
);
}
);
width = 387;
},
{
anchors = (
{
name = bottom.a;
position = "{259, -359}";
},
{
name = bottom.mark;
position = "{259, -394}";
},
{
name = bottom.ring;
position = "{259, -229}";
},
{
name = dash;
position = "{390, -40}";
},
{
name = top.a;
position = "{323, 554}";
},
{
name = top.hamza;
position = "{323, 554}";
},
{
name = top.kaf;
position = "{323, 554}";
},
{
name = top.mark;
position = "{278, 602}";
}
);
layerId = "42B3044F-4D5A-45CA-9EB7-C1889731596B";
paths = (
{
closed = 1;
nodes = (
"272 -229 LINE SMOOTH",
"411 -229 OFFCURVE",
"496 -110 OFFCURVE",
"496 3 CURVE SMOOTH",
"496 267 LINE SMOOTH",
"496 368 OFFCURVE",
"417 444 OFFCURVE",
"319 444 CURVE SMOOTH",
"204 444 OFFCURVE",
"74 353 OFFCURVE",
"60 195 CURVE SMOOTH",
"54 88 OFFCURVE",
"141 0 OFFCURVE",
"250 0 CURVE SMOOTH",
"378 0 LINE",
"378 172 LINE",
"250 172 LINE SMOOTH",
"233 172 OFFCURVE",
"231 184 OFFCURVE",
"234 195 CURVE SMOOTH",
"245 244 OFFCURVE",
"289 269 OFFCURVE",
"315 272 CURVE",
"321 273 OFFCURVE",
"324 274 OFFCURVE",
"324 267 CURVE SMOOTH",
"324 0 LINE SMOOTH",
"324 -34 OFFCURVE",
"298 -57 OFFCURVE",
"272 -57 CURVE SMOOTH",
"79 -57 LINE",
"79 -229 LINE"
);
}
);
width = 556;
}
);
unicode = 0648;
},
{
color = (255,0,255,255);
glyphname = "waw-ar.fina";
production = uni0648.fina;
layers = (
{
components = (
{
alignment = -1;
name = "waw-ar";
}
);
layerId = master01;
paths = (
{
closed = 1;
nodes = (
"497 0 LINE",
"497 79 LINE",
"349 79 LINE",
"349 0 LINE"
);
}
);
width = 482;
},
{
components = (
{
alignment = -1;
name = "waw-ar";
}
);
layerId = "0CAB57D4-4FC4-49C3-B456-FB7666EAA712";
paths = (
{
closed = 1;
nodes = (
"470 0 LINE",
"470 32 LINE",
"313 32 LINE",
"313 0 LINE"
);
}
);
width = 460;
},
{
components = (
{
alignment = -1;
name = "waw-ar";
}
);
layerId = "42B3044F-4D5A-45CA-9EB7-C1889731596B";
paths = (
{
closed = 1;
nodes = (
"579 0 LINE",
"579 172 LINE",
"414 172 LINE",
"414 0 LINE"
);
}
);
width = 559;
}
);
},
{
glyphname = "alefMaksura-ar";
layers = (
{
anchors = (
{
name = bottom.a;
position = "{308, -190}";
},
{
name = bottom.hamza;
position = "{308, -190}";
},
{
name = bottom.mark;
position = "{308, -217}";
},
{
name = bottom.ring;
position = "{308, -100}";
},
{
name = top.a;
position = "{236, 336}";
},
{
name = top.hamza;
position = "{236, 336}";
},
{
name = top.kaf;
position = "{236, 336}";
},
{
name = top.mark;
position = "{236, 373}";
},
{
name = top.tail;
position = "{62, 187}";
}
);
layerId = master01;
paths = (
{
closed = 1;
nodes = (
"456 -100 LINE SMOOTH",
"523 -100 OFFCURVE",
"576.769 -31.193 OFFCURVE",
"530 25 CURVE SMOOTH",
"396 186 LINE",
"395.3 181.8 OFFCURVE",
"394.7 178.2 OFFCURVE",
"394 174 CURVE",
"553 174 LINE",
"553 252 LINE",
"426 252 LINE SMOOTH",
"347 251 OFFCURVE",
"305.066 174.055 OFFCURVE",
"358 110 CURVE SMOOTH",
"477 -34 LINE",
"476.65 -29.8 OFFCURVE",
"476.35 -26.2 OFFCURVE",
"476 -22 CURVE",
"233 -22 LINE SMOOTH",
"175 -22 OFFCURVE",
"125 2 OFFCURVE",
"125 64 CURVE SMOOTH",
"125 247 LINE",
"46 247 LINE",
"46 64 LINE SMOOTH",
"46 -57 OFFCURVE",
"152 -100 OFFCURVE",
"226 -100 CURVE SMOOTH"
);
}
);
width = 600;
},
{
anchors = (
{
name = bottom.a;
position = "{279, -184}";
},
{
name = bottom.hamza;
position = "{279, -184}";
},
{
name = bottom.mark;
position = "{279, -204}";
},
{
name = bottom.ring;
position = "{279, -94}";
},
{
name = top.a;
position = "{207, 342}";
},
{
name = top.hamza;
position = "{207, 342}";
},
{
name = top.kaf;
position = "{207, 342}";
},
{
name = top.mark;
position = "{207, 379}";
},
{
name = top.tail;
position = "{43, 174}";
}
);
layerId = "0CAB57D4-4FC4-49C3-B456-FB7666EAA712";
paths = (
{
closed = 1;
nodes = (
"427 -94 LINE SMOOTH",
"481 -92 OFFCURVE",
"513.284 -43.766 OFFCURVE",
"482 -6 CURVE SMOOTH",
"371 128 LINE SMOOTH",
"346 161 OFFCURVE",
"366 183 OFFCURVE",
"396 180 CURVE SMOOTH",
"504 180 LINE",
"504 212 LINE",
"396 212 LINE SMOOTH",
"341 212 OFFCURVE",
"303.956 159.963 OFFCURVE",
"347 108 CURVE SMOOTH",
"458 -26 LINE SMOOTH",
"471 -40 OFFCURVE",
"459 -62 OFFCURVE",
"427 -62 CURVE SMOOTH",
"197 -62 LINE SMOOTH",
"137 -59 OFFCURVE",
"72 -32 OFFCURVE",
"72 47 CURVE SMOOTH",
"72 209 LINE",
"40 209 LINE",
"40 47 LINE SMOOTH",
"40 -56 OFFCURVE",
"129 -94 OFFCURVE",
"197 -94 CURVE SMOOTH"
);
}
);
width = 544;
},
{
anchors = (
{
name = bottom.a;
position = "{399, -296}";
},
{
name = bottom.hamza;
position = "{399, -296}";
},
{
name = bottom.mark;
position = "{399, -331}";
},
{
name = bottom.ring;
position = "{399, -144}";
},
{
name = top.a;
position = "{277, 400}";
},
{
name = top.hamza;
position = "{277, 400}";
},
{
name = top.kaf;
position = "{277, 400}";
},
{
name = top.mark;
position = "{277, 444}";
},
{
name = top.tail;
position = "{104, 131}";
}
);
layerId = "42B3044F-4D5A-45CA-9EB7-C1889731596B";
paths = (
{
closed = 1;
nodes = (
"517 -144 LINE SMOOTH",
"626.896 -139.222 OFFCURVE",
"699.076 -29.937 OFFCURVE",
"624 61 CURVE SMOOTH",
"553 147 LINE",
"550.55 141.05 OFFCURVE",
"548.45 135.95 OFFCURVE",
"546 130 CURVE",
"654 130 LINE",
"654 302 LINE",
"486 302 LINE SMOOTH",
"371.203 308.833 OFFCURVE",
"301.839 181.868 OFFCURVE",
"383 83 CURVE SMOOTH",
"438 16 LINE",
"442.9 20.2 OFFCURVE",
"447.1 23.8 OFFCURVE",
"452 28 CURVE",
"287 28 LINE SMOOTH",
"246.075 30.48 OFFCURVE",
"232 41 OFFCURVE",
"232 67 CURVE SMOOTH",
"232 293 LINE",
"60 293 LINE",
"60 67 LINE SMOOTH",
"60 -89 OFFCURVE",
"200 -144 OFFCURVE",
"287 -144 CURVE SMOOTH"
);
}
);
width = 714;
}
);
unicode = 0649;
},
{
glyphname = "yehbarree-ar";
layers = (
{
anchors = (
{
name = bottom.a;
position = "{473, -297}";
},
{
name = bottom.mark;
position = "{473, -323}";
},
{
name = top.a;
position = "{413, 383}";
},
{
name = top.hamza;
position = "{413, 383}";
},
{
name = top.kaf;
position = "{413, 383}";
},
{
name = top.mark;
position = "{413, 420}";
}
);
layerId = master01;
paths = (
{
closed = 1;
nodes = (
"879 -198 LINE",
"879 -118 LINE",
"253 -118 LINE SMOOTH",
"163 -118 OFFCURVE",
"134 -84 OFFCURVE",
"127 -57 CURVE SMOOTH",
"119 -24 OFFCURVE",
"139 19 OFFCURVE",
"187 32 CURVE SMOOTH",
"309 64 OFFCURVE",
"321 144 OFFCURVE",
"330 158 CURVE SMOOTH",
"384 234 OFFCURVE",
"464 206 OFFCURVE",
"515 174 CURVE",
"557 240 LINE",
"500 276 OFFCURVE",
"359 334 OFFCURVE",
"267 202 CURVE SMOOTH",
"229 148 OFFCURVE",
"264 134 OFFCURVE",
"167 108 CURVE SMOOTH",
"80 85 OFFCURVE",
"30 2 OFFCURVE",
"51 -77 CURVE SMOOTH",
"70 -148 OFFCURVE",
"142 -198 OFFCURVE",
"253 -198 CURVE SMOOTH"
);
}
);
width = 925;
},
{
anchors = (
{
name = bottom.a;
position = "{444, -297}";
},
{
name = bottom.mark;
position = "{444, -317}";
},
{
name = top.a;
position = "{384, 338}";
},
{
name = top.hamza;
position = "{384, 338}";
},
{
name = top.kaf;
position = "{384, 338}";
},
{
name = top.mark;
position = "{384, 375}";
}
);
layerId = "0CAB57D4-4FC4-49C3-B456-FB7666EAA712";
paths = (
{
closed = 1;
nodes = (
"850 -197 LINE",
"850 -165 LINE",
"224 -165 LINE SMOOTH",
"128 -165 OFFCURVE",
"85 -126 OFFCURVE",
"75 -86 CURVE SMOOTH",
"63 -40 OFFCURVE",
"92 16 OFFCURVE",
"151 32 CURVE SMOOTH",
"266 62 OFFCURVE",
"264 122 OFFCURVE",
"282 148 CURVE SMOOTH",
"347 241 OFFCURVE",
"445 203 OFFCURVE",
"498 170 CURVE",
"515 198 LINE",
"460 233 OFFCURVE",
"337 281 OFFCURVE",
"256 166 CURVE SMOOTH",
"226 124 OFFCURVE",
"248 90 OFFCURVE",
"143 62 CURVE SMOOTH",
"68 42 OFFCURVE",
"27 -29 OFFCURVE",
"44 -94 CURVE SMOOTH",
"59 -152 OFFCURVE",
"119 -197 OFFCURVE",
"224 -197 CURVE SMOOTH"
);
}
);
width = 889;
},
{
anchors = (
{
name = bottom.a;
position = "{484, -297}";
},
{
name = bottom.mark;
position = "{484, -332}";
},
{
name = top.a;
position = "{424, 408}";
},
{
name = top.hamza;
position = "{424, 408}";
},
{
name = top.kaf;
position = "{424, 408}";
},
{
name = top.mark;
position = "{424, 452}";
}
);
layerId = "42B3044F-4D5A-45CA-9EB7-C1889731596B";
paths = (
{
closed = 1;
nodes = (
"940 -197 LINE",
"940 -25 LINE",
"314 -25 LINE SMOOTH",
"236 -25 OFFCURVE",
"233 2 OFFCURVE",
"233 2 CURVE",
"231 8 OFFCURVE",
"234 28 OFFCURVE",
"259 34 CURVE SMOOTH",
"389 68 OFFCURVE",
"425 169 OFFCURVE",
"430 178 CURVE",
"461 221 OFFCURVE",
"503 211 OFFCURVE",
"551 181 CURVE",
"643 327 LINE",
"593 358 OFFCURVE",
"463 415 OFFCURVE",
"354 342 CURVE SMOOTH",
"249 271 OFFCURVE",
"291 220 OFFCURVE",
"215 200 CURVE SMOOTH",
"105 171 OFFCURVE",
"38 63 OFFCURVE",
"66 -42 CURVE SMOOTH",
"92 -139 OFFCURVE",
"190 -197 OFFCURVE",
"314 -197 CURVE SMOOTH"
);
}
);
width = 1000;
}
);
unicode = 06D2;
},
{
glyphname = "yehbarree-ar.fina";
production = uni06D2.fina;
layers = (
{
anchors = (
{
name = bottom.a;
position = "{431, -372}";
},
{
name = bottom.mark;
position = "{431, -399}";
},
{
name = top.a;
position = "{411, 329}";
},
{
name = top.hamza;
position = "{411, 329}";
},
{
name = top.kaf;
position = "{411, 329}";
},
{
name = top.mark;
position = "{411, 367}";
}
);
layerId = master01;
paths = (
{
closed = 1;
nodes = (
"691 -276 LINE",
"691 -197 LINE",
"253 -197 LINE SMOOTH",
"163 -197 OFFCURVE",
"134 -162 OFFCURVE",
"127 -135 CURVE SMOOTH",
"119 -101 OFFCURVE",
"139 -58 OFFCURVE",
"187 -45 CURVE SMOOTH",
"309 -13 OFFCURVE",
"321 61 OFFCURVE",
"333 81 CURVE SMOOTH",
"349 108 OFFCURVE",
"369 127 OFFCURVE",
"403 128 CURVE SMOOTH",
"429 129 OFFCURVE",
"453 116 OFFCURVE",
"467 90 CURVE SMOOTH",
"500 28 OFFCURVE",
"553 0 OFFCURVE",
"617 0 CURVE SMOOTH",
"707 0 LINE",
"707 79 LINE",
"617 79 LINE SMOOTH",
"574 79 OFFCURVE",
"556 87 OFFCURVE",
"536 125 CURVE SMOOTH",
"509 177 OFFCURVE",
"457 207 OFFCURVE",
"405 207 CURVE SMOOTH",
"338 207 OFFCURVE",
"292 168 OFFCURVE",
"265 122 CURVE SMOOTH",
"234 70 OFFCURVE",
"264 56 OFFCURVE",
"167 31 CURVE SMOOTH",
"79 7 OFFCURVE",
"30 -77 OFFCURVE",
"51 -155 CURVE SMOOTH",
"70 -226 OFFCURVE",
"142 -276 OFFCURVE",
"253 -276 CURVE SMOOTH"
);
}
);
width = 691;
},
{
anchors = (
{
name = bottom.a;
position = "{330, -376}";
},
{
name = bottom.mark;
position = "{330, -396}";
},
{
name = top.a;
position = "{380, 319}";
},
{
name = top.hamza;
position = "{380, 319}";
},
{
name = top.kaf;
position = "{380, 319}";
},
{
name = top.mark;
position = "{380, 357}";
}
);
layerId = "0CAB57D4-4FC4-49C3-B456-FB7666EAA712";
paths = (
{
closed = 1;
nodes = (
"662 -276 LINE",
"662 -244 LINE",
"224 -244 LINE SMOOTH",
"128 -244 OFFCURVE",
"86 -205 OFFCURVE",
"75 -165 CURVE SMOOTH",
"63 -118 OFFCURVE",
"92 -62 OFFCURVE",
"151 -46 CURVE SMOOTH",
"266 -16 OFFCURVE",
"266 40 OFFCURVE",
"283 70 CURVE SMOOTH",
"303 103 OFFCURVE",
"333 130 OFFCURVE",
"379 128 CURVE SMOOTH",
"411 127 OFFCURVE",
"441 109 OFFCURVE",
"458 77 CURVE SMOOTH",
"487 22 OFFCURVE",
"530 0 OFFCURVE",
"588 0 CURVE SMOOTH",
"671 0 LINE",
"671 32 LINE",
"588 32 LINE SMOOTH",
"538 32 OFFCURVE",
"509 46 OFFCURVE",
"486 91 CURVE SMOOTH",
"463 134 OFFCURVE",
"422 159 OFFCURVE",
"379 160 CURVE SMOOTH",
"320 162 OFFCURVE",
"279 127 OFFCURVE",
"255 86 CURVE SMOOTH",
"230 44 OFFCURVE",
"248 12 OFFCURVE",
"143 -16 CURVE SMOOTH",
"68 -36 OFFCURVE",
"27 -108 OFFCURVE",
"44 -173 CURVE SMOOTH",
"59 -231 OFFCURVE",
"119 -276 OFFCURVE",
"224 -276 CURVE SMOOTH"
);
}
);
width = 661;
},
{
anchors = (
{
name = bottom.a;
position = "{484, -371}";
},
{
name = bottom.mark;
position = "{484, -406}";
},
{
name = top.a;
position = "{424, 334}";
},
{
name = top.hamza;
position = "{424, 334}";
},
{
name = top.kaf;
position = "{424, 334}";
},
{
name = top.mark;
position = "{424, 378}";
}
);
layerId = "42B3044F-4D5A-45CA-9EB7-C1889731596B";
paths = (
{
closed = 1;
nodes = (
"752 -276 LINE",
"752 -104 LINE",
"314 -104 LINE SMOOTH",
"237 -104 OFFCURVE",
"232 -77 OFFCURVE",
"232 -77 CURVE",
"230 -70 OFFCURVE",
"235 -50 OFFCURVE",
"259 -44 CURVE SMOOTH",
"396 -8 OFFCURVE",
"430 100 OFFCURVE",
"433 105 CURVE SMOOTH",
"442 120 OFFCURVE",
"449 126 OFFCURVE",
"462 128 CURVE SMOOTH",
"472 130 OFFCURVE",
"480 125 OFFCURVE",
"486 114 CURVE SMOOTH",
"526 37 OFFCURVE",
"591 0 OFFCURVE",
"698 0 CURVE SMOOTH",
"791 0 LINE",
"791 172 LINE",
"698 172 LINE SMOOTH",
"667 172 OFFCURVE",
"650 171 OFFCURVE",
"638 194 CURVE SMOOTH",
"602 263 OFFCURVE",
"533 301 OFFCURVE",
"462 300 CURVE SMOOTH",
"378 299 OFFCURVE",
"318 250 OFFCURVE",
"285 191 CURVE SMOOTH",
"266 157 OFFCURVE",
"257 132 OFFCURVE",
"215 122 CURVE SMOOTH",
"109 98 OFFCURVE",
"38 -16 OFFCURVE",
"66 -121 CURVE SMOOTH",
"92 -218 OFFCURVE",
"190 -276 OFFCURVE",
"314 -276 CURVE SMOOTH"
);
}
);
width = 771;
}
);
},
{
glyphname = "kashida-ar";
layers = (
{
anchors = (
{
name = bottom.a;
position = "{122, -109}";
},
{
name = bottom.hamza;
position = "{122, -109}";
},
{
name = bottom.mark;
position = "{126, -139}";
},
{
name = bottom.ring;
position = "{122, 0}";
},
{
name = top.a;
position = "{122, 314}";
},
{
name = top.hamza;
position = "{122, 314}";
},
{
name = top.mark;
position = "{122, 352}";
}
);
layerId = master01;
paths = (
{
closed = 1;
nodes = (
"269 0 LINE",
"269 79 LINE",
"0 79 LINE",
"0 0 LINE"
);
}
);
width = 253;
},
{
anchors = (
{
name = bottom.a;
position = "{122, -109}";
},
{
name = bottom.hamza;
position = "{122, -109}";
},
{
name = bottom.mark;
position = "{132, -139}";
},
{
name = bottom.ring;
position = "{122, 0}";
},
{
name = top.a;
position = "{122, 314}";
},
{
name = top.hamza;
position = "{122, 314}";
},
{
name = top.mark;
position = "{122, 352}";
}
);
layerId = "0CAB57D4-4FC4-49C3-B456-FB7666EAA712";
paths = (
{
closed = 1;
nodes = (
"250 0 LINE",
"250 32 LINE",
"0 32 LINE",
"0 0 LINE"
);
}
);
width = 240;
},
{
anchors = (
{
name = bottom.a;
position = "{122, -109}";
},
{
name = bottom.hamza;
position = "{122, -109}";
},
{
name = bottom.mark;
position = "{122, -139}";
},
{
name = bottom.ring;
position = "{122, 0}";
},
{
name = top.a;
position = "{122, 364}";
},
{
name = top.hamza;
position = "{122, 364}";
},
{
name = top.mark;
position = "{122, 402}";
}
);
layerId = "42B3044F-4D5A-45CA-9EB7-C1889731596B";
paths = (
{
closed = 1;
nodes = (
"300 0 LINE",
"300 172 LINE",
"0 172 LINE",
"0 0 LINE"
);
}
);
width = 280;
}
);
unicode = 0640;
},
{
glyphname = "decimalseparator-ar";
layers = (
{
layerId = master01;
paths = (
{
closed = 1;
nodes = (
"126 -153 LINE SMOOTH",
"198 -153 OFFCURVE",
"240 -94 OFFCURVE",
"240 -35 CURVE SMOOTH",
"240 91 LINE",
"181 91 LINE",
"181 -35 LINE SMOOTH",
"181 -71 OFFCURVE",
"160 -95 OFFCURVE",
"126 -95 CURVE SMOOTH",
"60 -95 LINE",
"60 -153 LINE"
);
}
);
width = 300;
},
{
layerId = "0CAB57D4-4FC4-49C3-B456-FB7666EAA712";
paths = (
{
closed = 1;
nodes = (
"110 -156 LINE SMOOTH",
"161 -156 OFFCURVE",
"171 -116 OFFCURVE",
"171 -94 CURVE SMOOTH",
"171 67 LINE",
"147 67 LINE",
"147 -94 LINE SMOOTH",
"147 -116 OFFCURVE",
"137 -132 OFFCURVE",
"110 -132 CURVE SMOOTH",
"60 -132 LINE",
"60 -156 LINE"
);
}
);
width = 231;
},
{
layerId = "42B3044F-4D5A-45CA-9EB7-C1889731596B";
paths = (
{
closed = 1;
nodes = (
"137 -211 LINE SMOOTH",
"236 -211 OFFCURVE",
"305 -130 OFFCURVE",
"305 -37 CURVE SMOOTH",
"305 132 LINE",
"176 132 LINE",
"176 -37 LINE SMOOTH",
"176 -67 OFFCURVE",
"158 -82 OFFCURVE",
"137 -82 CURVE SMOOTH",
"60 -82 LINE",
"60 -211 LINE"
);
}
);
width = 365;
}
);
unicode = 066B;
},
{
glyphname = "zero-ar";
layers = (
{
layerId = master01;
paths = (
{
closed = 1;
nodes = (
"190 268 OFFCURVE",
"217 296 OFFCURVE",
"217 329 CURVE SMOOTH",
"217 362 OFFCURVE",
"190 390 OFFCURVE",
"157 390 CURVE SMOOTH",
"123 390 OFFCURVE",
"96 362 OFFCURVE",
"96 329 CURVE SMOOTH",
"96 296 OFFCURVE",
"123 268 OFFCURVE",
"157 268 CURVE SMOOTH"
);
}
);
width = 314;
},
{
layerId = "0CAB57D4-4FC4-49C3-B456-FB7666EAA712";
paths = (
{
closed = 1;
nodes = (
"144.32 294 OFFCURVE",
"160 309.68 OFFCURVE",
"160 329 CURVE SMOOTH",
"160 348.32 OFFCURVE",
"144.32 364 OFFCURVE",
"125 364 CURVE SMOOTH",
"105.68 364 OFFCURVE",
"90 348.32 OFFCURVE",
"90 329 CURVE SMOOTH",
"90 309.68 OFFCURVE",
"105.68 294 OFFCURVE",
"125 294 CURVE SMOOTH"
);
}
);
width = 250;
},
{
layerId = "42B3044F-4D5A-45CA-9EB7-C1889731596B";
paths = (
{
closed = 1;
nodes = (
"305 229 OFFCURVE",
"350 274 OFFCURVE",
"350 329 CURVE SMOOTH",
"350 384 OFFCURVE",
"305 429 OFFCURVE",
"250 429 CURVE SMOOTH",
"195 429 OFFCURVE",
"150 384 OFFCURVE",
"150 329 CURVE SMOOTH",
"150 274 OFFCURVE",
"195 229 OFFCURVE",
"250 229 CURVE SMOOTH"
);
}
);
width = 500;
}
);
unicode = 0660;
},
{
glyphname = "one-ar";
layers = (
{
layerId = master01;
paths = (
{
closed = 1;
nodes = (
"175 0 LINE",
"175 646 LINE",
"96 646 LINE",
"96 0 LINE"
);
}
);
width = 271;
},
{
layerId = "0CAB57D4-4FC4-49C3-B456-FB7666EAA712";
paths = (
{
closed = 1;
nodes = (
"122 0 LINE",
"122 624 LINE",
"90 624 LINE",
"90 0 LINE"
);
}
);
width = 212;
},
{
layerId = "42B3044F-4D5A-45CA-9EB7-C1889731596B";
paths = (
{
closed = 1;
nodes = (
"322 0 LINE",
"322 624 LINE",
"150 624 LINE",
"150 0 LINE"
);
}
);
width = 472;
}
);
unicode = 0661;
},
{
glyphname = "two-ar";
layers = (
{
layerId = master01;
paths = (
{
closed = 1;
nodes = (
"121 0 LINE",
"121 576 LINE",
"117.5 572.5 OFFCURVE",
"114.5 569.5 OFFCURVE",
"111 566 CURVE",
"338 566 LINE",
"338 645 LINE",
"135 645 LINE SMOOTH",
"85 645 OFFCURVE",
"43 606 OFFCURVE",
"43 553 CURVE SMOOTH",
"43 0 LINE"
);
}
);
width = 380;
},
{
layerId = "0CAB57D4-4FC4-49C3-B456-FB7666EAA712";
paths = (
{
closed = 1;
nodes = (
"62 0 LINE",
"62 554 LINE SMOOTH",
"62 576.69 OFFCURVE",
"78.049 592 OFFCURVE",
"98 592 CURVE SMOOTH",
"302 592 LINE",
"302 624 LINE",
"98 624 LINE SMOOTH",
"59.951 624 OFFCURVE",
"30 593.31 OFFCURVE",
"30 554 CURVE SMOOTH",
"30 0 LINE"
);
}
);
width = 332;
},
{
layerId = "42B3044F-4D5A-45CA-9EB7-C1889731596B";
paths = (
{
closed = 1;
nodes = (
"262 0 LINE",
"262 472 LINE",
"255 465 OFFCURVE",
"249 459 OFFCURVE",
"242 452 CURVE",
"452 452 LINE",
"452 624 LINE",
"229 624 LINE SMOOTH",
"153 624 OFFCURVE",
"90 562 OFFCURVE",
"90 486 CURVE SMOOTH",
"90 0 LINE"
);
}
);
width = 542;
}
);
unicode = 0662;
},
{
glyphname = "three-ar";
layers = (
{
layerId = master01;
paths = (
{
closed = 1;
nodes = (
"121 0 LINE",
"121 647 LINE",
"43 647 LINE",
"43 0 LINE"
);
},
{
closed = 1;
nodes = (
"212 386 LINE SMOOTH",
"263 386 OFFCURVE",
"305 425 OFFCURVE",
"305 477 CURVE SMOOTH",
"305 647 LINE",
"226 647 LINE",
"226 455 LINE",
"229.5 458.5 OFFCURVE",
"232.5 461.5 OFFCURVE",
"236 465 CURVE",
"114 465 LINE",
"114 386 LINE"
);
},
{
closed = 1;
nodes = (
"396 386 LINE SMOOTH",
"447 386 OFFCURVE",
"489 425 OFFCURVE",
"489 477 CURVE SMOOTH",
"489 647 LINE",
"410 647 LINE",
"410 455 LINE",
"413.5 458.5 OFFCURVE",
"416.5 461.5 OFFCURVE",
"420 465 CURVE",
"300 465 LINE",
"300 386 LINE"
);
}
);
width = 531;
},
{
layerId = "0CAB57D4-4FC4-49C3-B456-FB7666EAA712";
paths = (
{
closed = 1;
nodes = (
"62 0 LINE",
"62 624 LINE",
"30 624 LINE",
"30 0 LINE"
);
},
{
closed = 1;
nodes = (
"177 409 LINE SMOOTH",
"216.596 409 OFFCURVE",
"246 439.362 OFFCURVE",
"246 477 CURVE SMOOTH",
"246 624 LINE",
"214 624 LINE",
"214 477 LINE SMOOTH",
"214 456.638 OFFCURVE",
"199.404 441 OFFCURVE",
"177 441 CURVE SMOOTH",
"47 441 LINE",
"47 409 LINE"
);
},
{
closed = 1;
nodes = (
"361 409 LINE SMOOTH",
"400.596 409 OFFCURVE",
"430 439.362 OFFCURVE",
"430 477 CURVE SMOOTH",
"430 624 LINE",
"398 624 LINE",
"398 477 LINE SMOOTH",
"398 456.638 OFFCURVE",
"383.404 441 OFFCURVE",
"361 441 CURVE SMOOTH",
"238 441 LINE",
"238 409 LINE"
);
}
);
width = 460;
},
{
layerId = "42B3044F-4D5A-45CA-9EB7-C1889731596B";
paths = (
{
closed = 1;
nodes = (
"262 0 LINE",
"262 624 LINE",
"90 624 LINE",
"90 0 LINE"
);
},
{
closed = 1;
nodes = (
"337 303 LINE SMOOTH",
"413 303 OFFCURVE",
"476 365 OFFCURVE",
"476 441 CURVE SMOOTH",
"476 624 LINE",
"304 624 LINE",
"304 455 LINE",
"311 462 OFFCURVE",
"317 468 OFFCURVE",
"324 475 CURVE",
"225 475 LINE",
"225 303 LINE"
);
},
{
closed = 1;
nodes = (
"551 303 LINE SMOOTH",
"627 303 OFFCURVE",
"690 365 OFFCURVE",
"690 441 CURVE SMOOTH",
"690 624 LINE",
"518 624 LINE",
"518 455 LINE",
"525 462 OFFCURVE",
"531 468 OFFCURVE",
"538 475 CURVE",
"459 475 LINE",
"459 303 LINE"
);
}
);
width = 780;
}
);
unicode = 0663;
},
{
glyphname = "four-ar";
layers = (
{
layerId = master01;
paths = (
{
closed = 1;
nodes = (
"394 78 LINE",
"118 79 LINE",
"118 75.5 OFFCURVE",
"118 72.5 OFFCURVE",
"118 69 CURVE",
"270 288 LINE SMOOTH",
"285.975 311.017 OFFCURVE",
"287.052 343.076 OFFCURVE",
"261 361 CURVE SMOOTH",
"136 447 LINE",
"137.05 444.2 OFFCURVE",
"137.95 441.8 OFFCURVE",
"139 439 CURVE",
"307 563 LINE",
"261 627 LINE",
"104 511 LINE SMOOTH",
"55 475 OFFCURVE",
"36 420 OFFCURVE",
"97 379 CURVE SMOOTH",
"192 313 LINE",
"81 153 LINE SMOOTH",
"67 134 OFFCURVE",
"43 102 OFFCURVE",
"43 62 CURVE SMOOTH",
"43 27 OFFCURVE",
"75 1 OFFCURVE",
"111 1 CURVE SMOOTH",
"394 0 LINE"
);
}
);
width = 436;
},
{
layerId = "0CAB57D4-4FC4-49C3-B456-FB7666EAA712";
paths = (
{
closed = 1;
nodes = (
"357.894 32 LINE",
"86.865 33 LINE SMOOTH",
"49.314 33.139 OFFCURVE",
"74.235 75.83 OFFCURVE",
"89.919 97.787 CURVE SMOOTH",
"223.979 290.875 LINE SMOOTH",
"229.027 298.145 OFFCURVE",
"227.058 308.265 OFFCURVE",
"219.901 313.185 CURVE SMOOTH",
"91.901 401.185 LINE SMOOTH",
"65.758 419.158 OFFCURVE",
"83.089 430.634 OFFCURVE",
"100.283 443.086 CURVE SMOOTH",
"257.345 559.132 LINE",
"238.329 584.868 LINE",
"81.391 468.914 LINE SMOOTH",
"46.305 443.508 OFFCURVE",
"20.942 411.209 OFFCURVE",
"73.772 374.815 CURVE SMOOTH",
"188.527 295.922 LINE",
"63.755 116.213 LINE SMOOTH",
"51.315 98.798 OFFCURVE",
"30.03 67.889 OFFCURVE",
"30 39.465 CURVE SMOOTH",
"29.977 17.182 OFFCURVE",
"47.641 1 OFFCURVE",
"74.78 1 CURVE SMOOTH",
"357.78 0 LINE"
);
}
);
width = 387;
},
{
layerId = "42B3044F-4D5A-45CA-9EB7-C1889731596B";
paths = (
{
closed = 1;
nodes = (
"488 172 LINE",
"289 172 LINE",
"290.75 165 OFFCURVE",
"292.25 159 OFFCURVE",
"294 152 CURVE",
"412 321 LINE SMOOTH",
"439 360 OFFCURVE",
"428 415 OFFCURVE",
"390 441 CURVE SMOOTH",
"305 499 LINE",
"303.6 492 OFFCURVE",
"302.4 486 OFFCURVE",
"301 479 CURVE",
"429 573 LINE",
"327 711 LINE",
"170 595 LINE SMOOTH",
"91 536 OFFCURVE",
"93 436 OFFCURVE",
"164 387 CURVE SMOOTH",
"221 348 LINE",
"137 226 LINE SMOOTH",
"123 206 OFFCURVE",
"90 172 OFFCURVE",
"90 110 CURVE SMOOTH",
"90 47 OFFCURVE",
"152 0 OFFCURVE",
"205 0 CURVE SMOOTH",
"488 0 LINE"
);
}
);
width = 578;
}
);
unicode = 0664;
},
{
glyphname = "five-ar";
layers = (
{
layerId = master01;
paths = (
{
closed = 1;
nodes = (
"442 -12 OFFCURVE",
"494 119 OFFCURVE",
"493 243 CURVE SMOOTH",
"492 379 OFFCURVE",
"432 534 OFFCURVE",
"346 588 CURVE SMOOTH",
"296 618 OFFCURVE",
"236 616 OFFCURVE",
"186 584 CURVE SMOOTH",
"110 534 OFFCURVE",
"45 387 OFFCURVE",
"43 251 CURVE SMOOTH",
"40 100 OFFCURVE",
"104 -13 OFFCURVE",
"270 -12 CURVE SMOOTH"
);
},
{
closed = 1;
nodes = (
"160 66 OFFCURVE",
"121 141 OFFCURVE",
"125 247 CURVE SMOOTH",
"128 358 OFFCURVE",
"180 486 OFFCURVE",
"229 518 CURVE SMOOTH",
"256 536 OFFCURVE",
"280 536 OFFCURVE",
"305 520 CURVE SMOOTH",
"351 492 OFFCURVE",
"414 361 OFFCURVE",
"415 243 CURVE SMOOTH",
"415 139 OFFCURVE",
"378 66 OFFCURVE",
"269 66 CURVE SMOOTH"
);
}
);
width = 535;
},
{
layerId = "0CAB57D4-4FC4-49C3-B456-FB7666EAA712";
paths = (
{
closed = 1;
nodes = (
"381.396 -10.974 OFFCURVE",
"433.72 101.806 OFFCURVE",
"432.798 220.046 CURVE SMOOTH",
"431.778 350.681 OFFCURVE",
"370.976 499.025 OFFCURVE",
"296.9 544.655 CURVE SMOOTH",
"253.793 570.747 OFFCURVE",
"204.495 569.477 OFFCURVE",
"161.769 541.366 CURVE SMOOTH",
"92.606 496.014 OFFCURVE",
"30.598 350.81 OFFCURVE",
"30.004 220.1 CURVE SMOOTH",
"29.392 85.178 OFFCURVE",
"94.004 -12.956 OFFCURVE",
"232.673 -12 CURVE SMOOTH"
);
},
{
closed = 1;
nodes = (
"117.91 19.153 OFFCURVE",
"61.581 102.792 OFFCURVE",
"63.277 220.1 CURVE SMOOTH",
"65.009 339.857 OFFCURVE",
"121.431 476.649 OFFCURVE",
"179.356 514.634 CURVE SMOOTH",
"212.63 536.523 OFFCURVE",
"247.315 537.263 OFFCURVE",
"280.225 517.345 CURVE SMOOTH",
"337.833 481.857 OFFCURVE",
"399.836 343.218 OFFCURVE",
"400.799 219.796 CURVE SMOOTH",
"401.657 109.771 OFFCURVE",
"358.224 20.93 OFFCURVE",
"232.452 20 CURVE SMOOTH"
);
}
);
width = 462;
},
{
layerId = "42B3044F-4D5A-45CA-9EB7-C1889731596B";
paths = (
{
closed = 1;
nodes = (
"565 -31 OFFCURVE",
"637 135 OFFCURVE",
"636 271 CURVE SMOOTH",
"635 417 OFFCURVE",
"576 586 OFFCURVE",
"466 654 CURVE SMOOTH",
"401 694 OFFCURVE",
"319 692 OFFCURVE",
"256 650 CURVE SMOOTH",
"162 588 OFFCURVE",
"87 422 OFFCURVE",
"90 267 CURVE SMOOTH",
"93 96 OFFCURVE",
"193 -33 OFFCURVE",
"366 -32 CURVE SMOOTH"
);
},
{
closed = 1;
nodes = (
"279 139 OFFCURVE",
"265 192 OFFCURVE",
"269 271 CURVE SMOOTH",
"274 366 OFFCURVE",
"318 484 OFFCURVE",
"351 506 CURVE SMOOTH",
"364 514 OFFCURVE",
"367 514 OFFCURVE",
"377 508 CURVE SMOOTH",
"401 493 OFFCURVE",
"463 375 OFFCURVE",
"464 269 CURVE SMOOTH",
"465 177 OFFCURVE",
"441 141 OFFCURVE",
"365 140 CURVE SMOOTH"
);
}
);
width = 725;
}
);
unicode = 0665;
},
{
glyphname = "six-ar";
layers = (
{
layerId = master01;
paths = (
{
closed = 1;
nodes = (
"401 0 LINE",
"401 553 LINE SMOOTH",
"401 605 OFFCURVE",
"359 644 OFFCURVE",
"309 644 CURVE SMOOTH",
"43 644 LINE",
"43 566 LINE",
"333 566 LINE",
"329.5 569.5 OFFCURVE",
"326.5 572.5 OFFCURVE",
"323 576 CURVE",
"323 0 LINE"
);
}
);
width = 444;
},
{
layerId = "0CAB57D4-4FC4-49C3-B456-FB7666EAA712";
paths = (
{
closed = 1;
nodes = (
"366 0 LINE",
"366 554 LINE SMOOTH",
"366 593.31 OFFCURVE",
"336.049 624 OFFCURVE",
"298 624 CURVE SMOOTH",
"30 624 LINE",
"30 592 LINE",
"298 592 LINE SMOOTH",
"317.951 592 OFFCURVE",
"334 576.69 OFFCURVE",
"334 554 CURVE SMOOTH",
"334 0 LINE"
);
}
);
width = 396;
},
{
layerId = "42B3044F-4D5A-45CA-9EB7-C1889731596B";
paths = (
{
closed = 1;
nodes = (
"496 0 LINE",
"496 485 LINE SMOOTH",
"496 561 OFFCURVE",
"433 623 OFFCURVE",
"357 623 CURVE SMOOTH",
"90 623 LINE",
"90 451 LINE",
"344 451 LINE",
"337 458 OFFCURVE",
"331 464 OFFCURVE",
"324 471 CURVE",
"324 0 LINE"
);
}
);
width = 586;
}
);
unicode = 0666;
},
{
glyphname = "seven-ar";
layers = (
{
layerId = master01;
paths = (
{
closed = 1;
nodes = (
"324 -4 OFFCURVE",
"348 15 OFFCURVE",
"355 41 CURVE SMOOTH",
"506 619 LINE",
"430 639 LINE",
"288 94 LINE",
"292 92 OFFCURVE",
"289 92 OFFCURVE",
"293 94 CURVE",
"118 641 LINE",
"43 617 LINE",
"228 40 LINE SMOOTH",
"237 11 OFFCURVE",
"265 -5 OFFCURVE",
"291 -5 CURVE SMOOTH"
);
}
);
width = 548;
},
{
layerId = "0CAB57D4-4FC4-49C3-B456-FB7666EAA712";
paths = (
{
closed = 1;
nodes = (
"276.492 4.034 OFFCURVE",
"292.633 13.438 OFFCURVE",
"296.719 28.95 CURVE SMOOTH",
"448.719 609.95 LINE",
"417.76 618.05 LINE",
"267.109 40.388 LINE",
"265.938 34.38 OFFCURVE",
"248.275 34.502 OFFCURVE",
"245.844 39.858 CURVE",
"60.477 618.878 LINE",
"30 609.122 LINE",
"216 28.122 LINE SMOOTH",
"221.688 10.318 OFFCURVE",
"243.26 2.73 OFFCURVE",
"258.738 3.338 CURVE SMOOTH"
);
}
);
width = 478;
},
{
layerId = "42B3044F-4D5A-45CA-9EB7-C1889731596B";
paths = (
{
closed = 1;
nodes = (
"437 -27 OFFCURVE",
"479 3 OFFCURVE",
"491 49 CURVE SMOOTH",
"643 630 LINE",
"477 674 LINE",
"365 247 LINE",
"374.45 247 OFFCURVE",
"382.55 247 OFFCURVE",
"392 247 CURVE",
"254 678 LINE",
"90 626 LINE",
"276 45 LINE SMOOTH",
"293 -9 OFFCURVE",
"338 -29 OFFCURVE",
"387 -28 CURVE SMOOTH"
);
}
);
width = 733;
}
);
unicode = 0667;
},
{
glyphname = "nine-ar";
layers = (
{
layerId = master01;
paths = (
{
closed = 1;
nodes = (
"401 0 LINE",
"401 479 LINE SMOOTH",
"401 515 OFFCURVE",
"392 548 OFFCURVE",
"375 573 CURVE SMOOTH",
"317 662 OFFCURVE",
"192 665 OFFCURVE",
"126 621 CURVE",
"54 580 OFFCURVE",
"11 470 OFFCURVE",
"70 376 CURVE SMOOTH",
"135 275 OFFCURVE",
"257 300 OFFCURVE",
"348 300 CURVE",
"348 379 LINE",
"240 379 OFFCURVE",
"175 365 OFFCURVE",
"137 418 CURVE",
"103 476 OFFCURVE",
"132 535 OFFCURVE",
"167 554 CURVE SMOOTH",
"202 576 OFFCURVE",
"278 576 OFFCURVE",
"308 532 CURVE SMOOTH",
"317 519 OFFCURVE",
"323 503 OFFCURVE",
"323 479 CURVE SMOOTH",
"323 0 LINE"
);
}
);
width = 443;
},
{
layerId = "0CAB57D4-4FC4-49C3-B456-FB7666EAA712";
paths = (
{
closed = 1;
nodes = (
"341.912 0 LINE",
"341.912 485 LINE SMOOTH",
"341.912 518.224 OFFCURVE",
"333.223 546.089 OFFCURVE",
"318.474 568.069 CURVE SMOOTH",
"268.551 642.468 OFFCURVE",
"158.021 645.255 OFFCURVE",
"102.534 607.661 CURVE",
"40.168 572.96 OFFCURVE",
"3.093 474.442 OFFCURVE",
"54.255 394.664 CURVE SMOOTH",
"113.276 302.632 OFFCURVE",
"254.092 325.371 OFFCURVE",
"325.912 329.861 CURVE",
"325.912 361.874 LINE",
"249.323 357.086 OFFCURVE",
"129.053 344.053 OFFCURVE",
"81.326 411.733 CURVE",
"40.182 480.151 OFFCURVE",
"72.146 555.02 OFFCURVE",
"118.482 579.904 CURVE SMOOTH",
"163.528 604.096 OFFCURVE",
"249.587 611.378 OFFCURVE",
"291.115 551.392 CURVE SMOOTH",
"302.572 534.843 OFFCURVE",
"309.912 513.334 OFFCURVE",
"309.912 485 CURVE SMOOTH",
"309.912 0 LINE"
);
}
);
width = 371;
},
{
layerId = "42B3044F-4D5A-45CA-9EB7-C1889731596B";
paths = (
{
closed = 1;
nodes = (
"543 0 LINE",
"543 455 LINE SMOOTH",
"543 499 OFFCURVE",
"531 539 OFFCURVE",
"510 573 CURVE SMOOTH",
"435 690 OFFCURVE",
"282 692 OFFCURVE",
"197 637 CURVE",
"103 583 OFFCURVE",
"51 445 OFFCURVE",
"126 328 CURVE SMOOTH",
"201 210 OFFCURVE",
"338 226 OFFCURVE",
"441 236 CURVE",
"441 408 LINE",
"311.459 397.587 OFFCURVE",
"285.602 399.503 OFFCURVE",
"271 420 CURVE SMOOTH",
"252.593 445.838 OFFCURVE",
"266 474.203 OFFCURVE",
"278.166 486.368 CURVE SMOOTH",
"298.431 506.634 OFFCURVE",
"326.256 502.787 OFFCURVE",
"345.235 494.088 CURVE SMOOTH",
"356.815 488.781 OFFCURVE",
"371 471 OFFCURVE",
"371 455 CURVE SMOOTH",
"371 0 LINE"
);
}
);
width = 633;
}
);
unicode = 0669;
},
{
glyphname = "four-persian";
layers = (
{
layerId = master01;
paths = (
{
closed = 1;
nodes = (
"121 0 LINE",
"121 647 LINE",
"43 647 LINE",
"43 0 LINE"
);
},
{
closed = 1;
nodes = (
"439 386 LINE",
"439 465 LINE",
"114 465 LINE",
"114 386 LINE"
);
},
{
closed = 1;
nodes = (
"312 386 LINE",
"312 543 LINE SMOOTH",
"312 565 OFFCURVE",
"316 568 OFFCURVE",
"339 568 CURVE SMOOTH",
"425 568 LINE",
"425 647 LINE",
"352 647 LINE SMOOTH",
"286 647 OFFCURVE",
"232 597 OFFCURVE",
"234 531 CURVE SMOOTH",
"234 386 LINE"
);
}
);
width = 482;
},
{
layerId = "0CAB57D4-4FC4-49C3-B456-FB7666EAA712";
paths = (
{
closed = 1;
nodes = (
"62 0 LINE",
"62 624 LINE",
"30 624 LINE",
"30 0 LINE"
);
},
{
closed = 1;
nodes = (
"414 409 LINE",
"414 441 LINE",
"47 441 LINE",
"47 409 LINE"
);
},
{
closed = 1;
nodes = (
"246 409 LINE",
"246 486 LINE SMOOTH",
"246 546 OFFCURVE",
"291 592 OFFCURVE",
"353 592 CURVE SMOOTH",
"413 592 LINE",
"413 624 LINE",
"353 624 LINE SMOOTH",
"273 624 OFFCURVE",
"214 564 OFFCURVE",
"214 486 CURVE SMOOTH",
"214 409 LINE"
);
}
);
width = 444;
},
{
layerId = "42B3044F-4D5A-45CA-9EB7-C1889731596B";
paths = (
{
closed = 1;
nodes = (
"262 0 LINE",
"262 624 LINE",
"90 624 LINE",
"90 0 LINE"
);
},
{
closed = 1;
nodes = (
"690 303 LINE",
"690 475 LINE",
"225 475 LINE",
"225 303 LINE"
);
},
{
closed = 1;
nodes = (
"541 393 LINE",
"541 562 LINE",
"534 555 OFFCURVE",
"528 549 OFFCURVE",
"521 542 CURVE",
"640 542 LINE",
"640 714 LINE",
"508 714 LINE SMOOTH",
"432 714 OFFCURVE",
"369 652 OFFCURVE",
"369 576 CURVE SMOOTH",
"369 393 LINE"
);
}
);
width = 780;
}
);
unicode = 06F4;
},
{
glyphname = "four-persian.urdu";
layers = (
{
layerId = master01;
paths = (
{
closed = 1;
nodes = (
"121 0 LINE",
"121 505 LINE SMOOTH",
"121 532 OFFCURVE",
"147 568 OFFCURVE",
"186 568 CURVE",
"254 568 LINE",
"254 401 LINE",
"332 401 LINE",
"332 506 LINE SMOOTH",
"332 533 OFFCURVE",
"358 568 OFFCURVE",
"391 568 CURVE SMOOTH",
"455 568 LINE",
"455 647 LINE",
"392 647 LINE SMOOTH",
"349 647 OFFCURVE",
"317 629 OFFCURVE",
"293 603 CURVE",
"293 647 LINE",
"187 647 LINE",
"104 647 OFFCURVE",
"43 577 OFFCURVE",
"43 506 CURVE SMOOTH",
"43 0 LINE"
);
}
);
width = 498;
},
{
layerId = "0CAB57D4-4FC4-49C3-B456-FB7666EAA712";
paths = (
{
closed = 1;
nodes = (
"62 -1 LINE",
"62 486 LINE SMOOTH",
"62 546 OFFCURVE",
"107 592 OFFCURVE",
"169 592 CURVE",
"246 592 LINE",
"246 409 LINE",
"278 409 LINE",
"278 486 LINE SMOOTH",
"278 546 OFFCURVE",
"323 592 OFFCURVE",
"385 592 CURVE SMOOTH",
"445 592 LINE",
"445 624 LINE",
"385 624 LINE SMOOTH",
"340 624 OFFCURVE",
"302 606 OFFCURVE",
"277 575 CURVE",
"277 624 LINE",
"169 624 LINE",
"89 624 OFFCURVE",
"30 564 OFFCURVE",
"30 486 CURVE SMOOTH",
"30 -1 LINE"
);
}
);
width = 475;
},
{
layerId = "42B3044F-4D5A-45CA-9EB7-C1889731596B";
paths = (
{
closed = 1;
nodes = (
"262 0 LINE",
"262 472 LINE",
"255.048 465 OFFCURVE",
"249.089 459 OFFCURVE",
"242.136 452 CURVE",
"369 452 LINE",
"369 303 LINE",
"541 303 LINE",
"541 472 LINE",
"534 465 OFFCURVE",
"528 459 OFFCURVE",
"521 452 CURVE",
"640 452 LINE",
"640 624 LINE",
"508 624 LINE SMOOTH",
"432 624 OFFCURVE",
"369 562 OFFCURVE",
"369 486 CURVE",
"369 624 LINE",
"229 624 LINE",
"153 624 OFFCURVE",
"90 562 OFFCURVE",
"90 486 CURVE SMOOTH",
"90 0 LINE"
);
}
);
width = 730;
}
);
},
{
glyphname = "five-persian";
layers = (
{
layerId = master01;
paths = (
{
closed = 1;
nodes = (
"198 1 OFFCURVE",
"231 10 OFFCURVE",
"270 37 CURVE",
"306 11 OFFCURVE",
"338 0 OFFCURVE",
"364 0 CURVE SMOOTH",
"462 0 OFFCURVE",
"494 146 OFFCURVE",
"493 243 CURVE SMOOTH",
"492 379 OFFCURVE",
"432 534 OFFCURVE",
"346 588 CURVE SMOOTH",
"296 618 OFFCURVE",
"236 616 OFFCURVE",
"186 584 CURVE SMOOTH",
"110 534 OFFCURVE",
"45 387 OFFCURVE",
"43 251 CURVE SMOOTH",
"41 135 OFFCURVE",
"78 0 OFFCURVE",
"170 0 CURVE SMOOTH"
);
},
{
closed = 1;
nodes = (
"140 95 OFFCURVE",
"122 174 OFFCURVE",
"125 247 CURVE SMOOTH",
"128 358 OFFCURVE",
"180 486 OFFCURVE",
"229 518 CURVE SMOOTH",
"256 536 OFFCURVE",
"280 536 OFFCURVE",
"305 520 CURVE SMOOTH",
"351 492 OFFCURVE",
"414 361 OFFCURVE",
"415 243 CURVE SMOOTH",
"415 169 OFFCURVE",
"397 92 OFFCURVE",
"347 85 CURVE SMOOTH",
"327 82 OFFCURVE",
"301 91 OFFCURVE",
"269 116 CURVE",
"236 89 OFFCURVE",
"209 79 OFFCURVE",
"188 84 CURVE SMOOTH"
);
}
);
width = 535;
},
{
layerId = "0CAB57D4-4FC4-49C3-B456-FB7666EAA712";
paths = (
{
closed = 1;
nodes = (
"171.059 0.142 OFFCURVE",
"199.11 8.446 OFFCURVE",
"232 35 CURVE",
"264.791 9.209 OFFCURVE",
"293.559 0.327 OFFCURVE",
"317.45 0.19 CURVE SMOOTH",
"401.88 -0.296 OFFCURVE",
"433.516 127.876 OFFCURVE",
"432.798 220.046 CURVE SMOOTH",
"431.778 350.681 OFFCURVE",
"370.976 499.025 OFFCURVE",
"296.9 544.655 CURVE SMOOTH",
"253.793 570.747 OFFCURVE",
"204.495 569.477 OFFCURVE",
"161.769 541.366 CURVE SMOOTH",
"92.606 496.014 OFFCURVE",
"30.598 350.81 OFFCURVE",
"30.004 220.1 CURVE SMOOTH",
"29.537 117.179 OFFCURVE",
"67.023 0.17 OFFCURVE",
"146.383 0.149 CURVE SMOOTH"
);
},
{
closed = 1;
nodes = (
"294.108 32.898 OFFCURVE",
"266.254 44.718 OFFCURVE",
"232.452 70 CURVE",
"196.906 41.807 OFFCURVE",
"166.966 30.271 OFFCURVE",
"142.627 36.791 CURVE SMOOTH",
"88.537 51.282 OFFCURVE",
"62.107 139.197 OFFCURVE",
"63.277 220.1 CURVE SMOOTH",
"65.009 339.857 OFFCURVE",
"121.431 476.649 OFFCURVE",
"179.356 514.634 CURVE SMOOTH",
"212.63 536.523 OFFCURVE",
"247.315 537.263 OFFCURVE",
"280.225 517.345 CURVE SMOOTH",
"337.833 481.857 OFFCURVE",
"399.836 343.218 OFFCURVE",
"400.799 219.796 CURVE SMOOTH",
"401.427 139.34 OFFCURVE",
"378.37 43.15 OFFCURVE",
"316.754 35.653 CURVE SMOOTH"
);
}
);
width = 462;
},
{
layerId = "42B3044F-4D5A-45CA-9EB7-C1889731596B";
paths = (
{
closed = 1;
nodes = (
"296.852 -6.045 OFFCURVE",
"325.947 2.302 OFFCURVE",
"366 28 CURVE",
"402.312 5.09 OFFCURVE",
"423.915 -5.272 OFFCURVE",
"467.2 -5.472 CURVE SMOOTH",
"590.019 -6.043 OFFCURVE",
"636.807 161.183 OFFCURVE",
"636 271 CURVE SMOOTH",
"635 417 OFFCURVE",
"576 586 OFFCURVE",
"466 654 CURVE SMOOTH",
"401 694 OFFCURVE",
"319 692 OFFCURVE",
"256 650 CURVE SMOOTH",
"162 588 OFFCURVE",
"87 422 OFFCURVE",
"90 267 CURVE SMOOTH",
"92.305 135.59 OFFCURVE",
"151.895 -6.476 OFFCURVE",
"257.879 -6.161 CURVE SMOOTH"
);
},
{
closed = 1;
nodes = (
"411.699 152.223 OFFCURVE",
"391.514 165.462 OFFCURVE",
"365 200 CURVE",
"331.81 161.022 OFFCURVE",
"309.344 150.937 OFFCURVE",
"294.498 157.791 CURVE SMOOTH",
"270.875 168.697 OFFCURVE",
"266.544 222.488 OFFCURVE",
"269 271 CURVE SMOOTH",
"274 366 OFFCURVE",
"318 484 OFFCURVE",
"351 506 CURVE SMOOTH",
"364 514 OFFCURVE",
"367 514 OFFCURVE",
"377 508 CURVE SMOOTH",
"401 493 OFFCURVE",
"463 375 OFFCURVE",
"464 269 CURVE SMOOTH",
"464.651 209.096 OFFCURVE",
"454.703 155.975 OFFCURVE",
"426.702 153.532 CURVE SMOOTH"
);
}
);
width = 725;
}
);
unicode = 06F5;
},
{
glyphname = "six-persian";
layers = (
{
layerId = master01;
paths = (
{
closed = 1;
nodes = (
"405 375 LINE",
"335 416 LINE",
"102 142 LINE SMOOTH",
"87 125 OFFCURVE",
"61 100 OFFCURVE",
"55 63 CURVE SMOOTH",
"51 37 OFFCURVE",
"67 14 OFFCURVE",
"86 4 CURVE"
);
},
{
closed = 1;
nodes = (
"282 347 LINE",
"182 431 OFFCURVE",
"191 478 OFFCURVE",
"201 489 CURVE SMOOTH",
"210 500 OFFCURVE",
"244 514 OFFCURVE",
"304 505 CURVE SMOOTH",
"317 503 OFFCURVE",
"332 499 OFFCURVE",
"349 494 CURVE",
"370 571 LINE",
"351 575 OFFCURVE",
"333 580 OFFCURVE",
"315 582 CURVE SMOOTH",
"244 593 OFFCURVE",
"178 583 OFFCURVE",
"141 539 CURVE SMOOTH",
"82 470 OFFCURVE",
"129 371 OFFCURVE",
"230 286 CURVE"
);
}
);
width = 458;
},
{
layerId = "0CAB57D4-4FC4-49C3-B456-FB7666EAA712";
paths = (
{
closed = 1;
nodes = (
"340.327 336.785 LINE",
"317.76 360.293 LINE",
"84.507 92.961 LINE SMOOTH",
"70.437 76.835 OFFCURVE",
"53.94 58.303 OFFCURVE",
"49.552 36.606 CURVE SMOOTH",
"46.417 21.109 OFFCURVE",
"53.835 9.929 OFFCURVE",
"58.171 7.439 CURVE"
);
},
{
closed = 1;
nodes = (
"232.753 253.27 LINE",
"132.717 337.708 OFFCURVE",
"125.04 400.239 OFFCURVE",
"148.792 428.343 CURVE SMOOTH",
"166.327 449.639 OFFCURVE",
"210.139 462.071 OFFCURVE",
"273.748 452.753 CURVE SMOOTH",
"288.131 450.489 OFFCURVE",
"303.751 446.362 OFFCURVE",
"321.477 441.486 CURVE",
"329.732 472.725 LINE",
"312.005 477.601 OFFCURVE",
"294.401 481.484 OFFCURVE",
"278.032 483.505 CURVE SMOOTH",
"210.209 494.32 OFFCURVE",
"154.121 483.403 OFFCURVE",
"125.145 448.612 CURVE SMOOTH",
"81.124 396.862 OFFCURVE",
"111.456 313.94 OFFCURVE",
"211.613 228.509 CURVE"
);
}
);
width = 386.97949;
},
{
layerId = "42B3044F-4D5A-45CA-9EB7-C1889731596B";
paths = (
{
closed = 1;
nodes = (
"550.087 315.88 LINE",
"423.527 443.559 LINE",
"194.343 233.734 LINE SMOOTH",
"176.251 217.343 OFFCURVE",
"134.968 193.738 OFFCURVE",
"118.922 133.851 CURVE SMOOTH",
"102.616 72.997 OFFCURVE",
"150.339 11.552 OFFCURVE",
"201.533 -2.165 CURVE"
);
},
{
closed = 1;
nodes = (
"380.632 400.016 LINE",
"345.632 438.016 OFFCURVE",
"328.632 468.016 OFFCURVE",
"323.632 485.016 CURVE",
"334.632 486.016 OFFCURVE",
"351.632 485.016 OFFCURVE",
"375.632 478.016 CURVE SMOOTH",
"385.632 475.016 OFFCURVE",
"397.632 471.016 OFFCURVE",
"413.632 464.016 CURVE",
"479.632 624.016 LINE",
"461.632 632.016 OFFCURVE",
"441.632 639.016 OFFCURVE",
"421.632 644.016 CURVE SMOOTH",
"340.632 667.016 OFFCURVE",
"247.632 665.016 OFFCURVE",
"189.632 602.016 CURVE SMOOTH",
"102.632 507.016 OFFCURVE",
"166.632 380.016 OFFCURVE",
"254.632 284.016 CURVE"
);
}
);
width = 578;
}
);
unicode = 06F6;
},
{
glyphname = "seven-persian.urdu";
layers = (
{
layerId = master01;
paths = (
{
closed = 1;
nodes = (
"400.835 0 LINE",
"400.835 79 LINE",
"111 79 LINE",
"115.2 73.4 OFFCURVE",
"118.8 68.6 OFFCURVE",
"123 63 CURVE",
"268.835 631 LINE",
"192.835 650 LINE",
"44.835 72 LINE SMOOTH",
"36.954 41.223 OFFCURVE",
"60.835 0 OFFCURVE",
"103.835 0 CURVE SMOOTH"
);
}
);
width = 443.83492;
},
{
layerId = "0CAB57D4-4FC4-49C3-B456-FB7666EAA712";
paths = (
{
closed = 1;
nodes = (
"362.354 0 LINE",
"362.354 32 LINE",
"72.591 32 LINE SMOOTH",
"63.724 32 OFFCURVE",
"60.916 38.935 OFFCURVE",
"62.839 46.434 CURVE SMOOTH",
"208.354 614 LINE",
"177.354 622 LINE",
"31.354 48 LINE SMOOTH",
"24.9 22.625 OFFCURVE",
"41.997 0 OFFCURVE",
"72.354 0 CURVE SMOOTH"
);
}
);
width = 392.35436;
},
{
layerId = "42B3044F-4D5A-45CA-9EB7-C1889731596B";
paths = (
{
closed = 1;
nodes = (
"496.932 0 LINE",
"496.932 172 LINE",
"263.809 172 LINE",
"270.152 161.85 OFFCURVE",
"275.589 153.15 OFFCURVE",
"281.932 143 CURVE",
"419.932 653 LINE",
"254.932 698 LINE",
"95.932 119 LINE SMOOTH",
"75.613 45.01 OFFCURVE",
"108.682 0 OFFCURVE",
"176.932 0 CURVE SMOOTH"
);
}
);
width = 586.9317;
}
);
},
{
glyphname = "fullstop-ar";
layers = (
{
layerId = master01;
paths = (
{
closed = 1;
nodes = (
"212 0 LINE",
"276 79 LINE",
"130 79 LINE",
"65 0 LINE"
);
}
);
width = 342;
},
{
layerId = "0CAB57D4-4FC4-49C3-B456-FB7666EAA712";
paths = (
{
closed = 1;
nodes = (
"170 0 LINE",
"194 32 LINE",
"92 32 LINE",
"68 0 LINE"
);
}
);
width = 262;
},
{
layerId = "42B3044F-4D5A-45CA-9EB7-C1889731596B";
paths = (
{
closed = 1;
nodes = (
"292 0 LINE",
"436 172 LINE",
"204 172 LINE",
"60 0 LINE"
);
}
);
width = 496;
}
);
unicode = 06D4;
},
{
glyphname = "comma-ar";
layers = (
{
layerId = master01;
paths = (
{
closed = 1;
nodes = (
"153 -12 OFFCURVE",
"181 10 OFFCURVE",
"181 46 CURVE SMOOTH",
"181 83 OFFCURVE",
"154 103 OFFCURVE",
"122 103 CURVE SMOOTH",
"106 103 OFFCURVE",
"91 99 OFFCURVE",
"80 86 CURVE",
"121 26 LINE",
"112 100 LINE",
"111 155 OFFCURVE",
"145 199 OFFCURVE",
"202 224 CURVE",
"182 272 LINE",
"101 238 OFFCURVE",
"51 171 OFFCURVE",
"51 85 CURVE SMOOTH",
"51 25 OFFCURVE",
"77 -12 OFFCURVE",
"120 -12 CURVE SMOOTH"
);
}
);
width = 249;
},
{
layerId = "0CAB57D4-4FC4-49C3-B456-FB7666EAA712";
paths = (
{
closed = 1;
nodes = (
"118 -12 OFFCURVE",
"136 0 OFFCURVE",
"136 24 CURVE SMOOTH",
"136 48 OFFCURVE",
"120 60 OFFCURVE",
"100 60 CURVE SMOOTH",
"88 60 OFFCURVE",
"76 58 OFFCURVE",
"68 44 CURVE",
"102 2 LINE",
"88 56 LINE",
"88 114 OFFCURVE",
"118 156 OFFCURVE",
"160 180 CURVE",
"148 204 LINE",
"96 172 OFFCURVE",
"56 118 OFFCURVE",
"56 50 CURVE SMOOTH",
"56 12 OFFCURVE",
"74 -12 OFFCURVE",
"100 -12 CURVE SMOOTH"
);
}
);
width = 208;
},
{
layerId = "42B3044F-4D5A-45CA-9EB7-C1889731596B";
paths = (
{
closed = 1;
nodes = (
"214 -12 OFFCURVE",
"260 26 OFFCURVE",
"260 82 CURVE SMOOTH",
"260 142 OFFCURVE",
"212 176 OFFCURVE",
"160 176 CURVE SMOOTH",
"138 176 OFFCURVE",
"118 169 OFFCURVE",
"102 157 CURVE",
"153 66 LINE",
"153 174 LINE SMOOTH",
"152 224 OFFCURVE",
"193 272 OFFCURVE",
"274 298 CURVE",
"240 388 LINE",
"110 352 OFFCURVE",
"42 262 OFFCURVE",
"42 144 CURVE SMOOTH",
"42 46 OFFCURVE",
"82 -12 OFFCURVE",
"156 -12 CURVE SMOOTH"
);
}
);
width = 320;
}
);
unicode = 060C;
},
{
glyphname = "semicolon-ar";
layers = (
{
layerId = master01;
paths = (
{
closed = 1;
nodes = (
"153 349 OFFCURVE",
"181 371 OFFCURVE",
"181 407 CURVE SMOOTH",
"181 444 OFFCURVE",
"154 464 OFFCURVE",
"122 464 CURVE SMOOTH",
"106 464 OFFCURVE",
"91 460 OFFCURVE",
"80 447 CURVE",
"121 387 LINE",
"112 461 LINE",
"111 516 OFFCURVE",
"145 560 OFFCURVE",
"202 585 CURVE",
"182 633 LINE",
"101 599 OFFCURVE",
"51 532 OFFCURVE",
"51 446 CURVE SMOOTH",
"51 386 OFFCURVE",
"77 349 OFFCURVE",
"120 349 CURVE SMOOTH"
);
},
{
closed = 1;
nodes = (
"157 -12 OFFCURVE",
"184 14 OFFCURVE",
"184 52 CURVE SMOOTH",
"184 88 OFFCURVE",
"157 114 OFFCURVE",
"124 114 CURVE SMOOTH",
"92 114 OFFCURVE",
"65 88 OFFCURVE",
"65 52 CURVE SMOOTH",
"65 14 OFFCURVE",
"92 -12 OFFCURVE",
"124 -12 CURVE SMOOTH"
);
}
);
width = 249;
},
{
layerId = "0CAB57D4-4FC4-49C3-B456-FB7666EAA712";
paths = (
{
closed = 1;
nodes = (
"118 378 OFFCURVE",
"136 390 OFFCURVE",
"136 414 CURVE SMOOTH",
"136 438 OFFCURVE",
"120 450 OFFCURVE",
"100 450 CURVE SMOOTH",
"88 450 OFFCURVE",
"76 448 OFFCURVE",
"68 434 CURVE",
"102 392 LINE",
"88 446 LINE",
"88 504 OFFCURVE",
"118 546 OFFCURVE",
"160 570 CURVE",
"148 594 LINE",
"96 562 OFFCURVE",
"56 508 OFFCURVE",
"56 440 CURVE SMOOTH",
"56 402 OFFCURVE",
"74 378 OFFCURVE",
"100 378 CURVE SMOOTH"
);
},
{
closed = 1;
nodes = (
"122 -12 OFFCURVE",
"140 2 OFFCURVE",
"140 28 CURVE SMOOTH",
"140 52 OFFCURVE",
"122 66 OFFCURVE",
"104 66 CURVE SMOOTH",
"86 66 OFFCURVE",
"68 52 OFFCURVE",
"68 28 CURVE SMOOTH",
"68 2 OFFCURVE",
"86 -12 OFFCURVE",
"104 -12 CURVE SMOOTH"
);
}
);
width = 208;
},
{
layerId = "42B3044F-4D5A-45CA-9EB7-C1889731596B";
paths = (
{
closed = 1;
nodes = (
"214 298 OFFCURVE",
"260 336 OFFCURVE",
"260 392 CURVE SMOOTH",
"260 452 OFFCURVE",
"212 486 OFFCURVE",
"160 486 CURVE SMOOTH",
"138 486 OFFCURVE",
"118 479 OFFCURVE",
"102 467 CURVE",
"153 376 LINE",
"153 484 LINE SMOOTH",
"152 534 OFFCURVE",
"193 582 OFFCURVE",
"274 608 CURVE",
"240 698 LINE",
"110 662 OFFCURVE",
"42 572 OFFCURVE",
"42 454 CURVE SMOOTH",
"42 356 OFFCURVE",
"82 298 OFFCURVE",
"156 298 CURVE SMOOTH"
);
},
{
closed = 1;
nodes = (
"218 -12 OFFCURVE",
"260 34 OFFCURVE",
"260 92 CURVE SMOOTH",
"260 150 OFFCURVE",
"218 196 OFFCURVE",
"160 196 CURVE SMOOTH",
"102 196 OFFCURVE",
"60 150 OFFCURVE",
"60 92 CURVE SMOOTH",
"60 34 OFFCURVE",
"102 -12 OFFCURVE",
"160 -12 CURVE SMOOTH"
);
}
);
width = 320;
}
);
unicode = 061B;
},
{
glyphname = "question-ar";
layers = (
{
layerId = master01;
paths = (
{
closed = 1;
nodes = (
"265 198 LINE",
"287 354 OFFCURVE",
"128 411 OFFCURVE",
"128 517 CURVE SMOOTH",
"128 570 OFFCURVE",
"161 614 OFFCURVE",
"225 614 CURVE SMOOTH",
"269 614 OFFCURVE",
"309 592 OFFCURVE",
"340 556 CURVE",
"387 599 LINE",
"345 647 OFFCURVE",
"288 682 OFFCURVE",
"215 682 CURVE SMOOTH",
"114 682 OFFCURVE",
"48 621 OFFCURVE",
"48 522 CURVE SMOOTH",
"48 391 OFFCURVE",
"209 338 OFFCURVE",
"193 198 CURVE"
);
},
{
closed = 1;
nodes = (
"260 -12 OFFCURVE",
"286 14 OFFCURVE",
"286 50 CURVE SMOOTH",
"286 88 OFFCURVE",
"260 114 OFFCURVE",
"227 114 CURVE SMOOTH",
"194 114 OFFCURVE",
"167 88 OFFCURVE",
"167 50 CURVE SMOOTH",
"167 14 OFFCURVE",
"194 -12 OFFCURVE",
"227 -12 CURVE SMOOTH"
);
}
);
width = 425;
},
{
layerId = "0CAB57D4-4FC4-49C3-B456-FB7666EAA712";
paths = (
{
closed = 1;
nodes = (
"230 172 LINE",
"252 342 OFFCURVE",
"84 400 OFFCURVE",
"84 530 CURVE SMOOTH",
"84 594 OFFCURVE",
"120 654 OFFCURVE",
"204 654 CURVE SMOOTH",
"254 654 OFFCURVE",
"304 630 OFFCURVE",
"338 588 CURVE",
"358 606 LINE",
"320 648 OFFCURVE",
"270 682 OFFCURVE",
"202 682 CURVE SMOOTH",
"106 682 OFFCURVE",
"52 614 OFFCURVE",
"52 532 CURVE SMOOTH",
"52 394 OFFCURVE",
"222 329 OFFCURVE",
"202 172 CURVE"
);
},
{
closed = 1;
nodes = (
"230 -12 OFFCURVE",
"248 2 OFFCURVE",
"248 26 CURVE SMOOTH",
"248 52 OFFCURVE",
"230 66 OFFCURVE",
"212 66 CURVE SMOOTH",
"194 66 OFFCURVE",
"176 52 OFFCURVE",
"176 26 CURVE SMOOTH",
"176 2 OFFCURVE",
"194 -12 OFFCURVE",
"212 -12 CURVE SMOOTH"
);
}
);
width = 394;
},
{
layerId = "42B3044F-4D5A-45CA-9EB7-C1889731596B";
paths = (
{
closed = 1;
nodes = (
"326 244 LINE",
"346 374 OFFCURVE",
"204 430 OFFCURVE",
"204 494 CURVE SMOOTH",
"204 530 OFFCURVE",
"230 544 OFFCURVE",
"260 544 CURVE SMOOTH",
"294 544 OFFCURVE",
"316 526 OFFCURVE",
"342 502 CURVE",
"436 588 LINE",
"387 644 OFFCURVE",
"318 682 OFFCURVE",
"238 682 CURVE SMOOTH",
"128 682 OFFCURVE",
"40 632 OFFCURVE",
"40 506 CURVE SMOOTH",
"40 386 OFFCURVE",
"186 354 OFFCURVE",
"176 244 CURVE"
);
},
{
closed = 1;
nodes = (
"310 -12 OFFCURVE",
"352 34 OFFCURVE",
"352 92 CURVE SMOOTH",
"352 150 OFFCURVE",
"310 196 OFFCURVE",
"252 196 CURVE SMOOTH",
"194 196 OFFCURVE",
"152 150 OFFCURVE",
"152 92 CURVE SMOOTH",
"152 34 OFFCURVE",
"194 -12 OFFCURVE",
"252 -12 CURVE SMOOTH"
);
}
);
width = 478;
}
);
unicode = 061F;
},
{
glyphname = parenleft.ar;
layers = (
{
layerId = master01;
paths = (
{
closed = 1;
nodes = (
"354 -282 LINE",
"143 74 OFFCURVE",
"150 403 OFFCURVE",
"351 736 CURVE",
"284 776 LINE",
"69 421 OFFCURVE",
"62 56 OFFCURVE",
"286 -322 CURVE"
);
}
);
width = 395;
},
{
layerId = "0CAB57D4-4FC4-49C3-B456-FB7666EAA712";
paths = (
{
closed = 1;
nodes = (
"249.915 -316.856 LINE",
"35.584 45.631 OFFCURVE",
"42.579 385.261 OFFCURVE",
"247.834 724.722 CURVE",
"220.451 741.278 LINE",
"9.706 392.739 OFFCURVE",
"2.701 38.369 OFFCURVE",
"222.37 -333.144 CURVE"
);
}
);
width = 269;
},
{
layerId = "42B3044F-4D5A-45CA-9EB7-C1889731596B";
paths = (
{
closed = 1;
nodes = (
"509.129 -211.229 LINE",
"306.472 131.515 OFFCURVE",
"313.446 438.899 OFFCURVE",
"506.694 758.502 CURVE",
"359.509 847.498 LINE",
"136.757 479.101 OFFCURVE",
"129.731 92.485 OFFCURVE",
"361.074 -298.771 CURVE"
);
}
);
width = 559;
}
);
},
{
glyphname = braceleft.ar;
layers = (
{
layerId = master01;
paths = (
{
closed = 1;
nodes = (
"403 -212 LINE",
"338 -212 OFFCURVE",
"301 -188 OFFCURVE",
"301 -128 CURVE SMOOTH",
"301 110 LINE SMOOTH",
"301 159 OFFCURVE",
"283 200 OFFCURVE",
"245 228 CURVE",
"281 255 OFFCURVE",
"301 297 OFFCURVE",
"301 345 CURVE SMOOTH",
"301 597 LINE SMOOTH",
"301 637 OFFCURVE",
"336 666 OFFCURVE",
"402 665 CURVE",
"404 743 LINE",
"317 746 OFFCURVE",
"223 699 OFFCURVE",
"223 597 CURVE SMOOTH",
"223 345 LINE SMOOTH",
"223 306 OFFCURVE",
"204 283 OFFCURVE",
"165 272 CURVE SMOOTH",
"153 269 OFFCURVE",
"138 266 OFFCURVE",
"121 266 CURVE",
"121 188 LINE",
"138 188 OFFCURVE",
"153 186 OFFCURVE",
"165 182 CURVE SMOOTH",
"204 172 OFFCURVE",
"223 152 OFFCURVE",
"223 110 CURVE SMOOTH",
"223 -128 LINE SMOOTH",
"223 -244 OFFCURVE",
"316 -290 OFFCURVE",
"403 -290 CURVE"
);
}
);
width = 446;
},
{
layerId = "0CAB57D4-4FC4-49C3-B456-FB7666EAA712";
paths = (
{
closed = 1;
nodes = (
"342 -258 LINE",
"270.573 -258 OFFCURVE",
"217 -227.771 OFFCURVE",
"217 -151 CURVE SMOOTH",
"217 87 LINE SMOOTH",
"217 142.531 OFFCURVE",
"191 183.251 OFFCURVE",
"143.306 204.491 CURVE",
"189.788 226.304 OFFCURVE",
"217 268.948 OFFCURVE",
"217 322 CURVE SMOOTH",
"217 574 LINE SMOOTH",
"217 632.332 OFFCURVE",
"269.837 666.894 OFFCURVE",
"341.579 665.006 CURVE",
"342.421 696.994 LINE",
"262.163 699.106 OFFCURVE",
"185 657.668 OFFCURVE",
"185 574 CURVE SMOOTH",
"185 322 LINE SMOOTH",
"185 270.185 OFFCURVE",
"155.349 235.098 OFFCURVE",
"99.216 223.699 CURVE SMOOTH",
"87.348 221.289 OFFCURVE",
"74.247 220 OFFCURVE",
"60 220 CURVE",
"60 188 LINE",
"74.111 188 OFFCURVE",
"87.139 186.853 OFFCURVE",
"98.963 184.655 CURVE SMOOTH",
"155.072 174.231 OFFCURVE",
"185 142.069 OFFCURVE",
"185 87 CURVE SMOOTH",
"185 -151 LINE SMOOTH",
"185 -250.229 OFFCURVE",
"261.427 -290 OFFCURVE",
"342 -290 CURVE"
);
}
);
width = 362;
},
{
layerId = "42B3044F-4D5A-45CA-9EB7-C1889731596B";
paths = (
{
closed = 1;
nodes = (
"532 -118 LINE",
"474.735 -118 OFFCURVE",
"447 -82.136 OFFCURVE",
"447 -41 CURVE SMOOTH",
"447 157 LINE SMOOTH",
"447 202.565 OFFCURVE",
"431.069 242.203 OFFCURVE",
"403.007 275.144 CURVE",
"428.832 305.577 OFFCURVE",
"447 346.96 OFFCURVE",
"447 392 CURVE SMOOTH",
"447 604 LINE SMOOTH",
"447 623.784 OFFCURVE",
"466.791 665 OFFCURVE",
"532 665 CURVE",
"532 837 LINE",
"381.209 837 OFFCURVE",
"275 726.216 OFFCURVE",
"275 604 CURVE SMOOTH",
"275 422 LINE",
"275 422 OFFCURVE",
"277.102 382.073 OFFCURVE",
"244.143 369.455 CURVE SMOOTH",
"229.157 363.719 OFFCURVE",
"209.76 360 OFFCURVE",
"190 360 CURVE",
"190 188 LINE",
"210.503 188 OFFCURVE",
"230.487 184.477 OFFCURVE",
"245.533 179.048 CURVE SMOOTH",
"277.326 167.576 OFFCURVE",
"275 128.113 OFFCURVE",
"275 127 CURVE SMOOTH",
"275 -41 LINE SMOOTH",
"275 -175.864 OFFCURVE",
"383.265 -290 OFFCURVE",
"532 -290 CURVE"
);
}
);
width = 582;
}
);
},
{
glyphname = bracketleft.ar;
layers = (
{
layerId = master01;
paths = (
{
closed = 1;
nodes = (
"302 -288 LINE",
"302 -210 LINE",
"199 -210 LINE",
"199 664 LINE",
"301 664 LINE",
"301 742 LINE",
"121 742 LINE",
"121 -288 LINE"
);
}
);
width = 344;
},
{
layerId = "0CAB57D4-4FC4-49C3-B456-FB7666EAA712";
paths = (
{
closed = 1;
nodes = (
"218 -288 LINE",
"218 -256 LINE",
"92 -256 LINE",
"92 664 LINE",
"217 664 LINE",
"217 696 LINE",
"60 696 LINE",
"60 -288 LINE"
);
}
);
width = 238;
},
{
layerId = "42B3044F-4D5A-45CA-9EB7-C1889731596B";
paths = (
{
closed = 1;
nodes = (
"418.045 -288.36 LINE",
"418.045 -116.36 LINE",
"362 -116.36 LINE",
"362 664.36 LINE",
"417.012 664.36 LINE",
"417.012 836.36 LINE",
"190 836.36 LINE",
"190 -288.36 LINE"
);
}
);
width = 468;
}
);
},
{
glyphname = "percent-ar";
layers = (
{
components = (
{
name = "zero-ar";
transform = "{1, 0, 0, 1, 260, -280}";
},
{
name = "zero-ar";
transform = "{1, 0, 0, 1, -61, 279}";
}
);
layerId = master01;
paths = (
{
closed = 1;
nodes = (
"110 -12 LINE",
"473 669 LINE",
"403 669 LINE",
"40 -12 LINE"
);
}
);
width = 513;
},
{
components = (
{
name = "zero-ar";
transform = "{1, 0, 0, 1, 295, -306}";
},
{
name = "zero-ar";
transform = "{1, 0, 0, 1, -48, 308}";
}
);
layerId = "0CAB57D4-4FC4-49C3-B456-FB7666EAA712";
paths = (
{
closed = 1;
nodes = (
"84 -12 LINE",
"454 672 LINE",
"413 672 LINE",
"43 -12 LINE"
);
}
);
width = 497;
},
{
components = (
{
name = "zero-ar";
transform = "{1, 0, 0, 1, 226, -240}";
},
{
name = "zero-ar";
transform = "{1, 0, 0, 1, -128, 233}";
}
);
layerId = "42B3044F-4D5A-45CA-9EB7-C1889731596B";
paths = (
{
closed = 1;
nodes = (
"194 -12 LINE",
"542 662 LINE",
"406 662 LINE",
"58 -12 LINE"
);
}
);
width = 598;
}
);
unicode = 066A;
},
{
glyphname = "tahabove-ar";
layers = (
{
anchors = (
{
name = _top.a;
position = "{0, 0}";
},
{
name = _top.mark;
position = "{0, 50}";
},
{
name = top.mark;
position = "{0, 408}";
}
);
layerId = master01;
paths = (
{
closed = 1;
nodes = (
"93 0 LINE SMOOTH",
"119 0 OFFCURVE",
"139 20 OFFCURVE",
"139 46 CURVE SMOOTH",
"139 79 LINE SMOOTH",
"139 124 OFFCURVE",
"122 157 OFFCURVE",
"87 171 CURVE SMOOTH",
"8 201 OFFCURVE",
"-50 104 OFFCURVE",
"-97 38 CURVE",
"-62 18 LINE",
"-2 105 OFFCURVE",
"38 147 OFFCURVE",
"73 135 CURVE SMOOTH",
"88 128 OFFCURVE",
"99 116 OFFCURVE",
"99 79 CURVE SMOOTH",
"99 29 LINE",
"102.5 32.5 OFFCURVE",
"105.5 35.5 OFFCURVE",
"109 39 CURVE",
"-103 39 LINE",
"-103 0 LINE"
);
},
{
closed = 1;
nodes = (
"-97 0 LINE",
"-97 39 LINE",
"-139 39 LINE",
"-139 0 LINE"
);
},
{
closed = 1;
nodes = (
"-55 32 LINE",
"-55 312 LINE",
"-95 312 LINE",
"-95 32 LINE"
);
}
);
width = 0;
},
{
anchors = (
{
name = _top.a;
position = "{0, 0}";
},
{
name = _top.mark;
position = "{0, 50}";
},
{
name = top.mark;
position = "{0, 408}";
}
);
layerId = "0CAB57D4-4FC4-49C3-B456-FB7666EAA712";
paths = (
{
closed = 1;
nodes = (
"99 0 LINE SMOOTH",
"118.5 0 OFFCURVE",
"134 16 OFFCURVE",
"133.5 34.5 CURVE SMOOTH",
"132.5 67.5 LINE SMOOTH",
"131 110 OFFCURVE",
"118 137 OFFCURVE",
"89 149 CURVE SMOOTH",
"22.5 173.5 OFFCURVE",
"-29.5 90.5 OFFCURVE",
"-80 21 CURVE",
"-67.5 12 LINE",
"-15.5 83 OFFCURVE",
"32.5 152.5 OFFCURVE",
"83.5 134 CURVE SMOOTH",
"105 125 OFFCURVE",
"115 107 OFFCURVE",
"116.5 67.5 CURVE SMOOTH",
"117.5 33.5 LINE SMOOTH",
"118 24 OFFCURVE",
"110.5 16 OFFCURVE",
"99 16 CURVE SMOOTH",
"-87 16 LINE",
"-87 0 LINE"
);
},
{
closed = 1;
nodes = (
"-78 0 LINE",
"-78 16 LINE",
"-133 16 LINE",
"-133 0 LINE"
);
},
{
closed = 1;
nodes = (
"-65 11 LINE",
"-65 312 LINE",
"-81 312 LINE",
"-81 11 LINE"
);
}
);
width = 0;
},
{
anchors = (
{
name = _top.a;
position = "{0, 0}";
},
{
name = _top.mark;
position = "{0, 70}";
},
{
name = top.mark;
position = "{0, 414}";
}
);
layerId = "42B3044F-4D5A-45CA-9EB7-C1889731596B";
paths = (
{
closed = 1;
nodes = (
"124 0 LINE SMOOTH",
"162 0 OFFCURVE",
"196 31 OFFCURVE",
"194 70 CURVE SMOOTH",
"192 104 LINE SMOOTH",
"189 152 OFFCURVE",
"173 196 OFFCURVE",
"127 216 CURVE",
"28 252 OFFCURVE",
"-35 144 OFFCURVE",
"-77 86 CURVE",
"-10 31 LINE",
"27 87 OFFCURVE",
"74 143 OFFCURVE",
"96 136 CURVE",
"100 134 OFFCURVE",
"107 134 OFFCURVE",
"108 102 CURVE",
"107 76 LINE",
"110.5 79.5 OFFCURVE",
"113.5 82.5 OFFCURVE",
"117 86 CURVE",
"-92 86 LINE",
"-92 0 LINE"
);
},
{
closed = 1;
nodes = (
"-73 0 LINE",
"-73 86 LINE",
"-168 86 LINE",
"-168 0 LINE"
);
},
{
closed = 1;
nodes = (
"-34 61 LINE",
"-34 312 LINE",
"-120 312 LINE",
"-120 61 LINE"
);
}
);
width = 0;
}
);
unicode = 0615;
category = Mark;
subCategory = Nonspacing;
},
{
glyphname = "dotabove-ar";
layers = (
{
anchors = (
{
name = _top.a;
position = "{0, 0}";
},
{
name = top.mark;
position = "{0, 140}";
}
);
layerId = master01;
paths = (
{
closed = 1;
nodes = (
"24 -42 OFFCURVE",
"42 -24 OFFCURVE",
"42 0 CURVE SMOOTH",
"42 24 OFFCURVE",
"24 42 OFFCURVE",
"0 42 CURVE SMOOTH",
"-24 42 OFFCURVE",
"-42 24 OFFCURVE",
"-42 0 CURVE SMOOTH",
"-42 -24 OFFCURVE",
"-24 -42 OFFCURVE",
"0 -42 CURVE SMOOTH"
);
}
);
width = 0;
},
{
anchors = (
{
name = _top.a;
position = "{0, 0}";
},
{
name = top.mark;
position = "{0, 127}";
}
);
layerId = "0CAB57D4-4FC4-49C3-B456-FB7666EAA712";
paths = (
{
closed = 1;
nodes = (
"14 -25 OFFCURVE",
"25 -14 OFFCURVE",
"25 0 CURVE SMOOTH",
"25 14 OFFCURVE",
"14 25 OFFCURVE",
"0 25 CURVE SMOOTH",
"-14 25 OFFCURVE",
"-25 14 OFFCURVE",
"-25 0 CURVE SMOOTH",
"-25 -14 OFFCURVE",
"-14 -25 OFFCURVE",
"0 -25 CURVE SMOOTH"
);
}
);
width = 0;
},
{
anchors = (
{
name = _top.a;
position = "{0, 0}";
},
{
name = top.mark;
position = "{0, 214}";
}
);
layerId = "42B3044F-4D5A-45CA-9EB7-C1889731596B";
paths = (
{
closed = 1;
nodes = (
"47 -86 OFFCURVE",
"86 -47 OFFCURVE",
"86 0 CURVE SMOOTH",
"86 47 OFFCURVE",
"47 86 OFFCURVE",
"0 86 CURVE SMOOTH",
"-47 86 OFFCURVE",
"-86 47 OFFCURVE",
"-86 0 CURVE SMOOTH",
"-86 -47 OFFCURVE",
"-47 -86 OFFCURVE",
"0 -86 CURVE SMOOTH"
);
}
);
width = 0;
}
);
category = Mark;
subCategory = Nonspacing;
},
{
glyphname = "wasla-ar";
layers = (
{
anchors = (
{
name = _top.hamza;
position = "{0, 0}";
},
{
name = top.mark;
position = "{0, 278}";
}
);
layerId = master01;
paths = (
{
closed = 1;
nodes = (
"97 0 LINE SMOOTH",
"122 0 OFFCURVE",
"144 20 OFFCURVE",
"143 46 CURVE SMOOTH",
"142 79 LINE SMOOTH",
"141 124 OFFCURVE",
"126 157 OFFCURVE",
"91 171 CURVE SMOOTH",
"12 200 OFFCURVE",
"-46 104 OFFCURVE",
"-93 38 CURVE",
"-59 18 LINE",
"1 105 OFFCURVE",
"41 147 OFFCURVE",
"77 135 CURVE SMOOTH",
"92 128 OFFCURVE",
"103 116.014 OFFCURVE",
"103 79 CURVE SMOOTH",
"103 29 LINE",
"106.5 32.5 OFFCURVE",
"109.5 35.5 OFFCURVE",
"113 39 CURVE",
"-99 39 LINE",
"-99 0 LINE"
);
},
{
closed = 1;
nodes = (
"-82 0 LINE",
"-82 39 LINE",
"-142 39 LINE",
"-142 0 LINE"
);
}
);
width = 0;
},
{
anchors = (
{
name = _top.hamza;
position = "{0, 0}";
},
{
name = top.mark;
position = "{0, 278}";
}
);
layerId = "0CAB57D4-4FC4-49C3-B456-FB7666EAA712";
paths = (
{
closed = 1;
nodes = (
"96 0 LINE SMOOTH",
"116 0 OFFCURVE",
"131 15 OFFCURVE",
"131 34 CURVE SMOOTH",
"130 68 LINE SMOOTH",
"129 110 OFFCURVE",
"115 137 OFFCURVE",
"86 149 CURVE SMOOTH",
"20 173 OFFCURVE",
"-32 91 OFFCURVE",
"-82 21 CURVE",
"-70 12 LINE",
"-18 83 OFFCURVE",
"30 152 OFFCURVE",
"81 134 CURVE SMOOTH",
"103 125 OFFCURVE",
"113 108 OFFCURVE",
"114 68 CURVE SMOOTH",
"115 34 LINE SMOOTH",
"115 24 OFFCURVE",
"108 16 OFFCURVE",
"96 16 CURVE SMOOTH",
"-90 16 LINE",
"-90 0 LINE"
);
},
{
closed = 1;
nodes = (
"-83 0 LINE",
"-83 16 LINE",
"-131 16 LINE",
"-131 0 LINE"
);
}
);
width = 0;
},
{
anchors = (
{
name = _top.hamza;
position = "{0, 0}";
},
{
name = top.mark;
position = "{0, 284}";
}
);
layerId = "42B3044F-4D5A-45CA-9EB7-C1889731596B";
paths = (
{
closed = 1;
nodes = (
"103 0 LINE SMOOTH",
"141 0 OFFCURVE",
"174 31 OFFCURVE",
"172 70 CURVE",
"172 104 LINE SMOOTH",
"171 152 OFFCURVE",
"152 196 OFFCURVE",
"106 216 CURVE SMOOTH",
"7 252 OFFCURVE",
"-56 144 OFFCURVE",
"-98 86 CURVE",
"-31 31 LINE",
"6 87 OFFCURVE",
"52 143 OFFCURVE",
"74 136 CURVE SMOOTH",
"78 134 OFFCURVE",
"85 134 OFFCURVE",
"86 102 CURVE SMOOTH",
"86 76 LINE",
"89.5 79.5 OFFCURVE",
"92.5 82.5 OFFCURVE",
"96 86 CURVE",
"-113 86 LINE",
"-113 0 LINE"
);
},
{
closed = 1;
nodes = (
"-74 0 LINE",
"-74 86 LINE",
"-172 86 LINE",
"-172 0 LINE"
);
}
);
width = 0;
}
);
category = Mark;
subCategory = Nonspacing;
},
{
glyphname = "wavyhamzaabove-ar";
layers = (
{
anchors = (
{
name = _top.hamza;
position = "{0, 0}";
},
{
name = top.mark;
position = "{0, 250}";
}
);
layerId = master01;
paths = (
{
closed = 1;
nodes = (
"14 0 LINE SMOOTH",
"22 0 OFFCURVE",
"40 1 OFFCURVE",
"49 15 CURVE SMOOTH",
"61 31 OFFCURVE",
"52 47 OFFCURVE",
"48 57 CURVE SMOOTH",
"22 111 LINE",
"96 111 LINE",
"96 167 LINE",
"-4 167 LINE SMOOTH",
"-22 167 OFFCURVE",
"-35 160 OFFCURVE",
"-41 151 CURVE SMOOTH",
"-54 133 OFFCURVE",
"-40 110 OFFCURVE",
"-40 110 CURVE",
"-14 56 LINE",
"-53 56 LINE",
"-53 0 LINE"
);
},
{
closed = 1;
nodes = (
"-172 0 LINE",
"-173 44 OFFCURVE",
"-160 55 OFFCURVE",
"-154 55 CURVE SMOOTH",
"-148 55 OFFCURVE",
"-144 54 OFFCURVE",
"-134 39 CURVE SMOOTH",
"-114 8 OFFCURVE",
"-90 0 OFFCURVE",
"-62 0 CURVE SMOOTH",
"-44 0 LINE",
"-44 56 LINE",
"-62 56 LINE SMOOTH",
"-74 56 OFFCURVE",
"-81 63 OFFCURVE",
"-92 78 CURVE SMOOTH",
"-107 98 OFFCURVE",
"-125 111 OFFCURVE",
"-156 111 CURVE SMOOTH",
"-203 111 OFFCURVE",
"-230 66 OFFCURVE",
"-228 0 CURVE"
);
}
);
width = 0;
},
{
anchors = (
{
name = _top.hamza;
position = "{0, 0}";
},
{
name = top.mark;
position = "{0, 237}";
}
);
layerId = "0CAB57D4-4FC4-49C3-B456-FB7666EAA712";
paths = (
{
closed = 1;
nodes = (
"15 0 LINE SMOOTH",
"21 0 OFFCURVE",
"33 1 OFFCURVE",
"38 9 CURVE SMOOTH",
"46 21 OFFCURVE",
"40 34 OFFCURVE",
"37 40 CURVE SMOOTH",
"3 111 LINE",
"96 111 LINE",
"96 143 LINE",
"-3 143 LINE SMOOTH",
"-13 143 OFFCURVE",
"-23 140 OFFCURVE",
"-28 134 CURVE SMOOTH",
"-39 122 OFFCURVE",
"-29 103 OFFCURVE",
"-29 102 CURVE",
"5 32 LINE",
"-36 32 LINE",
"-36 0 LINE"
);
},
{
closed = 1;
nodes = (
"-153 0 LINE",
"-153 40.036 OFFCURVE",
"-136.299 49 OFFCURVE",
"-130 49 CURVE SMOOTH",
"-118.565 49 OFFCURVE",
"-112.693 45.195 OFFCURVE",
"-103.313 31.125 CURVE SMOOTH",
"-87.125 6.843 OFFCURVE",
"-69.783 0 OFFCURVE",
"-47 0 CURVE SMOOTH",
"-31 0 LINE",
"-31 32 LINE",
"-47 32 LINE SMOOTH",
"-60.217 32 OFFCURVE",
"-68.875 37.157 OFFCURVE",
"-76.687 48.875 CURVE SMOOTH",
"-88.733 66.944 OFFCURVE",
"-105.38 81 OFFCURVE",
"-130 81 CURVE SMOOTH",
"-163.801 81 OFFCURVE",
"-185 45.964 OFFCURVE",
"-185 0 CURVE"
);
}
);
width = 0;
},
{
anchors = (
{
name = _top.hamza;
position = "{0, 0}";
},
{
name = top.mark;
position = "{0, 304}";
}
);
layerId = "42B3044F-4D5A-45CA-9EB7-C1889731596B";
paths = (
{
closed = 1;
nodes = (
"14 1 LINE SMOOTH",
"21 1 OFFCURVE",
"53 6 OFFCURVE",
"68 29 CURVE SMOOTH",
"85 55 OFFCURVE",
"71 79 OFFCURVE",
"67 88 CURVE SMOOTH",
"56 112 LINE",
"96 112 LINE",
"96 212 LINE",
"-4 212 LINE SMOOTH",
"-28 212 OFFCURVE",
"-47 202 OFFCURVE",
"-57 192 CURVE SMOOTH",
"-84 164 OFFCURVE",
"-60 123 OFFCURVE",
"-60 123 CURVE",
"-49 101 LINE",
"-83 101 LINE",
"-83 1 LINE"
);
},
{
closed = 1;
nodes = (
"-190 2 LINE",
"-190 5 OFFCURVE",
"-194.394 52.231 OFFCURVE",
"-181 52 CURVE SMOOTH",
"-171.314 51.833 OFFCURVE",
"-172.086 37.747 OFFCURVE",
"-154.166 20.824 CURVE SMOOTH",
"-140.494 7.912 OFFCURVE",
"-120.184 1 OFFCURVE",
"-92 1 CURVE SMOOTH",
"-73 1 LINE",
"-73 101 LINE",
"-86 101 LINE SMOOTH",
"-99 101 OFFCURVE",
"-106.785 117.582 OFFCURVE",
"-122.923 134.385 CURVE SMOOTH",
"-136 148 OFFCURVE",
"-152 160 OFFCURVE",
"-185 160 CURVE SMOOTH",
"-258 160 OFFCURVE",
"-288 85 OFFCURVE",
"-288 2 CURVE"
);
}
);
width = 0;
}
);
category = Mark;
subCategory = Nonspacing;
},
{
glyphname = "miniKeheh-ar";
layers = (
{
anchors = (
{
name = _top.kaf;
position = "{0, 0}";
},
{
name = top.a;
position = "{0, 286}";
},
{
name = top.mark;
position = "{0, 313}";
}
);
layerId = master01;
paths = (
{
closed = 1;
nodes = (
"14 0 LINE SMOOTH",
"22 0 OFFCURVE",
"40 1 OFFCURVE",
"49 15 CURVE SMOOTH",
"61 31 OFFCURVE",
"52 47 OFFCURVE",
"48 57 CURVE SMOOTH",
"22 111 LINE",
"96 111 LINE",
"96 167 LINE",
"-4 167 LINE SMOOTH",
"-22 167 OFFCURVE",
"-35 160 OFFCURVE",
"-41 151 CURVE SMOOTH",
"-54 133 OFFCURVE",
"-40 110 OFFCURVE",
"-40 110 CURVE",
"-14 56 LINE",
"-96 56 LINE",
"-96 0 LINE"
);
}
);
width = 0;
},
{
anchors = (
{
name = _top.kaf;
position = "{0, 0}";
},
{
name = top.a;
position = "{0, 260}";
},
{
name = top.mark;
position = "{0, 287}";
}
);
layerId = "0CAB57D4-4FC4-49C3-B456-FB7666EAA712";
paths = (
{
closed = 1;
nodes = (
"15 0 LINE SMOOTH",
"21 0 OFFCURVE",
"33 1 OFFCURVE",
"38 9 CURVE SMOOTH",
"46 21 OFFCURVE",
"40 34 OFFCURVE",
"37 40 CURVE SMOOTH",
"3 111 LINE",
"96 111 LINE",
"96 143 LINE",
"-3 143 LINE SMOOTH",
"-13 143 OFFCURVE",
"-23 140 OFFCURVE",
"-28 134 CURVE SMOOTH",
"-39 122 OFFCURVE",
"-29 103 OFFCURVE",
"-29 102 CURVE",
"5 32 LINE",
"-96 32 LINE",
"-96 0 LINE"
);
}
);
width = 0;
},
{
anchors = (
{
name = _top.kaf;
position = "{0, 0}";
},
{
name = top.a;
position = "{0, 320}";
},
{
name = top.mark;
position = "{0, 354}";
}
);
layerId = "42B3044F-4D5A-45CA-9EB7-C1889731596B";
paths = (
{
closed = 1;
nodes = (
"14 1 LINE SMOOTH",
"21 1 OFFCURVE",
"53 6 OFFCURVE",
"68 29 CURVE SMOOTH",
"85 55 OFFCURVE",
"71 79 OFFCURVE",
"67 88 CURVE SMOOTH",
"56 112 LINE",
"96 112 LINE",
"96 212 LINE",
"-4 212 LINE SMOOTH",
"-28 212 OFFCURVE",
"-47 202 OFFCURVE",
"-57 192 CURVE SMOOTH",
"-84 164 OFFCURVE",
"-60 123 OFFCURVE",
"-60 123 CURVE",
"-49 101 LINE",
"-96 101 LINE",
"-96 1 LINE"
);
}
);
width = 0;
}
);
category = Mark;
subCategory = Nonspacing;
},
{
glyphname = "gafsarkashabove-ar";
layers = (
{
anchors = (
{
name = _top.gaf;
position = "{0, 0}";
},
{
name = dotAboveGaf;
position = "{-196, 0}";
}
);
layerId = master01;
paths = (
{
closed = 1;
nodes = (
"-60 6 OFFCURVE",
"152 53 OFFCURVE",
"180 54 CURVE",
"179 110 LINE",
"133 109 OFFCURVE",
"-73 63 OFFCURVE",
"-180 -3 CURVE",
"-150 -50 LINE"
);
}
);
width = 0;
},
{
anchors = (
{
name = _top.gaf;
position = "{0, 0}";
},
{
name = dotAboveGaf;
position = "{-190, 0}";
}
);
layerId = "0CAB57D4-4FC4-49C3-B456-FB7666EAA712";
paths = (
{
closed = 1;
nodes = (
"-66 23 OFFCURVE",
"144 70 OFFCURVE",
"176 71 CURVE",
"176 103 LINE",
"134 102 OFFCURVE",
"-72 56 OFFCURVE",
"-176 -8 CURVE",
"-160 -35 LINE"
);
}
);
width = 0;
},
{
anchors = (
{
name = _top.gaf;
position = "{0, 0}";
},
{
name = dotAboveGaf;
position = "{-210, 0}";
}
);
layerId = "42B3044F-4D5A-45CA-9EB7-C1889731596B";
paths = (
{
closed = 1;
nodes = (
"-48 -23 OFFCURVE",
"164 26 OFFCURVE",
"186 27 CURVE",
"183 127 LINE",
"131 126 OFFCURVE",
"-73 81 OFFCURVE",
"-186 11 CURVE",
"-133 -75 LINE"
);
}
);
width = 0;
},
{
associatedMasterId = "42B3044F-4D5A-45CA-9EB7-C1889731596B";
layerId = "DF9AD42D-41C6-49F1-8FE3-054ECB9B05F1";
name = Back;
paths = (
{
closed = 1;
nodes = (
"560.324 567.998 LINE",
"541.563 566.438 OFFCURVE",
"367.747 527.981 OFFCURVE",
"279.004 483.342 CURVE",
"284.672 509.329 LINE",
"558.452 229.163 LINE SMOOTH",
"643.323 142.312 OFFCURVE",
"583.226 1 OFFCURVE",
"462 1 CURVE SMOOTH",
"0 1 LINE",
"0 173 LINE",
"393 173 LINE",
"384.73 161 LINE",
"155.548 394.837 LINE SMOOTH",
"94.696 456.924 OFFCURVE",
"89.377 570.392 OFFCURVE",
"169.987 618.893 CURVE SMOOTH",
"293.188 694.256 OFFCURVE",
"492.251 738.254 OFFCURVE",
"555.677 739.969 CURVE"
);
}
);
width = 0;
}
);
category = Mark;
subCategory = Nonspacing;
},
{
glyphname = "ring-ar";
layers = (
{
anchors = (
{
name = _bottom.ring;
position = "{0, 42}";
},
{
name = bottom.mark;
position = "{0, -174}";
}
);
layerId = master01;
paths = (
{
closed = 1;
nodes = (
"49 -87 OFFCURVE",
"87 -48 OFFCURVE",
"87 0 CURVE SMOOTH",
"87 49 OFFCURVE",
"48 87 OFFCURVE",
"0 87 CURVE SMOOTH",
"-49 87 OFFCURVE",
"-87 48 OFFCURVE",
"-87 0 CURVE SMOOTH",
"-87 -49 OFFCURVE",
"-48 -87 OFFCURVE",
"0 -87 CURVE SMOOTH"
);
},
{
closed = 1;
nodes = (
"-24 -42 OFFCURVE",
"-42 -24 OFFCURVE",
"-42 0 CURVE SMOOTH",
"-42 24 OFFCURVE",
"-24 42 OFFCURVE",
"0 42 CURVE SMOOTH",
"24 42 OFFCURVE",
"42 24 OFFCURVE",
"42 0 CURVE SMOOTH",
"42 -24 OFFCURVE",
"24 -42 OFFCURVE",
"0 -42 CURVE SMOOTH"
);
}
);
width = 0;
},
{
anchors = (
{
name = _bottom.ring;
position = "{0, 25}";
},
{
name = bottom.mark;
position = "{0, -142}";
}
);
layerId = "0CAB57D4-4FC4-49C3-B456-FB7666EAA712";
paths = (
{
closed = 1;
nodes = (
"32 -57 OFFCURVE",
"57 -32 OFFCURVE",
"57 0 CURVE SMOOTH",
"57 32 OFFCURVE",
"32 57 OFFCURVE",
"0 57 CURVE SMOOTH",
"-32 57 OFFCURVE",
"-57 32 OFFCURVE",
"-57 0 CURVE SMOOTH",
"-57 -32 OFFCURVE",
"-32 -57 OFFCURVE",
"0 -57 CURVE SMOOTH"
);
},
{
closed = 1;
nodes = (
"-14 -25 OFFCURVE",
"-25 -14 OFFCURVE",
"-25 0 CURVE SMOOTH",
"-25 14 OFFCURVE",
"-14 25 OFFCURVE",
"0 25 CURVE SMOOTH",
"14 25 OFFCURVE",
"25 14 OFFCURVE",
"25 0 CURVE SMOOTH",
"25 -14 OFFCURVE",
"14 -25 OFFCURVE",
"0 -25 CURVE SMOOTH"
);
}
);
width = 0;
},
{
anchors = (
{
name = _bottom.ring;
position = "{0, 42}";
},
{
name = bottom.mark;
position = "{0, -174}";
}
);
layerId = "42B3044F-4D5A-45CA-9EB7-C1889731596B";
paths = (
{
closed = 1;
nodes = (
"49 -87 OFFCURVE",
"87 -48 OFFCURVE",
"87 0 CURVE SMOOTH",
"87 49 OFFCURVE",
"48 87 OFFCURVE",
"0 87 CURVE SMOOTH",
"-49 87 OFFCURVE",
"-87 48 OFFCURVE",
"-87 0 CURVE SMOOTH",
"-87 -49 OFFCURVE",
"-48 -87 OFFCURVE",
"0 -87 CURVE SMOOTH"
);
},
{
closed = 1;
nodes = (
"-24 -42 OFFCURVE",
"-42 -24 OFFCURVE",
"-42 0 CURVE SMOOTH",
"-42 24 OFFCURVE",
"-24 42 OFFCURVE",
"0 42 CURVE SMOOTH",
"24 42 OFFCURVE",
"42 24 OFFCURVE",
"42 0 CURVE SMOOTH",
"42 -24 OFFCURVE",
"24 -42 OFFCURVE",
"0 -42 CURVE SMOOTH"
);
}
);
width = 0;
}
);
category = Mark;
subCategory = Nonspacing;
},
{
glyphname = "alefabove-ar";
layers = (
{
anchors = (
{
name = _top.a;
position = "{0, 0}";
},
{
name = _top.mark;
position = "{0, 0}";
}
);
layerId = master01;
paths = (
{
closed = 1;
nodes = (
"0 0 OFFCURVE",
"29 24 OFFCURVE",
"29 49 CURVE SMOOTH",
"29 180 LINE",
"-30 180 LINE",
"-30 0 LINE"
);
}
);
width = 0;
},
{
anchors = (
{
name = _top.a;
position = "{0, 0}";
},
{
name = _top.mark;
position = "{0, 0}";
}
);
layerId = "0CAB57D4-4FC4-49C3-B456-FB7666EAA712";
paths = (
{
closed = 1;
nodes = (
"5 0 OFFCURVE",
"16 18 OFFCURVE",
"16 32 CURVE SMOOTH",
"16 183 LINE",
"-16 183 LINE",
"-16 0 LINE"
);
}
);
width = 0;
},
{
anchors = (
{
name = _top.a;
position = "{0, 0}";
},
{
name = _top.mark;
position = "{0, 0}";
}
);
layerId = "42B3044F-4D5A-45CA-9EB7-C1889731596B";
paths = (
{
closed = 1;
nodes = (
"-12 -10 OFFCURVE",
"65 21 OFFCURVE",
"65 98 CURVE SMOOTH",
"65 244 LINE",
"-64 244 LINE",
"-64 -10 LINE"
);
}
);
width = 0;
}
);
unicode = 0670;
category = Mark;
subCategory = Nonspacing;
},
{
glyphname = "dammatan-ar";
layers = (
{
anchors = (
{
name = _top.mark;
position = "{0, 0}";
}
);
layerId = master01;
paths = (
{
closed = 1;
nodes = (
"107 27 LINE SMOOTH",
"141 40 OFFCURVE",
"150 73 OFFCURVE",
"141 100 CURVE SMOOTH",
"127 136 OFFCURVE",
"83 168 OFFCURVE",
"31 154 CURVE SMOOTH",
"-1 144 OFFCURVE",
"-18 108 OFFCURVE",
"-6 75 CURVE SMOOTH",
"7 39 LINE",
"-47 19 LINE SMOOTH",
"-63 13 OFFCURVE",
"-83 20 OFFCURVE",
"-88 36 CURVE SMOOTH",
"-102 76 LINE SMOOTH",
"-106 87 OFFCURVE",
"-119 93 OFFCURVE",
"-131 89 CURVE SMOOTH",
"-143 85 OFFCURVE",
"-148 72 OFFCURVE",
"-144 60 CURVE SMOOTH",
"-130 21 LINE SMOOTH",
"-115 -22 OFFCURVE",
"-68 -37 OFFCURVE",
"-32 -23 CURVE SMOOTH"
);
},
{
closed = 1;
nodes = (
"36 89 LINE SMOOTH",
"32 99 OFFCURVE",
"37 108 OFFCURVE",
"44 110 CURVE",
"70 117 OFFCURVE",
"93 100 OFFCURVE",
"99 85 CURVE SMOOTH",
"102 76 OFFCURVE",
"101 74 OFFCURVE",
"91 70 CURVE SMOOTH",
"49 54 LINE"
);
}
);
width = 0;
},
{
anchors = (
{
name = _top.mark;
position = "{0, 0}";
}
);
layerId = "0CAB57D4-4FC4-49C3-B456-FB7666EAA712";
paths = (
{
closed = 1;
nodes = (
"103 33 LINE SMOOTH",
"134 44 OFFCURVE",
"142 73 OFFCURVE",
"133 97 CURVE SMOOTH",
"121 130 OFFCURVE",
"80 160 OFFCURVE",
"32 147 CURVE SMOOTH",
"3 138 OFFCURVE",
"-12 106 OFFCURVE",
"-2 76 CURVE SMOOTH",
"13 35 LINE",
"-47 13 LINE SMOOTH",
"-66 6 OFFCURVE",
"-89 13 OFFCURVE",
"-96 33 CURVE SMOOTH",
"-110 73 LINE SMOOTH",
"-113 81 OFFCURVE",
"-123 85 OFFCURVE",
"-131 82 CURVE SMOOTH",
"-139 79 OFFCURVE",
"-143 70 OFFCURVE",
"-140 62 CURVE SMOOTH",
"-126 22 LINE SMOOTH",
"-112 -17 OFFCURVE",
"-69 -29 OFFCURVE",
"-36 -17 CURVE SMOOTH"
);
},
{
closed = 1;
nodes = (
"28 87 LINE SMOOTH",
"23 101 OFFCURVE",
"31 113 OFFCURVE",
"40 116 CURVE",
"71 124 OFFCURVE",
"96 104 OFFCURVE",
"103 86 CURVE SMOOTH",
"107 75 OFFCURVE",
"105 68 OFFCURVE",
"92 63 CURVE SMOOTH",
"43 46 LINE"
);
}
);
width = 0;
},
{
anchors = (
{
name = _top.mark;
position = "{0, 0}";
}
);
layerId = "42B3044F-4D5A-45CA-9EB7-C1889731596B";
paths = (
{
closed = 1;
nodes = (
"129 22 LINE SMOOTH",
"183.264 41.861 OFFCURVE",
"194.441 83.998 OFFCURVE",
"177 127 CURVE SMOOTH",
"156.761 176.904 OFFCURVE",
"98 220 OFFCURVE",
"26 200 CURVE SMOOTH",
"-22 185 OFFCURVE",
"-46 136 OFFCURVE",
"-30 88 CURVE SMOOTH",
"-15 49 LINE",
"-49 37 LINE SMOOTH",
"-67 31 OFFCURVE",
"-85 38 OFFCURVE",
"-91 53 CURVE SMOOTH",
"-111 104 LINE SMOOTH",
"-119 124 OFFCURVE",
"-139 135 OFFCURVE",
"-159 127 CURVE SMOOTH",
"-179 119 OFFCURVE",
"-189 99 OFFCURVE",
"-181 79 CURVE SMOOTH",
"-162 28 LINE SMOOTH",
"-140 -34 OFFCURVE",
"-74 -52 OFFCURVE",
"-24 -34 CURVE SMOOTH"
);
},
{
closed = 1;
nodes = (
"42 112 LINE SMOOTH",
"36 130 OFFCURVE",
"53.008 131.087 OFFCURVE",
"65 130 CURVE SMOOTH",
"90.851 127.657 OFFCURVE",
"104.421 105.774 OFFCURVE",
"106.156 100.074 CURVE SMOOTH",
"107.515 95.613 OFFCURVE",
"104.186 92.856 OFFCURVE",
"102 92 CURVE SMOOTH",
"56 74 LINE"
);
}
);
width = 0;
},
{
associatedMasterId = "42B3044F-4D5A-45CA-9EB7-C1889731596B";
layerId = "660D3B9A-C46C-4035-B9F4-C643475CED21";
name = Back;
paths = (
{
closed = 0;
nodes = (
"21 62.5 LINE",
"8.943 95.624 LINE SMOOTH",
"3.963 110.04 OFFCURVE",
"11.775 125.122 OFFCURVE",
"24.248 128.863 CURVE SMOOTH",
"67.902 140.495 OFFCURVE",
"101.324 86.681 OFFCURVE",
"65.146 73.513 CURVE SMOOTH",
"-27.414 39.824 LINE SMOOTH",
"-44.799 33.497 OFFCURVE",
"-66.416 40.261 OFFCURVE",
"-73.513 59.76 CURVE SMOOTH",
"-83.175 86.306 LINE"
);
}
);
width = 0;
}
);
unicode = 064C;
category = Mark;
subCategory = Nonspacing;
},
{
glyphname = "fatha-ar";
layers = (
{
anchors = (
{
name = _top.mark;
position = "{0, 0}";
}
);
layerId = master01;
paths = (
{
closed = 1;
nodes = (
"107 58 LINE SMOOTH",
"119 61 OFFCURVE",
"124 74 OFFCURVE",
"121 86 CURVE SMOOTH",
"117 98 OFFCURVE",
"103 103 OFFCURVE",
"91 99 CURVE SMOOTH",
"-107 27 LINE SMOOTH",
"-119 23 OFFCURVE",
"-124 10 OFFCURVE",
"-121 -2 CURVE SMOOTH",
"-117 -14 OFFCURVE",
"-103 -19 OFFCURVE",
"-91 -15 CURVE SMOOTH"
);
}
);
width = 0;
},
{
anchors = (
{
name = _top.mark;
position = "{0, 0}";
}
);
layerId = "0CAB57D4-4FC4-49C3-B456-FB7666EAA712";
paths = (
{
closed = 1;
nodes = (
"105 62 LINE SMOOTH",
"113 65 OFFCURVE",
"118 75 OFFCURVE",
"115 83 CURVE SMOOTH",
"112 91 OFFCURVE",
"102 95 OFFCURVE",
"94 92 CURVE SMOOTH",
"-105 19 LINE SMOOTH",
"-113 16 OFFCURVE",
"-118 7 OFFCURVE",
"-115 -1 CURVE SMOOTH",
"-112 -9 OFFCURVE",
"-102 -14 OFFCURVE",
"-94 -11 CURVE SMOOTH"
);
}
);
width = 0;
},
{
anchors = (
{
name = _top.mark;
position = "{0, 0}";
}
);
layerId = "42B3044F-4D5A-45CA-9EB7-C1889731596B";
paths = (
{
closed = 1;
nodes = (
"112 52 LINE SMOOTH",
"132 60 OFFCURVE",
"143 80 OFFCURVE",
"135 100 CURVE SMOOTH",
"127 120 OFFCURVE",
"107 129 OFFCURVE",
"87 121 CURVE SMOOTH",
"-112 49 LINE SMOOTH",
"-132 41 OFFCURVE",
"-143 21 OFFCURVE",
"-135 1 CURVE SMOOTH",
"-127 -19 OFFCURVE",
"-107 -30 OFFCURVE",
"-87 -22 CURVE SMOOTH"
);
}
);
width = 0;
}
);
unicode = 064E;
category = Mark;
subCategory = Nonspacing;
},
{
glyphname = "damma-ar";
layers = (
{
anchors = (
{
name = _top.mark;
position = "{0, 0}";
}
);
layerId = master01;
paths = (
{
closed = 1;
nodes = (
"75 32 LINE SMOOTH",
"109 45 OFFCURVE",
"119 78 OFFCURVE",
"109 105 CURVE SMOOTH",
"96 141 OFFCURVE",
"52 173 OFFCURVE",
"0 159 CURVE SMOOTH",
"-32 149 OFFCURVE",
"-49 112 OFFCURVE",
"-37 79 CURVE SMOOTH",
"-26 43 LINE",
"-107 13 LINE SMOOTH",
"-119 10 OFFCURVE",
"-124 -3 OFFCURVE",
"-120 -15 CURVE SMOOTH",
"-117 -27 OFFCURVE",
"-104 -32 OFFCURVE",
"-92 -28 CURVE SMOOTH"
);
},
{
closed = 1;
nodes = (
"5 94 LINE SMOOTH",
"1 104 OFFCURVE",
"7 113 OFFCURVE",
"12 115 CURVE",
"39 122 OFFCURVE",
"62 105 OFFCURVE",
"68 89 CURVE SMOOTH",
"71 80 OFFCURVE",
"70 78 OFFCURVE",
"60 75 CURVE SMOOTH",
"17 59 LINE"
);
}
);
width = 0;
},
{
anchors = (
{
name = _top.mark;
position = "{0, 0}";
}
);
layerId = "0CAB57D4-4FC4-49C3-B456-FB7666EAA712";
paths = (
{
closed = 1;
nodes = (
"65 37 LINE SMOOTH",
"96 48 OFFCURVE",
"104 77 OFFCURVE",
"95 101 CURVE SMOOTH",
"83 134 OFFCURVE",
"42 164 OFFCURVE",
"-6 151 CURVE SMOOTH",
"-35 142 OFFCURVE",
"-50 110 OFFCURVE",
"-40 80 CURVE SMOOTH",
"-25 39 LINE",
"-113 7 LINE SMOOTH",
"-121 4 OFFCURVE",
"-126 -6 OFFCURVE",
"-123 -14 CURVE SMOOTH",
"-120 -22 OFFCURVE",
"-110 -26 OFFCURVE",
"-102 -23 CURVE SMOOTH"
);
},
{
closed = 1;
nodes = (
"-10 91 LINE SMOOTH",
"-15 105 OFFCURVE",
"-7 117 OFFCURVE",
"2 120 CURVE",
"33 128 OFFCURVE",
"58 108 OFFCURVE",
"65 90 CURVE SMOOTH",
"69 79 OFFCURVE",
"67 72 OFFCURVE",
"54 67 CURVE SMOOTH",
"5 50 LINE"
);
}
);
width = 0;
},
{
anchors = (
{
name = _top.mark;
position = "{0, 0}";
}
);
layerId = "42B3044F-4D5A-45CA-9EB7-C1889731596B";
paths = (
{
closed = 1;
nodes = (
"93 29 LINE SMOOTH",
"143.576 47.367 OFFCURVE",
"156.26 95.849 OFFCURVE",
"141 134 CURVE SMOOTH",
"121 184 OFFCURVE",
"62 228 OFFCURVE",
"-10 208 CURVE SMOOTH",
"-58 193 OFFCURVE",
"-80 143 OFFCURVE",
"-64 95 CURVE SMOOTH",
"-51 56 LINE",
"-123 31 LINE SMOOTH",
"-143 23 OFFCURVE",
"-153 3 OFFCURVE",
"-145 -17 CURVE SMOOTH",
"-137 -37 OFFCURVE",
"-116 -48 OFFCURVE",
"-97 -40 CURVE"
);
},
{
closed = 1;
nodes = (
"6 119 LINE SMOOTH",
"0 137 OFFCURVE",
"17 137 OFFCURVE",
"29 137 CURVE",
"59 134 OFFCURVE",
"72 107 OFFCURVE",
"72 103 CURVE",
"72 103 OFFCURVE",
"71 102 OFFCURVE",
"68 100 CURVE",
"20 82 LINE"
);
}
);
width = 0;
},
{
associatedMasterId = "42B3044F-4D5A-45CA-9EB7-C1889731596B";
layerId = "537379E7-7143-45A0-B13C-15DF94ECBD75";
name = Back;
paths = (
{
closed = 0;
nodes = (
"-8.807 53.464 LINE",
"-20.863 86.588 LINE SMOOTH",
"-25.844 101.004 OFFCURVE",
"-18.031 116.086 OFFCURVE",
"-5.559 119.827 CURVE SMOOTH",
"38.096 131.459 OFFCURVE",
"71.519 77.645 OFFCURVE",
"35.339 64.476 CURVE SMOOTH",
"-76.015 23.947 LINE"
);
}
);
width = 0;
}
);
unicode = 064F;
category = Mark;
subCategory = Nonspacing;
},
{
glyphname = "damma-ar.alt";
layers = (
{
anchors = (
{
name = _dammaHamza;
position = "{101, 0}";
},
{
name = _top.hamza;
position = "{0, 0}";
}
);
layerId = master01;
paths = (
{
closed = 1;
nodes = (
"27 -4 OFFCURVE",
"51 41 OFFCURVE",
"51 87 CURVE SMOOTH",
"51 132 OFFCURVE",
"33 156 OFFCURVE",
"1 156 CURVE SMOOTH",
"-21 156 OFFCURVE",
"-40 142 OFFCURVE",
"-40 112 CURVE SMOOTH",
"-40 86 OFFCURVE",
"-18 73 OFFCURVE",
"1 73 CURVE SMOOTH",
"15 73 OFFCURVE",
"25 78 OFFCURVE",
"35 90 CURVE",
"-1 128 LINE",
"10 78 LINE",
"10 46 OFFCURVE",
"-8 21 OFFCURVE",
"-47 2 CURVE",
"-30 -30 LINE"
);
}
);
width = 0;
},
{
anchors = (
{
name = _dammaHamza;
position = "{95, 0}";
},
{
name = _top.hamza;
position = "{0, 0}";
}
);
layerId = "0CAB57D4-4FC4-49C3-B456-FB7666EAA712";
paths = (
{
closed = 1;
nodes = (
"23 6 OFFCURVE",
"43 49 OFFCURVE",
"43 91 CURVE SMOOTH",
"43 131 OFFCURVE",
"28 152 OFFCURVE",
"2 152 CURVE SMOOTH",
"-16 152 OFFCURVE",
"-31 141 OFFCURVE",
"-31 115 CURVE SMOOTH",
"-31 92 OFFCURVE",
"-12 83 OFFCURVE",
"3 83 CURVE SMOOTH",
"16 83 OFFCURVE",
"24 87 OFFCURVE",
"34 101 CURVE",
"-3 134 LINE",
"11 86 LINE",
"11 54 OFFCURVE",
"-4 26 OFFCURVE",
"-42 5 CURVE",
"-27 -20 LINE"
);
}
);
width = 0;
},
{
anchors = (
{
name = _dammaHamza;
position = "{145, 0}";
},
{
name = _top.hamza;
position = "{0, 0}";
}
);
layerId = "42B3044F-4D5A-45CA-9EB7-C1889731596B";
paths = (
{
closed = 1;
nodes = (
"36 -8 OFFCURVE",
"70 41 OFFCURVE",
"70 100 CURVE SMOOTH",
"70 157 OFFCURVE",
"46 188 OFFCURVE",
"-2 188 CURVE SMOOTH",
"-34 188 OFFCURVE",
"-60 164 OFFCURVE",
"-60 126 CURVE SMOOTH",
"-60 92 OFFCURVE",
"-34 70 OFFCURVE",
"-3 70 CURVE SMOOTH",
"12 70 OFFCURVE",
"27 78 OFFCURVE",
"38 87 CURVE",
"4 135 LINE",
"6 82 LINE",
"6 50 OFFCURVE",
"-18 30 OFFCURVE",
"-60 16 CURVE",
"-36 -34 LINE"
);
}
);
width = 0;
}
);
category = Mark;
subCategory = Nonspacing;
},
